<svg xmlns="http://www.w3.org/2000/svg" width="512" height="512" style="enable-background:new 0 0 512 512" xml:space="preserve"><circle r="256" cx="256" cy="256" fill="#ffdd57"/><g xmlns="http://www.w3.org/2000/svg"><path d="M499.2 256c0 134.318-108.882 243.2-243.2 243.2S12.8 390.318 12.8 256 121.682 12.8 256 12.8 499.2 121.682 499.2 256zm0 0" fill="#25d4f2"/><path d="M499.2 256c0 24.748-3.696 48.631-10.573 71.127a241.844 241.844 0 0 1-18.762 44.754 243.35 243.35 0 0 1-27.598 40.48c-.553.656-1.102 1.31-1.663 1.955C396.01 466.284 329.844 499.2 256 499.2s-140.01-32.916-184.594-84.884c-.56-.653-1.12-1.31-1.662-1.967a241.466 241.466 0 0 1-27.598-40.468 234.356 234.356 0 0 1-8.664-17.604C20.182 324.229 12.8 290.979 12.8 256c0-43.908 11.634-85.098 31.992-120.657C86.707 208.56 165.598 257.9 256 257.9s169.3-49.333 211.204-122.55C487.562 170.909 499.2 212.092 499.2 256zm0 0" fill="#2fb3ea"/><path d="M469.999 371.614a243.446 243.446 0 0 1-23.487 35.559 243.393 243.393 0 0 1-26.333 28.236C376.917 475.023 319.279 499.2 256 499.2s-120.917-24.177-164.179-63.79a243.393 243.393 0 0 1-26.333-28.237 243.446 243.446 0 0 1-23.487-35.559zm0 0" fill="#303a59"/></g><path d="M274.67 194.539h32.002v121.073H274.67z" fill="#ffd185"/><path d="M167.999 194.539h-32.002V299.61l32.002 16zM205.334 194.539h32.001v121.073h-32.001z" fill="#ffe8c2"/><path d="M344.007 194.539v121.073l32.002-16.001V194.539z" fill="#ffd185"/><path d="M256.003 299.61l-112.005 32.002h232.544v-32.001z" fill="#ffe8c2"/><path d="M135.997 299.61h120.006v32.002H135.997z" fill="#fff3e0"/><path d="M224.001 194.539l168.542-32.002-136.54-64.002z" fill="#ffd185"/><path d="M256.003 98.535l-136.54 64.002 136.54 32.002z" fill="#fff1d9"/><path d="M256.003 98.535l-72.785 64.002 72.785 32.002z" fill="#ffe8c2"/><path d="M256.003 202.54h136.54v-40.003h-136.54l-26.668 20.001z" fill="#ffe8c2"/><path d="M119.463 162.537h136.54v40.002h-136.54z" fill="#fff3e0"/><path d="M392.543 323.612h-136.54l-26.668 24.001 26.668 24.001h136.54z" fill="#ffd185"/><path d="M119.463 323.612h136.54v48.002h-136.54z" fill="#ffe8c2"/><path d="M119.463 323.612h63.755v48.002h-63.755z" fill="#fff1d9"/></svg>