<svg xmlns="http://www.w3.org/2000/svg" width="512" height="512" style="enable-background:new 0 0 512 512" xml:space="preserve"><circle r="256" cx="256" cy="256" fill="#3e8ed0"/><g xmlns="http://www.w3.org/2000/svg"><path d="M256 301.118c-134.318 0-232.213-127.716-212.915-162.575C84.54 63.663 164.349 12.968 256 12.968c91.65 0 171.458 50.694 212.914 125.573 19.3 34.86-78.596 162.577-212.914 162.577z" fill="#25d4f2"/><path d="M499.2 256.168c0 24.749-3.696 48.632-10.573 71.128a241.844 241.844 0 0 1-18.762 44.753c-7.838 14.44-140.021 36.507-213.865 36.507S49.973 386.489 42.146 372.049a234.356 234.356 0 0 1-8.664-17.604c-13.3-30.048-20.682-63.298-20.682-98.277 0-43.908 11.638-85.091 31.996-120.65C86.711 208.735 165.598 258.068 256 258.068s169.3-49.333 211.204-122.55c20.358 35.559 31.996 76.742 31.996 120.65zm0 0" fill="#2fb3ea"/><path d="M469.999 371.782a243.446 243.446 0 0 1-23.487 35.559 243.393 243.393 0 0 1-26.333 28.237c-31.47 28.816-70.547 49.463-113.869 58.578-16.233 3.416-128.09-4.457-161.387-21.585a243.772 243.772 0 0 1-53.102-36.993 243.393 243.393 0 0 1-26.333-28.237 243.446 243.446 0 0 1-23.487-35.559zm0 0" fill="#4271db"/><path d="M358.475 121.177l-57.577-11.452-71.321 57.64L344.73 190.27z" fill="#ffd185"/><path d="M229.577 167.308L243.314 98.2l57.59 11.448-13.737 69.107z" fill="#ffe8c2"/><path d="M352.801 270.064l19.543-98.244-80.609-16.034h-43.023v114.278z" fill="#ffb664"/><path d="M211.128 139.752l-19.543 98.244 75.938 39.517 24.212-121.727z" fill="#ffd185"/><path d="M211.128 139.752l-19.543 98.244 19.572 27.006 23.965-120.477z" fill="#ffe1b0"/><path d="M233.005 270.58l15.043-75.68 23.036 4.578-15.043 75.681z" fill="#ff5a35"/><path d="M279.064 279.731l15.044-75.68 23.036 4.579-15.044 75.68z" fill="#ff3a2f"/><path d="M231.46 254.03v102.762h104.09l17.251-86.728-80.607-16.034z" fill="#ffd185"/><path d="M191.585 237.996l-17.25 86.728 75.936 39.516 21.923-110.21z" fill="#ffe8c2"/><path d="M191.585 237.996l-17.25 86.728 19.321 29.29 22.069-111.216z" fill="#fff5e6"/><path d="M215.773 357.305l15.044-75.68 23.036 4.579-15.044 75.68z" fill="#ff7a3c"/><path d="M261.834 366.456l15.043-75.68 23.036 4.58-15.044 75.68z" fill="#ff5a35"/><path d="M214.21 340.758V443.52H318.3l17.25-86.728-80.607-16.034z" fill="#ffb664"/><path d="M174.334 324.724l-17.25 86.728 75.936 39.516 21.923-110.21z" fill="#ffd185"/><path d="M174.334 324.724l-17.25 86.728 21.558 16.034 19.832-97.96z" fill="#ffe1b0"/><path d="M198.542 444.028l15.043-75.68 23.036 4.58-15.043 75.68z" fill="#ff5a35"/><path d="M244.601 453.18l15.043-75.68 23.036 4.579-15.043 75.68z" fill="#ff3a2f"/><path d="M199.978 427.486l22.85 69.621a244.29 244.29 0 0 0 20.352 1.926h25.641a243.187 243.187 0 0 0 39.495-5.324l9.984-50.188-80.608-16.035z" fill="#ff9850"/><path d="M144.925 472.574a241.531 241.531 0 0 0 78.89 24.67l13.876-69.758-80.608-16.034z" fill="#ffb664"/><path d="M144.925 472.574a241.687 241.687 0 0 0 21.71 9.848l14.292-66.227-23.844-4.744z" fill="#ffc88a"/><g fill="#fff"><path d="M113.218 277.563h-1.448c-6.416 0-11.615-5.203-11.615-11.616v-1.446h-8.279v1.446c0 6.413-5.203 11.616-11.616 11.616h-1.45v8.28h1.45c6.413 0 11.616 5.198 11.616 11.614v1.452h8.28v-1.452c0-6.416 5.198-11.615 11.614-11.615h1.448zm23.072-97.787h-1.448c-6.417 0-11.615-5.203-11.615-11.616v-1.447h-8.28v1.447c0 6.413-5.202 11.616-11.615 11.616h-1.45v8.279h1.45c6.413 0 11.616 5.198 11.616 11.615v1.451h8.28v-1.451c0-6.417 5.197-11.615 11.614-11.615h1.448zm66.94-84.789h-1.448c-6.417 0-11.615-5.203-11.615-11.615v-1.447h-8.28v1.447c0 6.412-5.202 11.615-11.615 11.615h-1.45v8.28h1.45c6.413 0 11.616 5.198 11.616 11.614v1.452h8.279v-1.452c0-6.416 5.198-11.614 11.615-11.614h1.447zm0 0"/></g></g></svg>