<svg xmlns="http://www.w3.org/2000/svg" width="512" height="512" style="enable-background:new 0 0 512 512" xml:space="preserve"><circle r="256" cx="256" cy="256" fill="#48c774"/><g xmlns="http://www.w3.org/2000/svg"><path d="M499.2 256c0 134.318-108.882 243.2-243.2 243.2S12.8 390.318 12.8 256 121.682 12.8 256 12.8 499.2 121.682 499.2 256zm0 0" fill="#25d4f2"/><path d="M499.2 256c0 24.748-3.696 48.631-10.573 71.127a241.844 241.844 0 0 1-18.762 44.754 243.35 243.35 0 0 1-27.598 40.48c-.553.656-1.102 1.31-1.663 1.955C396.01 466.284 329.844 499.2 256 499.2s-140.01-32.916-184.594-84.884c-.56-.653-1.12-1.31-1.662-1.967a241.466 241.466 0 0 1-27.598-40.468 234.356 234.356 0 0 1-8.664-17.604C20.182 324.229 12.8 290.979 12.8 256c0-43.908 11.638-85.091 31.996-120.65C86.711 208.567 165.598 257.9 256 257.9s169.3-49.333 211.204-122.55C487.562 170.909 499.2 212.092 499.2 256zm0 0" fill="#2fb3ea"/><path d="M469.999 371.614a243.446 243.446 0 0 1-23.487 35.559 243.393 243.393 0 0 1-26.333 28.236C376.917 475.023 319.279 499.2 256 499.2s-120.917-24.177-164.179-63.79a243.393 243.393 0 0 1-26.333-28.237 243.446 243.446 0 0 1-23.487-35.559zm0 0" fill="#303a59"/><g><path d="M264.666 75.919h-8.663l-8.663 25.99h17.326z" fill="#c5bdb0"/><path d="M247.34 75.919h8.663v25.99h-8.663z" fill="#e2d8c8"/><path d="M303.353 274.076c-13.975-52.066-21.362-111.6-21.362-172.169v-8.663h-25.99l-25.987 191.74h76.267z" fill="#a8a297"/><path d="M230.014 93.245v8.663c0 60.568-7.387 120.103-21.362 172.169l-2.928 10.908h50.278V93.245z" fill="#ded5c6"/><path d="M246.49 93.245v8.663c0 60.568-7.386 120.103-21.361 172.169l-2.928 10.908h33.802V93.245z" fill="#c5bdb0"/><path d="M359.759 371.614l-41.582-103.956h-62.174l-17.326 25.99 17.326 25.989c23.884 0 43.314 19.43 43.314 43.314v8.663z" fill="#8c877f"/><path d="M193.83 267.658l-41.583 103.956h60.442v-8.663c0-23.884 19.43-43.314 43.314-43.314v-51.978h-62.174z" fill="#bdb6aa"/><path d="M226.516 267.658l-41.583 103.956h27.755v-8.663c0-23.884 19.43-43.314 43.314-43.314v-51.978h-29.486z" fill="#a8a297"/><path d="M306.803 198.355h-50.8l-11.55 8.663 11.55 8.663h50.8z" fill="#8c877f"/><path d="M205.203 198.355h50.8v17.326h-50.8z" fill="#a8a297"/><path d="M205.203 198.355v17.326h32.349l2.569-17.326z" fill="#bfb8ac"/></g><g fill="#fff"><path d="M151.748 113.69h1.448c6.416 0 11.614 5.198 11.614 11.615v1.451h8.28v-1.451c0-6.417 5.203-11.615 11.615-11.615h1.451v-8.28h-1.45c-6.413 0-11.616-5.202-11.616-11.615v-1.447h-8.28v1.447c0 6.413-5.198 11.616-11.614 11.616h-1.448zm0-8.28M97.884 198.143h1.448c6.416 0 11.614 5.199 11.614 11.615v1.451h8.28v-1.451c0-6.417 5.203-11.615 11.615-11.615h1.451v-8.28h-1.45c-6.413 0-11.616-5.202-11.616-11.615v-1.447h-8.28v1.447c0 6.413-5.198 11.616-11.614 11.616h-1.448zm0-8.28M87.235 291.816h1.448c6.416 0 11.615 5.198 11.615 11.615v1.451h8.28v-1.451c0-6.417 5.202-11.615 11.615-11.615h1.45v-8.28h-1.45c-6.413 0-11.616-5.202-11.616-11.615v-1.447h-8.28v1.447c0 6.413-5.198 11.616-11.614 11.616h-1.448zm0-8.28"/><g><path d="M360.196 105.41h-1.448c-6.416 0-11.614-5.202-11.614-11.615v-1.447h-8.28v1.447c0 6.413-5.203 11.616-11.615 11.616h-1.451v8.279h1.45c6.413 0 11.616 5.198 11.616 11.615v1.451h8.28v-1.451c0-6.417 5.198-11.615 11.614-11.615h1.448zm0 0M414.06 189.864h-1.448c-6.416 0-11.614-5.203-11.614-11.616v-1.447h-8.28v1.447c0 6.413-5.203 11.616-11.615 11.616h-1.451v8.28h1.45c6.413 0 11.616 5.197 11.616 11.614v1.451h8.28v-1.451c0-6.417 5.198-11.615 11.614-11.615h1.448zm0 0M424.709 283.537h-1.448c-6.417 0-11.615-5.203-11.615-11.616v-1.447h-8.28v1.447c0 6.413-5.202 11.616-11.615 11.616h-1.45v8.279h1.45c6.413 0 11.616 5.198 11.616 11.615v1.451h8.28v-1.451c0-6.417 5.197-11.615 11.614-11.615h1.448zm0 0"/></g></g></g></svg>