<svg xmlns="http://www.w3.org/2000/svg" width="512" height="512" style="enable-background:new 0 0 512 512" xml:space="preserve"><circle r="256" cx="256" cy="256" fill="#3e8ed0"/><g xmlns="http://www.w3.org/2000/svg"><path d="M499.2 256c0 8.446-.428 16.796-1.273 25.023v.01L453.505 397.93a240.649 240.649 0 0 1-7.182 9.472l-33.915 16.359c-98.819 47.661-213.997 47.661-312.816 0L65.677 407.4a238.693 238.693 0 0 1-9.909-13.338L13.55 275.237A243.151 243.151 0 0 1 12.8 256c0-43.909 11.637-85.092 31.996-120.65C86.71 62.133 165.598 12.8 256 12.8s169.29 49.333 211.204 122.55C487.562 170.908 499.2 212.091 499.2 256z" fill="#00e1c3" data-original="#00e1c3"/><path d="M499.2 256c0 8.446-.428 16.796-1.273 25.023L453.505 397.93a240.649 240.649 0 0 1-7.182 9.472l-33.915 16.359c-98.819 47.661-213.997 47.661-312.816 0L65.677 407.4a238.693 238.693 0 0 1-9.909-13.338L13.55 275.237A247.96 247.96 0 0 1 12.8 256c0-43.909 11.637-85.092 31.996-120.65 17.423 30.438 41.23 56.734 69.606 77.083a242.002 242.002 0 0 0 63.954 32.803C202.743 253.454 228.85 257.9 256 257.9c90.402 0 169.29-49.334 211.204-122.55C487.562 170.908 499.2 212.091 499.2 256z" fill="#05d3b0" data-original="#05d3b0"/><path d="M256 499.2c-77.074 0-145.787-35.862-190.342-91.808h380.684" fill="#c4f258" data-original="#c4f258"/><path d="M446.342 407.392C401.787 463.337 333.073 499.2 256 499.2v-91.808z" fill="#b1d511" data-original="#b1d511"/><g transform="matrix(.95 0 0 .95 12.8 12.8)"><path d="M174.27 244.67c-16.81-19.12-40.59-31.96-67.32-34.53-3.26-.32-6.57-.48-9.92-.48-43.94 0-81.54 27.72-96.24 66.59 3.62 46.23 19.52 89.01 44.44 125.08 15.22 8.92 32.92 14.03 51.8 14.03 56.71 0 102.87-46.13 102.87-102.85 0-25.97-9.68-49.72-25.63-67.84zM97.03 372.61c-33.14 0-60.1-26.96-60.1-60.1 0-33.13 26.96-60.09 60.1-60.09 33.15 0 60.1 26.96 60.1 60.09 0 33.14-26.95 60.1-60.1 60.1z" fill="#374c81" data-original="#374c81"/><path d="M97.035 229.572c-45.73 0-82.952 37.196-82.952 82.94s37.222 82.952 82.952 82.952c45.743 0 82.952-37.209 82.952-82.952s-37.209-82.94-82.952-82.94zm0 143.04c-33.142 0-60.1-26.958-60.1-60.1 0-33.129 26.958-60.087 60.1-60.087s60.1 26.958 60.1 60.087c0 33.142-26.958 60.1-60.1 60.1z" fill="#323b5a" data-original="#323b5a"/><path d="M251.655 308.432l-10.044 2.388-10.058 2.389-46.208-194.683 10.058-2.389 10.044-2.388z" fill="#3e8ed0" data-original="#f50000"/><path d="M195.351 116.238l10.047-2.385 46.22 194.69-10.045 2.384z" fill="#4673cb" data-original="#c10000"/><path d="M421.21 222.2c-53.24 0-96.57 43.32-96.57 96.59 0 53.25 43.33 96.57 96.57 96.57 15.31 0 29.81-3.58 42.69-9.96 25.44-35.34 42.09-77.42 46.76-123.06-14.4-35.25-49.07-60.14-89.45-60.14zm.02 156.67c-33.15 0-60.1-26.95-60.1-60.08 0-33.15 26.95-60.1 60.1-60.1 33.14 0 60.1 26.95 60.1 60.1 0 33.13-26.96 60.08-60.1 60.08z" fill="#374c81" data-original="#374c81"/><path d="M421.227 240.559c-43.135 0-78.227 35.079-78.227 78.227 0 43.135 35.092 78.227 78.227 78.227s78.227-35.092 78.227-78.227c0-43.148-35.092-78.227-78.227-78.227zm0 138.315c-33.142 0-60.1-26.958-60.1-60.087 0-33.142 26.958-60.1 60.1-60.1s60.1 26.958 60.1 60.1c0 33.129-26.958 60.087-60.1 60.087z" fill="#323b5a" data-original="#323b5a"/><circle cx="421.226" cy="318.782" fill="#d1f6ff" transform="rotate(-80.85 421.384 318.867)" data-original="#d1f6ff" r="25.015"/><circle cx="421.226" cy="318.782" fill="#313b5a" transform="rotate(-22.7 421.342 318.785)" data-original="#313b5a" r="14.372"/><path d="M403.854 106.646c0-5.819-4.717-10.537-10.537-10.537h-49.834c-2.306 0-4.609.626-6.462 1.997-3.644 2.696-5.104 7.205-3.954 11.356l30.748 110.903a10.522 10.522 0 0 0 10.134 7.74c.939 0 1.878-.134 2.835-.383a10.41 10.41 0 0 0 3.276-1.59c.328-.231.624-.496.921-.762v-21.947l-23.91-86.24h36.246c5.819 0 10.537-4.718 10.537-10.537z" fill="#fff" data-original="#ffffff"/><path d="M403.854 106.646H343.22l12.874 46.419 20.69 74.657 3.276-1.59c.328-.231.624-.496.921-.762v-21.947l-23.91-86.24h36.246c5.819 0 10.537-4.718 10.537-10.537z" fill="#d1f6ff" data-original="#d1f6ff"/><path d="M428.664 304.83a466.673 466.673 0 0 1-48.984-117.412l-.039-.155-9.479-34.199h-28.139l11.461 41.364a493.343 493.343 0 0 0 51.824 124.151c2.518 4.299 7.049 6.688 11.684 6.688 2.337 0 4.713-.607 6.869-1.872 6.455-3.795 8.599-12.11 4.803-18.565z" fill="#3e8ed0" data-original="#f50000"/><path d="M428.664 304.83a466.673 466.673 0 0 1-48.984-117.412l-.039-.155-9.479-34.199h-14.068l10.482 37.827a480.504 480.504 0 0 0 50.404 120.82l6.882 11.684c6.454-3.795 8.598-12.11 4.802-18.565z" fill="#4673cb" data-original="#c10000"/><path d="M385.322 207.043l-9.025-31.825c-1.666-5.823-6.985-9.851-13.04-9.851H203.588a13.547 13.547 0 0 0-10.548 5.035L86.486 302.299a13.586 13.586 0 0 0-1.691 14.37 13.566 13.566 0 0 0 12.24 7.708h144.576a13.55 13.55 0 0 0 8.237-2.789l130.671-100.085a13.545 13.545 0 0 0 4.803-14.46zm-259.909 90.221l84.644-104.785h142.949l3.718 13.092-119.71 91.693z" fill="#4673cb" data-original="#ff4852"/><path d="M363.257 178.923H203.588L97.035 310.82h144.576l130.671-100.085zM237.014 297.264H125.413l84.644-104.785h142.949l3.718 13.092z" fill="#3e8ed0" data-original="#f50000"/><path d="M260.779 130.484c0 6.731-5.446 12.178-12.166 12.178h-68.19a20.769 20.769 0 0 1-14.736-6.106 20.747 20.747 0 0 1-5.708-10.7 20.547 20.547 0 0 1-.398-4.037c0-13.633 12.872-23.594 26.062-20.183l66.007 17.067a12.136 12.136 0 0 1 6.583 4.332 11.585 11.585 0 0 1 1.626 2.82c.602 1.434.92 3.003.92 4.629z" fill="#535e89" data-original="#535e89"/><circle cx="97.034" cy="310.822" fill="#fff" r="25.015" data-original="#ffffff"/><path d="M233.652 282.404v44.806l-128.658-10.393V304.21zm7.959-9.422L97.034 297.486v26.673l144.577 11.679z" fill="#313b5a" data-original="#313b5a"/><circle cx="241.611" cy="304.41" fill="#313b5a" transform="rotate(-45 241.575 304.477)" data-original="#313b5a" r="31.428"/><circle cx="241.611" cy="304.41" fill="#fff" transform="rotate(-47.76 241.615 304.484)" data-original="#ffffff" r="11.078"/><path d="M260.779 130.484c0 6.731-5.446 12.178-12.166 12.178h-68.19a20.769 20.769 0 0 1-14.736-6.106 20.747 20.747 0 0 1-5.708-10.7h99.88c.602 1.433.92 3.002.92 4.628z" fill="#313b5a" data-original="#313b5a"/><circle cx="97.034" cy="310.822" fill="#313b5a" r="13.336" data-original="#313b5a"/><circle cx="97.034" cy="310.822" fill="#fff" r="5.636" data-original="#ffffff"/><circle cx="396.376" cy="106.646" fill="#535e89" r="19.902" data-original="#535e89"/><circle cx="396.376" cy="106.646" fill="#313b5a" r="8.026" data-original="#313b5a"/></g></g></svg>