<svg xmlns="http://www.w3.org/2000/svg" width="512" height="512" style="enable-background:new 0 0 512 512" xml:space="preserve"><circle r="256" cx="256" cy="256" fill="#48c774" style="fill:#ffdd57;fill-opacity:1"/><path d="M499.2 256c0 8.445-.427 16.796-1.273 25.023v.01L453.505 397.93a240.649 240.649 0 0 1-7.182 9.472l-33.915 16.359c-98.819 47.661-213.997 47.661-312.816 0L65.677 407.4a238.693 238.693 0 0 1-9.909-13.338L13.55 275.238A243.151 243.151 0 0 1 12.8 256c0-43.909 11.637-85.091 31.996-120.65C86.71 62.134 165.598 12.8 256 12.8s169.29 49.334 211.204 122.55C487.562 170.909 499.2 212.091 499.2 256z" fill="#00e1c3" style="stroke-width:.95;stroke-miterlimit:4;stroke-dasharray:none"/><path d="M499.2 256c0 8.445-.427 16.796-1.273 25.023L453.505 397.93a240.649 240.649 0 0 1-7.182 9.472l-33.915 16.359c-98.819 47.661-213.997 47.661-312.816 0L65.677 407.4a238.693 238.693 0 0 1-9.909-13.338L13.55 275.238A247.96 247.96 0 0 1 12.8 256c0-43.909 11.637-85.091 31.996-120.65 17.423 30.438 41.23 56.734 69.606 77.083a242.002 242.002 0 0 0 63.955 32.803C202.743 253.454 228.849 257.9 256 257.9c90.402 0 169.29-49.334 211.204-122.55C487.562 170.908 499.2 212.091 499.2 256z" fill="#05d3b0" style="stroke-width:.95;stroke-miterlimit:4;stroke-dasharray:none"/><path d="M256 499.2c-77.073 0-145.787-35.862-190.342-91.808h380.684" fill="#c4f258" style="fill:#ffdd57;fill-opacity:1;stroke-width:.95;stroke-miterlimit:4;stroke-dasharray:none"/><path d="M446.342 407.392C401.787 463.337 333.074 499.2 256 499.2v-91.808z" fill="#b1d511" style="stroke-width:.95;stroke-miterlimit:4;stroke-dasharray:none;fill:#ffc851;fill-opacity:1"/><path d="M178.357 245.236c-15.97-18.164-38.561-30.362-63.954-32.803a96.466 96.466 0 0 0-9.424-.456c-41.743 0-77.463 26.334-91.428 63.26 3.439 43.919 18.544 84.56 42.218 118.826 14.459 8.474 31.274 13.329 49.21 13.329 53.874 0 97.726-43.824 97.726-97.707 0-24.672-9.196-47.234-24.348-64.448zM104.979 366.78c-31.483 0-57.095-25.612-57.095-57.095 0-31.474 25.612-57.086 57.095-57.086 31.492 0 57.095 25.612 57.095 57.085 0 31.483-25.603 57.095-57.095 57.095z" fill="#374c81" style="stroke-width:1;stroke-miterlimit:4;stroke-dasharray:none"/><path d="M104.983 230.893c-43.443 0-78.804 35.337-78.804 78.793 0 43.457 35.36 78.805 78.804 78.805 43.456 0 78.805-35.349 78.805-78.805 0-43.455-35.349-78.793-78.805-78.793zm0 135.888c-31.485 0-57.095-25.61-57.095-57.095 0-31.472 25.61-57.082 57.095-57.082s57.095 25.61 57.095 57.082c0 31.485-25.61 57.095-57.095 57.095z" fill="#323b5a" style="stroke-width:.95;stroke-miterlimit:4;stroke-dasharray:none"/><path d="M251.872 305.81l-9.542 2.269-9.555 2.27-43.897-184.95 9.555-2.269 9.542-2.268z" fill="#f50000" style="fill:#ffdd57;fill-opacity:1;stroke-width:.95;stroke-miterlimit:4;stroke-dasharray:none"/><path d="M198.384 123.226l9.544-2.266 43.91 184.955-9.544 2.266z" fill="#c10000" style="fill:#ffc851;fill-opacity:1;stroke-width:.95;stroke-miterlimit:4;stroke-dasharray:none"/><path d="M412.95 223.89c-50.578 0-91.742 41.154-91.742 91.76 0 50.588 41.163 91.742 91.741 91.742 14.545 0 28.32-3.401 40.556-9.462 24.168-33.573 39.986-73.549 44.422-116.907-13.68-33.488-46.616-57.133-84.977-57.133zm.019 148.836c-31.493 0-57.095-25.602-57.095-57.076 0-31.492 25.602-57.095 57.095-57.095 31.483 0 57.095 25.603 57.095 57.095 0 31.474-25.612 57.076-57.095 57.076z" fill="#374c81" style="stroke-width:1;stroke-miterlimit:4;stroke-dasharray:none"/><path d="M412.966 241.331c-40.979 0-74.316 33.325-74.316 74.316 0 40.978 33.337 74.315 74.316 74.315 40.978 0 74.315-33.337 74.315-74.315 0-40.99-33.337-74.316-74.315-74.316zm0 131.4c-31.485 0-57.095-25.61-57.095-57.083 0-31.485 25.61-57.095 57.095-57.095s57.095 25.61 57.095 57.095c0 31.472-25.61 57.082-57.095 57.082z" fill="#323b5a" style="stroke-width:1;stroke-miterlimit:4;stroke-dasharray:none"/><g style="stroke-width:1;stroke-miterlimit:4;stroke-dasharray:none" transform="matrix(.95 0 0 .95 12.8 12.8)"><circle cx="421.226" cy="318.782" fill="#d1f6ff" transform="rotate(-80.85 421.384 318.867)" r="25.015" style="stroke-width:1.00028;stroke-miterlimit:4;stroke-dasharray:none"/><circle cx="421.226" cy="318.782" fill="#313b5a" transform="rotate(-22.7 421.342 318.785)" r="14.372" style="stroke-width:.999538;stroke-miterlimit:4;stroke-dasharray:none"/></g><g style="stroke-width:1;stroke-miterlimit:4;stroke-dasharray:none"><path d="M396.461 114.114c0-5.528-4.48-10.01-10.01-10.01H339.11c-2.19 0-4.379.594-6.14 1.897-3.46 2.56-4.848 6.844-3.755 10.788l29.21 105.358a9.996 9.996 0 0 0 9.628 7.353c.892 0 1.784-.128 2.693-.364a9.889 9.889 0 0 0 3.112-1.51c.312-.22.593-.472.875-.725v-20.85l-22.715-81.927h34.434c5.528 0 10.01-4.482 10.01-10.01z" fill="#fff" style="stroke-width:1;stroke-miterlimit:4;stroke-dasharray:none"/><path d="M396.461 114.114H338.86l12.23 44.098 19.656 70.924 3.112-1.51c.312-.22.593-.472.875-.725v-20.85l-22.715-81.927h34.434c5.528 0 10.01-4.482 10.01-10.01z" fill="#d1f6ff" style="stroke-width:1;stroke-miterlimit:4;stroke-dasharray:none"/></g><path d="M420.03 302.389a443.339 443.339 0 0 1-46.534-111.542l-.037-.147-9.005-32.49h-26.732l10.888 39.297a468.676 468.676 0 0 0 49.233 117.943c2.392 4.084 6.696 6.354 11.1 6.354 2.22 0 4.477-.577 6.525-1.779 6.132-3.605 8.169-11.504 4.563-17.637z" fill="#f50000" style="fill:#ffc851;fill-opacity:1;stroke-width:.95;stroke-miterlimit:4;stroke-dasharray:none"/><path d="M420.03 302.389a443.339 443.339 0 0 1-46.534-111.542l-.037-.147-9.005-32.49h-13.365l9.958 35.936a456.478 456.478 0 0 0 47.884 114.78l6.538 11.1c6.131-3.606 8.168-11.505 4.562-17.637z" fill="#c10000" style="fill:#ffdd57;fill-opacity:1;stroke-width:.95;stroke-miterlimit:4;stroke-dasharray:none"/><path d="M378.856 209.49l-8.574-30.233c-1.583-5.532-6.636-9.358-12.388-9.358H206.21a12.87 12.87 0 0 0-10.021 4.783L94.962 299.984a12.907 12.907 0 0 0-1.607 13.652 12.888 12.888 0 0 0 11.628 7.322H242.33c2.833 0 5.58-.932 7.826-2.65l124.137-95.08a12.868 12.868 0 0 0 4.563-13.737zM131.942 295.2l80.412-99.545h135.802l3.532 12.437-113.725 87.109z" fill="#ff4852" style="fill:#ffc852;fill-opacity:1;stroke-width:.95;stroke-miterlimit:4;stroke-dasharray:none"/><path d="M357.894 182.777H206.21L104.983 308.079H242.33l124.138-95.08zM237.964 295.2H131.941l80.412-99.546h135.802l3.532 12.437z" fill="#f50000" style="fill:#ffdd57;fill-opacity:1;stroke-width:.95;stroke-miterlimit:4;stroke-dasharray:none"/><g style="stroke-width:1;stroke-miterlimit:4;stroke-dasharray:none" transform="matrix(.95 0 0 .95 12.8 12.8)"><path d="M260.779 130.484c0 6.731-5.446 12.178-12.166 12.178h-68.19a20.769 20.769 0 0 1-14.736-6.106 20.747 20.747 0 0 1-5.708-10.7 20.547 20.547 0 0 1-.398-4.037c0-13.633 12.872-23.594 26.062-20.183l66.007 17.067a12.136 12.136 0 0 1 6.583 4.332 11.585 11.585 0 0 1 1.626 2.82c.602 1.434.92 3.003.92 4.629z" fill="#535e89" style="stroke-width:1;stroke-miterlimit:4;stroke-dasharray:none"/><circle cx="97.034" cy="310.822" fill="#fff" r="25.015" style="stroke-width:1;stroke-miterlimit:4;stroke-dasharray:none"/><path d="M233.652 282.404v44.806l-128.658-10.393V304.21zm7.959-9.422L97.034 297.486v26.673l144.577 11.679z" fill="#313b5a" style="stroke-width:1;stroke-miterlimit:4;stroke-dasharray:none"/><circle cx="241.611" cy="304.41" fill="#313b5a" transform="rotate(-45 241.575 304.477)" r="31.428" style="stroke-width:1.00015;stroke-miterlimit:4;stroke-dasharray:none"/><circle cx="241.611" cy="304.41" fill="#fff" transform="rotate(-47.76 241.615 304.484)" r="11.078" style="stroke-width:1.00041;stroke-miterlimit:4;stroke-dasharray:none"/><path d="M260.779 130.484c0 6.731-5.446 12.178-12.166 12.178h-68.19a20.769 20.769 0 0 1-14.736-6.106 20.747 20.747 0 0 1-5.708-10.7h99.88c.602 1.433.92 3.002.92 4.628z" fill="#313b5a" style="stroke-width:1;stroke-miterlimit:4;stroke-dasharray:none"/><circle cx="97.034" cy="310.822" fill="#313b5a" r="13.336" style="stroke-width:1;stroke-miterlimit:4;stroke-dasharray:none"/><circle cx="97.034" cy="310.822" fill="#fff" r="5.636" style="stroke-width:1;stroke-miterlimit:4;stroke-dasharray:none"/></g><circle cx="389.357" cy="114.114" fill="#535e89" r="18.907" style="stroke-width:.95;stroke-miterlimit:4;stroke-dasharray:none"/><circle cx="389.357" cy="114.114" fill="#313b5a" r="7.625" style="stroke-width:.95;stroke-miterlimit:4;stroke-dasharray:none"/></svg>