<svg xmlns="http://www.w3.org/2000/svg" width="512" height="512" style="enable-background:new 0 0 512 512" xml:space="preserve"><g xmlns="http://www.w3.org/2000/svg"><path d="M512 256a257.334 257.334 0 0 1-6 55.32l-14.97 10.02c-143.67 96.12-329.71 101.41-478.61 13.6l-.01.01c-1.51-4.66-2.89-9.39-4.14-14.17-1.8-6.9-3.32-13.92-4.54-21.04-1.46-8.42-2.5-16.99-3.1-25.68C.21 268.1 0 262.07 0 256c0-46.22 12.25-89.57 33.68-127C77.8 51.93 160.84 0 256 0s178.2 51.93 222.32 129a254.255 254.255 0 0 1 28.15 73.86c3.46 16.36 5.35 33.28 5.52 50.62.01.84.01 1.68.01 2.52z" fill="#92eaff" data-original="#92eaff"/><path d="M512 256c0 18.99-2.07 37.5-6 55.32l-14.97 10.02c-143.67 96.12-329.71 101.41-478.61 13.6-1.52-4.66-2.9-9.39-4.15-14.16C2.88 300.09 0 278.38 0 256c0-46.22 12.25-89.57 33.68-127C77.8 206.07 160.84 258 256 258s178.2-51.93 222.32-129C499.75 166.43 512 209.78 512 256z" fill="#63dbfa" data-original="#63dbfa"/><path d="M482.59 375.24a256.398 256.398 0 0 1-38.04 53.92c-2.61 2.84-5.32 5.64-8.12 8.39-33.93 33.34-81.03 59.46-129.8 69.42-2.43.5-4.86.95-7.29 1.37A256.917 256.917 0 0 1 256 512h-.83a257.67 257.67 0 0 1-49.81-5.01c-50.14-10.05-94.96-34.76-129.85-69.44-3.14-3.12-6.2-6.33-9.18-9.61-14.4-15.88-26.84-33.57-36.91-52.7z" fill="#6cdc2d" data-original="#6cdc2d"/><path d="M482.59 375.24a256.398 256.398 0 0 1-38.04 53.92c-2.61 2.84-5.32 5.64-8.12 8.39H75.51c-3.14-3.12-6.2-6.33-9.18-9.61-14.4-15.88-26.84-33.57-36.91-52.7z" fill="#b6e337" data-original="#b6e337"/><path d="M306.63 506.97c-2.43.5-4.86.95-7.29 1.37A256.917 256.917 0 0 1 256 512h-.83a257.67 257.67 0 0 1-49.81-5.01l27.2-131.75h46.88z" fill="#7e7f92" data-original="#7e7f92"/><path d="M306.63 506.97c-2.43.5-4.86.95-7.29 1.37A256.917 256.917 0 0 1 256 512V375.24h23.44z" fill="#6e6f83" data-original="#6e6f83"/><path d="M263.58 511.901c-2.52.063-5.04.099-7.58.099s-5.06-.036-7.58-.099l1.07-33.319h13.02z" fill="#fff" data-original="#ffffff"/><path d="M263.58 511.901c-2.52.063-5.04.099-7.58.099v-33.418h6.51z" fill="#d0f6ff" data-original="#d0f6ff"/><path d="M256 163.96v211.28h-65.42V113.28l32.7 25.33z" fill="#fff" data-original="#ffffff"/><path d="M256 163.96v211.28h-32.72V138.61z" fill="#dff7fd" data-original="#dff7fd"/><path d="M256 240.22h66.44v135.02H256z" fill="#fffce4" data-original="#fffce4"/><path d="M113.53 297.51v77.73H29.42a252.74 252.74 0 0 1-17-40.3v-3.95c0-18.49 14.99-33.48 33.48-33.48z" fill="#65b2fe" data-original="#65b2fe"/><path d="M113.53 297.51v77.73H51.58v-44.25c0-18.49 14.99-33.48 33.48-33.48z" fill="#159de4" data-original="#159de4"/><path d="M146.35 210.269V375.24H79.92V245.469l33.22-17.6z" fill="#fff" data-original="#ffffff"/><path d="M146.35 210.269V375.24h-33.21V227.869z" fill="#dff7fd" data-original="#dff7fd"/><path d="M506 269.6v41.72c-.7 3.18-1.46 6.33-2.28 9.46a253.97 253.97 0 0 1-21.13 54.46h-48.46v-163.8l35.94 16.42 12.88 5.88A39.417 39.417 0 0 1 506 269.6z" fill="#65b2fe" data-original="#65b2fe"/><path d="M506 269.6v41.72c-.7 3.18-1.46 6.33-2.28 9.46a253.97 253.97 0 0 1-21.13 54.46h-12.52V227.86l12.88 5.88A39.417 39.417 0 0 1 506 269.6z" fill="#159de4" data-original="#159de4"/><path d="M434.13 177.65h11.68v92.13h-11.68z" fill="#6e6f83" data-original="#6e6f83"/><path d="M439.97 177.65h5.84v92.13h-5.84z" fill="#605f74" data-original="#605f74"/><path d="M506 269.6s-15.68.09-35.93.18c-11.21.04-23.82.08-35.94.11v-58.45l35.94 16.42 12.88 5.88A39.417 39.417 0 0 1 506 269.6zM367.696 147.089V375.24h-45.261V192.35c0-24.997 20.264-45.261 45.261-45.261z" fill="#fff" data-original="#ffffff"/><path d="M367.696 147.089V375.24h-22.631V192.35c0-24.997 10.133-45.261 22.631-45.261z" fill="#dff7fd" data-original="#dff7fd"/><path d="M289.217 240.22h33.217v135.02h-33.217z" fill="#f3e6d0" data-original="#f3e6d0"/><path d="M146.353 285.354h44.227v89.886h-44.227z" fill="#fffce4" data-original="#fffce4"/><path d="M168.467 285.354h22.114v89.886h-22.114z" fill="#f3e6d0" data-original="#f3e6d0"/><path d="M367.696 281.694h66.435v93.546h-66.435z" fill="#fffce4" data-original="#fffce4"/><path d="M400.914 281.694h33.217v93.546h-33.217z" fill="#f3e6d0" data-original="#f3e6d0"/><path d="M395.07 217.57h11.68v57.85h-11.68z" fill="#fff" data-original="#ffffff"/><path d="M400.91 217.57h5.84v57.85h-5.84z" fill="#dff7fd" data-original="#dff7fd"/><path d="M367.7 269.15h76.29v12.54H367.7z" fill="#7e7f92" data-original="#7e7f92"/><path d="M256 163.96v28.9h-65.42v-79.58l32.7 25.33z" fill="#65b2fe" data-original="#65b2fe"/><path d="M280.61 80.69c.2-.52.44-.67.71-.4.28.28.03.41-.71.4z" fill="#f3e6d0" data-original="#f3e6d0"/><path d="M256 163.96v28.9h-32.72v-54.25z" fill="#159de4" data-original="#159de4"/><path d="M123.358 346.452h67.222v28.788h-67.222z" fill="#65b2fe" data-original="#65b2fe"/><path d="M492.49 354.17c-2.99 7.2-6.3 14.23-9.92 21.07H279.44c0-11.63 9.43-21.07 21.07-21.07z" fill="#fff" data-original="#ffffff"/><path d="M506 269.6s-15.68.09-35.93.18v-41.92l12.88 5.88A39.417 39.417 0 0 1 506 269.6z" fill="#dff7fd" data-original="#dff7fd"/><path d="M146.35 210.269v35.2H79.92l33.22-17.6z" fill="#65b2fe" data-original="#65b2fe"/><path d="M146.35 210.269v35.2h-33.21v-17.6z" fill="#159de4" data-original="#159de4"/><path d="M400.91 269.15h43.08v12.54h-43.08z" fill="#6e6f83" data-original="#6e6f83"/><path d="M260.28 409.687h-8.56l1.11-34.447h6.34zM261.95 461.353h-11.9l1.23-38.002h9.44z" fill="#fff" data-original="#ffffff"/><path d="M260.28 409.687H256V375.24h3.17zM261.95 461.353H256v-38.002h4.72z" fill="#d0f6ff" data-original="#d0f6ff"/><path d="M183.84 172.521c.001-.092.007-.182.007-.273 0-16.733-13.565-30.298-30.298-30.298-3.975 0-7.768.773-11.246 2.165-6.719-12.036-19.574-20.181-34.338-20.181-19.172 0-35.13 13.73-38.598 31.892a22.319 22.319 0 0 0-3.165-.229c-10.424 0-19.157 7.216-21.492 16.924z" fill="#fff" data-original="#ffffff"/><path d="M154.278 172.521c0-.053.004-.104.004-.157 0-9.622-7.8-17.422-17.422-17.422-2.286 0-4.467.445-6.467 1.245-3.863-6.921-11.256-11.604-19.745-11.604-11.024 0-20.2 7.895-22.195 18.339a12.845 12.845 0 0 0-1.82-.132c-5.994 0-11.016 4.149-12.358 9.732h80.003z" fill="#dff7fd" data-original="#dff7fd"/><path d="M303.45 80.308c0-.063.005-.124.005-.186 0-11.414-9.253-20.667-20.667-20.667-2.712 0-5.299.528-7.671 1.477-4.583-8.21-13.352-13.766-23.423-13.766-13.078 0-23.963 9.366-26.329 21.754a15.208 15.208 0 0 0-2.159-.156c-7.11 0-13.068 4.922-14.66 11.544z" fill="#fff" data-original="#ffffff"/><path d="M283.285 80.308c0-.036.003-.071.003-.107 0-6.563-5.321-11.884-11.884-11.884-1.559 0-3.047.303-4.411.849-2.635-4.721-7.678-7.916-13.469-7.916-7.52 0-13.779 5.385-15.14 12.509a8.767 8.767 0 0 0-1.241-.09c-4.089 0-7.514 2.83-8.43 6.638h54.572z" fill="#dff7fd" data-original="#dff7fd"/><path d="M454.202 127.155c0-.073.005-.144.005-.217 0-13.322-10.799-24.121-24.121-24.121-3.165 0-6.184.616-8.953 1.724-5.349-9.582-15.583-16.066-27.337-16.066-15.264 0-27.967 10.931-30.729 25.39a17.74 17.74 0 0 0-2.519-.182c-8.299 0-15.252 5.745-17.11 13.473h110.764z" fill="#fff" data-original="#ffffff"/><path d="M430.667 127.155c0-.042.003-.083.003-.125 0-7.66-6.21-13.87-13.87-13.87-1.82 0-3.556.354-5.148.991-3.076-5.51-8.961-9.238-15.719-9.238-8.777 0-16.082 6.285-17.67 14.6a10.18 10.18 0 0 0-1.449-.105c-4.772 0-8.77 3.303-9.839 7.747z" fill="#dff7fd" data-original="#dff7fd"/><path d="M256 238.5h66.44v13.15H256z" fill="#65b2fe" data-original="#65b2fe"/><path d="M289.22 238.5h33.22v13.15h-33.22z" fill="#159de4" data-original="#159de4"/><path d="M267.11 263.315h44.22v13.15h-44.22z" fill="#605f74" data-original="#605f74"/><path d="M289.22 263.315h22.11v13.15h-22.11z" fill="#58586b" data-original="#58586b"/><path d="M267.11 286.765h44.22v13.15h-44.22z" fill="#605f74" data-original="#605f74"/><path d="M289.22 286.765h22.11v13.15h-22.11z" fill="#58586b" data-original="#58586b"/><path d="M267.11 310.215h44.22v13.15h-44.22z" fill="#605f74" data-original="#605f74"/><path d="M289.22 310.215h22.11v13.15h-22.11z" fill="#58586b" data-original="#58586b"/><path d="M198.684 211.873h16.409v16.409h-16.409z" fill="#7e7f92" data-original="#7e7f92"/><path d="M215.094 211.873h16.409v16.409h-16.409zM231.503 211.873h16.409v16.409h-16.409z" fill="#605f74" data-original="#605f74"/><path d="M198.684 228.282h16.409v16.409h-16.409z" fill="#58586b" data-original="#58586b"/><g fill="#605f74"><path d="M215.094 228.282h16.409v16.409h-16.409zM231.503 228.282h16.409v16.409h-16.409zM198.684 244.691h16.409V261.1h-16.409z" data-original="#605f74"/></g><path d="M215.094 244.691h16.409V261.1h-16.409z" fill="#7e7f92" data-original="#7e7f92"/><path d="M231.503 244.691h16.409V261.1h-16.409zM198.684 261.1h16.409v16.409h-16.409z" fill="#605f74" data-original="#605f74"/><path d="M215.094 261.1h16.409v16.409h-16.409z" fill="#58586b" data-original="#58586b"/><path d="M231.503 261.1h16.409v16.409h-16.409zM198.684 277.509h16.409v16.409h-16.409z" fill="#7e7f92" data-original="#7e7f92"/><path d="M215.094 277.509h16.409v16.409h-16.409z" fill="#58586b" data-original="#58586b"/><path d="M231.503 277.509h16.409v16.409h-16.409z" fill="#605f74" data-original="#605f74"/><path d="M198.684 293.918h16.409v16.409h-16.409z" fill="#7e7f92" data-original="#7e7f92"/><path d="M215.094 293.918h16.409v16.409h-16.409z" fill="#605f74" data-original="#605f74"/><path d="M231.503 293.918h16.409v16.409h-16.409z" fill="#58586b" data-original="#58586b"/><path d="M198.684 310.328h16.409v16.409h-16.409z" fill="#605f74" data-original="#605f74"/><path d="M215.094 310.328h16.409v16.409h-16.409z" fill="#7e7f92" data-original="#7e7f92"/><path d="M231.503 310.328h16.409v16.409h-16.409z" fill="#58586b" data-original="#58586b"/><path d="M198.684 326.737h16.409v16.409h-16.409zM215.094 326.737h16.409v16.409h-16.409z" fill="#605f74" data-original="#605f74"/><path d="M231.503 326.737h16.409v16.409h-16.409zM198.684 343.146h16.409v16.409h-16.409z" fill="#7e7f92" data-original="#7e7f92"/><path d="M215.094 343.146h16.409v16.409h-16.409zM231.503 343.146h16.409v16.409h-16.409z" fill="#605f74" data-original="#605f74"/></g></svg>