<svg xmlns="http://www.w3.org/2000/svg" width="512" height="512" style="enable-background:new 0 0 512 512" xml:space="preserve"><circle r="256" cx="256" cy="256" fill="#3e8ed0"/><g xmlns="http://www.w3.org/2000/svg"><path d="M485.235 174.576C377.457 313.341 162.511 295.178 79.547 140.29l-16.976-31.701C106.993 50.363 177.112 12.8 256 12.8c90.402 0 169.29 49.334 211.204 122.55a242.261 242.261 0 0 1 18.031 39.226z" fill="#92eaff"/><path d="M485.226 174.585c-69.046 88.901-182.087 113.382-276.222 78.764 15.2 2.993 30.922 4.551 46.996 4.551 90.402 0 169.29-49.334 211.204-122.55a241.882 241.882 0 0 1 18.021 39.235z" fill="#63dbfa"/><path d="M499.2 256c0 14.165-1.216 28.053-3.543 41.553a235.58 235.58 0 0 1-4.323 19.988 240.717 240.717 0 0 1-4.047 13.822H24.704a248.602 248.602 0 0 1-4.047-13.822 239.299 239.299 0 0 1-4.313-19.988 239.243 239.243 0 0 1-2.945-24.396A244.207 244.207 0 0 1 12.8 256c0-43.909 11.638-85.091 31.996-120.65a241.192 241.192 0 0 1 17.775-26.761c12.834 4.626 23.664 14.763 28.87 27.407 14.725-15.418 38-15.143 55.737-3.315 7.942-19.39 32.613-31.673 52.715-25.745 20.102 5.918 33.83 28.3 30.001 48.906 7.762-4.171 17.09-6.118 26.106-5.596 3.924.209 7.79.903 11.438 2.08 12.027 3.886 22.325 12.835 27.845 24.207 8.635-11.096 21.337-14.041 35.368-13.044 14.022 1.007 27.313 9.367 34.285 21.584 6.936-10.364 23.19-14.905 35.246-11.742 12.065 3.164 21.517 14.478 22.477 26.914 6.859-11.495 30.466-10.308 39.235-.19 2.945-11.03 12.407-20.397 22.752-25.213.2-.095.39-.181.589-.266a242.305 242.305 0 0 1 8.711 30.941A243.729 243.729 0 0 1 499.2 256z" fill="#fff"/><path d="M499.2 256c0 14.165-1.216 28.053-3.543 41.553a235.58 235.58 0 0 1-4.323 19.988 240.717 240.717 0 0 1-4.047 13.822H256V150.246c3.923.209 7.79.902 11.438 2.08 12.027 3.886 22.325 12.835 27.844 24.206 8.636-11.096 21.337-14.04 35.369-13.043 14.022 1.007 27.312 9.367 34.285 21.584 6.935-10.365 23.19-14.906 35.245-11.742 12.065 3.163 21.518 14.478 22.477 26.913 6.86-11.495 30.467-10.307 39.235-.19 2.945-11.029 12.407-20.396 22.753-25.213.2-.095.39-.18.589-.266a240.243 240.243 0 0 1 8.217 28.71c.181.74.333 1.491.494 2.232A243.729 243.729 0 0 1 499.2 256z" fill="#dff7fd"/><path d="M499.2 256c0 14.165-1.216 28.053-3.543 41.553a235.58 235.58 0 0 1-4.323 19.988 240.717 240.717 0 0 1-4.047 13.822 239.524 239.524 0 0 1-10.754 27.275H35.467a241.352 241.352 0 0 1-10.764-27.274 248.602 248.602 0 0 1-4.047-13.823 239.299 239.299 0 0 1-4.313-19.988 239.243 239.243 0 0 1-2.945-24.396A244.207 244.207 0 0 1 12.8 256c0-39.092 9.224-76.019 25.621-108.737 16.54 2.441 31.892 12.17 41.126 26.125 8.73-8.854 18.487-14.107 30.922-14.278s24.871 4.73 33.849 13.337c5.082-14.896 20.871-25.222 36.242-21.821 15.371 3.391 26.857 19.37 25.185 35.026 10.26-3.647 21.023 1.065 27.122 10.08 6.423-5.614 14.735-9.832 23.133-10.611 3.572-.343 7.163-.058 10.63 1.006 11.628 3.563 21.119 13.424 24.225 25.175 7.838-14.031 25.232-21.232 41.164-19.066 15.941 2.157 29.944 14.754 33.763 30.372 2.803-8.607 11.01-14.307 20.007-15.324 8.997-1.026 18.154 2.537 25.023 8.446s11.6 13.984 14.753 22.477c3.553-8.664 10.374-15.751 19.485-17.917s19.2.304 26.277 6.44c2.536-11.219 11.561-18.923 22.125-23.445.181.74.333 1.491.494 2.232A243.729 243.729 0 0 1 499.2 256z" fill="#dff7fd"/><path d="M499.2 256c0 14.165-1.216 28.053-3.543 41.553a235.58 235.58 0 0 1-4.323 19.988 240.717 240.717 0 0 1-4.047 13.822 239.524 239.524 0 0 1-10.754 27.275H256V185.121c3.572-.343 7.163-.058 10.63 1.006 11.628 3.563 21.119 13.424 24.225 25.175 7.838-14.031 25.232-21.232 41.164-19.066 15.941 2.157 29.944 14.754 33.763 30.372 2.803-8.607 11.01-14.307 20.007-15.324 8.997-1.026 18.154 2.537 25.023 8.446s11.6 13.984 14.753 22.477c3.553-8.664 10.374-15.751 19.485-17.917s19.2.304 26.277 6.44c2.536-11.219 11.561-18.923 22.125-23.445.181.74.333 1.491.494 2.232A243.729 243.729 0 0 1 499.2 256z" fill="#c5f2f9"/><path d="M499.2 256a244.763 244.763 0 0 1-3.543 41.553 235.58 235.58 0 0 1-4.323 19.988 240.717 240.717 0 0 1-4.047 13.822 240.265 240.265 0 0 1-6.289 17.11l-.01-.01c-113.79 36.3-236.046 26.705-341.534-24.586L256 251.45l20.377-12.663a13.44 13.44 0 0 1 16.198 1.52l23.256 21.394 104.662-67.108a13.424 13.424 0 0 1 16.216 1.292l62.453 55.907.028 1.815c.01.798.01 1.596.01 2.394z" fill="#7e7f92"/><path d="M499.2 256a244.763 244.763 0 0 1-3.543 41.553 235.58 235.58 0 0 1-4.323 19.988 240.717 240.717 0 0 1-4.047 13.822 240.265 240.265 0 0 1-6.289 17.11l-.01-.01C407.26 371.986 329.976 376.233 256 362.363V251.45l20.377-12.664a13.44 13.44 0 0 1 16.198 1.52l23.256 21.394 104.662-67.108a13.424 13.424 0 0 1 16.216 1.292l62.453 55.908.028 1.814c.01.798.01 1.596.01 2.394z" fill="#6e6f83"/><path d="M496.967 289.05c-.389 2.85-.826 5.691-1.31 8.503a235.58 235.58 0 0 1-4.323 19.988 240.717 240.717 0 0 1-4.047 13.822 240.265 240.265 0 0 1-6.289 17.11l-.01-.01c-99.16 31.635-204.762 28.415-300.095-6.887L256 293.829l9.89-6.289a21.36 21.36 0 0 1 26.562 2.926l21.175 21.175 105.602-66.006a21.341 21.341 0 0 1 24.529 1.33 15906.534 15906.534 0 0 1 53.21 42.086z" fill="#6e6f83"/><path d="M496.967 289.05c-.389 2.85-.826 5.691-1.31 8.503a235.58 235.58 0 0 1-4.323 19.988 240.717 240.717 0 0 1-4.047 13.822 240.265 240.265 0 0 1-6.289 17.11l-.01-.01C407.26 371.986 329.976 376.233 256 362.363v-68.533l9.89-6.289a21.36 21.36 0 0 1 26.562 2.926l21.175 21.175 105.602-66.006a21.341 21.341 0 0 1 24.529 1.33 15906.534 15906.534 0 0 1 53.21 42.086z" fill="#605f74"/><path d="M73.17 277.073H62.549l.569-17.8.699-21.868h8.086l.7 21.868z" fill="#ec771b"/><path d="M73.17 277.073h-5.108v-39.668h3.84l.7 21.868zM68.062 237.405v21.868h-4.945l.699-21.868z" fill="#c55732"/><path d="M72.603 259.273h-4.54v-21.868h3.84z" fill="#a44e3e"/><path d="M84.561 244.364c-4.568 4.498-10.533 6.746-16.499 6.746-5.964 0-11.928-2.248-16.498-6.746a22.705 22.705 0 0 1-4.374-26.514c4.573-8.995 9.35-17.884 13.236-27.196l7.636-18.294 7.621 18.257c3.893 9.326 8.677 18.23 13.254 27.24a22.7 22.7 0 0 1-4.376 26.507z" fill="#43af3e"/><path d="M84.561 244.364c-4.568 4.498-10.533 6.746-16.499 6.746-2.829 0-5.659-2.248-7.828-6.746-3.505-7.27-4.168-18.206-1.988-26.864 3.032-12.039 5.717-24.44 8.206-37.005l1.61-8.135 7.622 18.257c3.893 9.326 8.677 18.23 13.254 27.24a22.701 22.701 0 0 1-4.377 26.507z" fill="#00a23e"/><path d="M84.561 244.364c-4.568 4.498-10.533 6.746-16.499 6.746v-78.75l7.622 18.257c3.893 9.326 8.677 18.23 13.254 27.24a22.701 22.701 0 0 1-4.377 26.507z" fill="#008839"/><path d="M130.44 301.381h-10.623l.569-17.8.699-21.868h8.086l.7 21.868z" fill="#ec771b"/><path d="M130.44 301.381h-5.109v-39.668h3.84l.7 21.868zM125.331 261.713v21.868h-4.945l.699-21.868z" fill="#c55732"/><path d="M129.871 283.581h-4.54v-21.868h3.84z" fill="#a44e3e"/><path d="M141.83 268.673c-4.569 4.497-10.534 6.746-16.499 6.746-5.964 0-11.928-2.249-16.498-6.746a22.705 22.705 0 0 1-4.374-26.514c4.573-8.995 9.35-17.884 13.236-27.196l7.635-18.294 7.622 18.257c3.893 9.326 8.677 18.23 13.254 27.24a22.7 22.7 0 0 1-4.376 26.507z" fill="#43af3e"/><path d="M141.83 268.673c-4.569 4.497-10.534 6.746-16.499 6.746-2.83 0-5.659-2.249-7.828-6.746-3.505-7.271-4.168-18.207-1.988-26.864 3.031-12.04 5.717-24.44 8.206-37.005l1.61-8.135 7.622 18.257c3.893 9.326 8.676 18.23 13.254 27.24a22.701 22.701 0 0 1-4.377 26.507z" fill="#00a23e"/><path d="M141.83 268.673c-4.569 4.497-10.534 6.746-16.499 6.746v-78.75l7.622 18.257c3.893 9.326 8.676 18.23 13.254 27.24a22.701 22.701 0 0 1-4.377 26.507z" fill="#008839"/><g><path d="M183.409 321.366h-10.623l.568-17.801.7-21.868h8.086l.7 21.868z" fill="#ec771b"/><path d="M183.409 321.366H178.3v-39.67h3.84l.7 21.869zM178.3 281.697v21.868h-4.946l.7-21.868z" fill="#c55732"/><path d="M182.84 303.565h-4.54v-21.868h3.84z" fill="#a44e3e"/><path d="M194.798 288.657c-4.568 4.498-10.533 6.746-16.499 6.746-5.964 0-11.928-2.249-16.498-6.746a22.705 22.705 0 0 1-4.374-26.514c4.573-8.995 9.35-17.884 13.236-27.196l7.636-18.294 7.621 18.257c3.894 9.326 8.677 18.23 13.254 27.24a22.698 22.698 0 0 1-4.376 26.507z" fill="#43af3e"/><path d="M194.798 288.657c-4.568 4.498-10.533 6.746-16.499 6.746-2.83 0-5.659-2.249-7.828-6.746-3.505-7.271-4.168-18.207-1.988-26.864 3.032-12.04 5.717-24.44 8.206-37.005l1.61-8.135 7.622 18.257c3.893 9.326 8.677 18.23 13.254 27.24a22.7 22.7 0 0 1-4.377 26.507z" fill="#00a23e"/><path d="M194.798 288.657c-4.568 4.498-10.533 6.746-16.499 6.746v-78.75l7.622 18.257c3.893 9.326 8.677 18.23 13.254 27.24a22.7 22.7 0 0 1-4.377 26.507z" fill="#008839"/></g><path d="M480.988 348.463a242.034 242.034 0 0 1-19.095 37.022 243.296 243.296 0 0 1-26.238 34.437c-44.327 48.545-108.053 79.06-178.904 79.278H256c-71.155 0-135.175-30.562-179.654-79.278A243.317 243.317 0 0 1 41.1 369.943a238.35 238.35 0 0 1-11.03-23.798 238.774 238.774 0 0 1-9.414-28.604 239.299 239.299 0 0 1-4.313-19.988 239.243 239.243 0 0 1-2.945-24.396A244.207 244.207 0 0 1 12.8 256c0-5.32.171-10.602.513-15.837C87.537 283.464 169.237 315.356 256 333.425c53.818 11.21 109.583 17.1 166.725 17.1 19.589 0 39.017-.694 58.263-2.061z" fill="#b6e337"/><path d="M480.988 348.463a242.034 242.034 0 0 1-19.095 37.022 243.296 243.296 0 0 1-26.238 34.437c-44.327 48.545-108.053 79.06-178.904 79.278H256V333.425c53.818 11.21 109.583 17.1 166.725 17.1 19.589 0 39.017-.694 58.263-2.061z" fill="#6cdc2d"/><path d="M461.894 385.485a243.296 243.296 0 0 1-33.944 42.493c-43.852 43.843-104.357 71.013-171.2 71.222H256c-40.156 0-78.033-9.728-111.416-26.98-25.773-13.3-48.858-31.075-68.238-52.298A243.317 243.317 0 0 1 41.1 369.943a238.35 238.35 0 0 1-11.03-23.797c71.773 24.31 147.488 40.09 225.929 46.131a941.471 941.471 0 0 0 72.219 2.765h2.86a891.614 891.614 0 0 0 18.886-.257c8.16-.18 16.302-.465 24.405-.874a930.974 930.974 0 0 0 87.524-8.426z" fill="#6cdc2d"/><path d="M461.894 385.485a243.296 243.296 0 0 1-26.24 34.438c-44.326 48.545-108.052 79.059-178.903 79.277H256V392.278a941.471 941.471 0 0 0 72.219 2.764h2.86c44.403-.133 88.074-3.391 130.815-9.557z" fill="#50ba4a"/><path d="M427.95 427.978c-43.852 43.843-104.357 71.013-171.2 71.222H256c-40.157 0-78.033-9.728-111.416-26.98 4.322-2.375 9.101-2.964 14.373-2.404 7.553.817 15.628 4.456 21.642-3.344 4.151-5.367 2.878-13.68 7.39-18.762 5.387-6.052 15.143-3.905 22.829-1.311 7.676 2.584 17.527 4.579 22.743-1.615 5.215-6.185 2.052-16.815 7.742-22.563 3.743-3.79 9.348-3.619 14.697-1.985 2.318.712 4.588 1.691 6.64 2.755 6.783 3.505 14.925 7.543 21.594 3.819 9.643-5.377 7.562-22.382 17.594-26.99 9.87-4.531 20.235 7.629 31.046 6.546 6.982-.694 12.055-6.631 17.062-11.552l.028-.029c4.997-4.911 12.18-9.414 18.601-6.612 2.68 1.169 4.465 3.221 5.805 5.738 3.971 7.448 3.99 18.877 11.571 23.057 10.241 5.633 23.874-7.524 33.925-1.558 4.389 2.603 6.004 7.733 8.084 12.568z" fill="#00a23e"/><g fill="#008839"><path d="M427.95 427.978c-43.852 43.843-104.357 71.013-171.2 71.222H256v-78.964c2.318.712 4.588 1.691 6.64 2.755 6.783 3.505 14.925 7.543 21.594 3.819 9.643-5.377 7.562-22.382 17.594-26.99 9.87-4.531 20.235 7.629 31.046 6.546 6.982-.694 12.055-6.631 17.062-11.552 4.997-4.921 12.198-9.453 18.63-6.64 10.62 4.626 7.229 23.208 17.375 28.794 10.241 5.633 23.873-7.524 33.925-1.558 4.389 2.603 6.004 7.733 8.084 12.568z"/><path d="M427.95 427.978c-43.852 43.843-104.357 71.013-171.2 71.222H256v-78.964c2.318.712 4.588 1.691 6.64 2.755 6.783 3.505 14.925 7.543 21.594 3.819 9.643-5.377 7.562-22.382 17.594-26.99 9.87-4.531 20.235 7.629 31.046 6.546 6.982-.694 12.055-6.631 17.062-11.552 4.997-4.921 12.198-9.453 18.63-6.64 10.62 4.626 7.229 23.208 17.375 28.794 10.241 5.633 23.873-7.524 33.925-1.558 4.389 2.603 6.004 7.733 8.084 12.568z"/></g><g fill="#00a23e" transform="matrix(.95 0 0 .95 12.8 12.8)"><circle cx="65.268" cy="392.3" transform="rotate(-74.16 65.292 392.329)" r="9.397"/><circle cx="211.68" cy="437.254" transform="rotate(-76.76 211.815 437.458)" r="8.021"/><circle cx="97.199" cy="431.445" transform="rotate(-76.64 97.297 431.504)" r="9.397"/><path d="M154.253 418.387a5.671 5.671 0 1 1-11.344 0 5.672 5.672 0 0 1 11.344 0zM165.597 457.822a5.671 5.671 0 1 1-11.344 0 5.671 5.671 0 1 1 11.344 0zM281.156 412.715a5.672 5.672 0 1 1-11.344 0 5.672 5.672 0 0 1 11.344 0zM404.716 412.715a5.672 5.672 0 1 1-11.344 0 5.672 5.672 0 0 1 11.344 0z"/><circle cx="442.298" cy="410.18" r="8.207"/></g></g></svg>