<svg xmlns="http://www.w3.org/2000/svg" width="512" height="512" style="enable-background:new 0 0 512 512" xml:space="preserve"><circle r="256" cx="256" cy="256" fill="#ffdd57"/><g xmlns="http://www.w3.org/2000/svg"><path d="M499.2 255.857V256c0 32.832-6.507 64.135-18.306 92.701a232.65 232.65 0 0 1-3.82 8.768 240.308 240.308 0 0 1-9.48 18.497 239.512 239.512 0 0 1-11.628 18.477 241.96 241.96 0 0 1-20.311 25.48c-44.327 48.545-108.053 79.059-178.904 79.277H256c-50.559 0-97.517-15.428-136.42-41.847a244.462 244.462 0 0 1-43.234-37.43 227.055 227.055 0 0 1-7.05-8.085 241.744 241.744 0 0 1-28.195-41.895 233.23 233.23 0 0 1-3.325-6.517 239.902 239.902 0 0 1-16.863-44.973 237.912 237.912 0 0 1-4.332-19.522 241.728 241.728 0 0 1-3.182-25.774 235.33 235.33 0 0 1-.57-13.765A200.974 200.974 0 0 1 12.8 256c0-4.19.105-8.35.314-12.483a243.651 243.651 0 0 1 4.693-36.841 241.619 241.619 0 0 1 26.989-71.326C86.71 62.134 165.598 12.8 256 12.8s169.29 49.334 211.204 122.55a241.542 241.542 0 0 1 26.743 70.167c.057.285.123.58.18.865 3.173 15.276 4.902 31.055 5.064 47.224.009.75.009 1.501.009 2.252z" fill="#92eaff"/><path d="M493.947 205.517l-.466.58c-122.436 151.116-352.868 151.401-475.674.579a241.619 241.619 0 0 1 26.989-71.326C86.71 208.567 165.598 257.9 256 257.9s169.29-49.333 211.204-122.55a241.542 241.542 0 0 1 26.742 70.167z" fill="#63dbfa"/><path d="M444.613 289.915l-1.092.684c-114.114 70.898-259.208 68.229-370.633-6.821L28.03 253.565c-8.252-5.558-10.48-16.747-4.956-25.024a5586.732 5586.732 0 0 1 43.761-64.615c1.957-2.85 3.924-5.69 5.88-8.531 2.49-3.6 4.988-7.21 7.496-10.802l52.469-44.279a23.92 23.92 0 0 1 20.472-5.12c3.439.731 6.631 2.213 9.377 4.274s5.054 4.722 6.716 7.819l34.322 63.94c5.403 10.066 18.094 13.62 27.94 7.823l19.02-11.2a23.977 23.977 0 0 1 12.15-3.315h13.89a23.976 23.976 0 0 1 19.465 9.994l17.594 24.52c7.22 10.06 20.9 12.967 31.588 6.706l9.566-5.605a23.961 23.961 0 0 1 22.62-.864L393.199 207a691.17 691.17 0 0 1 2.157 3.477 17318.462 17318.462 0 0 1 28.3 45.571 38941.07 38941.07 0 0 1 20.957 33.867z" fill="#7e7f92"/><path d="M444.613 289.915l-1.092.684c-57.409 35.672-122.664 52.715-187.521 51.29V148.708c10.184-8.958 23.066-12.73 33.991 1.387 6.422 8.275 26.705 46.75 37.145 45.857 8.027-.694 14.26-6.916 21.062-11.239 17.024-10.792 28.68-1.111 37.753 11.305 2.603 3.572 5.006 7.382 7.248 10.982a691.17 691.17 0 0 1 2.156 3.477 17318.462 17318.462 0 0 1 28.301 45.572 40431.402 40431.402 0 0 1 20.957 33.867z" fill="#6e6f83"/><path d="M406.1 310.739c-107.208 49.371-233.653 40.1-333.213-26.961l-17.879-12.046c30.809-41.98 59.318-80.085 71.231-93.889 7.439-8.626 23.285-11.352 33.573-5.728s29.156 46.996 36.347 55.793c7.182 8.807 19.2 15.4 30.885 12.977 8.768-1.824 15.561-8.236 23.968-11.172a31.087 31.087 0 0 1 4.988-1.31c11.067-1.929 18.858 3.818 26.077 13.461 7.22 9.633 15.362 18.173 23 22.667s17.385 5.833 26.115 3.6c10.735-2.755 19.95-10.564 31.094-10.63 9.415-.067 18.44 6.289 20.833 14.649z" fill="#6e6f83"/><path d="M406.1 310.739c-47.586 21.916-98.971 32.281-150.1 31.15V228.403c11.067-1.928 18.857 3.82 26.077 13.462 7.22 9.633 15.362 18.173 23 22.667s17.385 5.833 26.115 3.6c10.735-2.754 19.95-10.563 31.094-10.63 9.415-.066 18.44 6.289 20.833 14.649z" fill="#605f74"/><path d="M337.206 341.158v22.268H110.001c-50.557 0-92.825-38.882-96.534-89.303l-.07-.966A244.786 244.786 0 0 1 12.8 256c0-16.9 1.72-33.393 5.007-49.324 3.486.541 6.802 2.033 9.376 4.465 8.218 7.742 12.645 21.897 26.8 18.905 4.503-.96 8.578-3.278 12.796-5.13 4.218-1.862 8.902-3.278 13.395-2.261 10.308 2.308 12.132 14.345 21.689 17.841 13.879 5.082 26.752-14.64 40.166-3.373 4.474 3.762 5.557 10.061 7.41 15.609 2.745 8.208 9.082 13.509 17.432 10.089 8.151-3.344 16.444-8.037 24.006.38 4.446 4.95 6.137 12.806 12.303 15.295 8.36 3.382 17.508-6.033 26.191-3.639 11.552 3.183 14.317 17.167 26.629 12.778 1.34-.485 2.793-1.178 4.389-2.128 4-2.394 8.303-5.292 12.891-4.503 5.625.96 8.817 6.935 10.47 12.397s2.916 11.59 7.429 15.096c6.013 4.664 14.62 2.441 22.192 3.211 13.965 1.425 25.346 15.494 23.835 29.45z" fill="#43af3e"/><path d="M337.206 341.158v22.268H256v-75.791c1.34-.485 2.793-1.178 4.389-2.128 4-2.394 8.303-5.292 12.891-4.503 5.625.96 8.817 6.935 10.47 12.397s2.916 11.59 7.429 15.096c6.013 4.664 14.62 2.441 22.192 3.211 13.965 1.425 25.346 15.494 23.835 29.45z" fill="#00a23e"/><path d="M397.56 357.84c-87.657 83.704-217.95 105.412-328.264 53.998A241.744 241.744 0 0 1 41.1 369.943a233.23 233.23 0 0 1-3.325-6.517c-13.604-27.54-22.135-58.045-24.377-90.269a235.33 235.33 0 0 1-.57-13.765H85.02c16.245 0 28.462 2.365 40.783 13.794 7.211 6.678 13.737 14.326 22.297 19.17 15.238 8.617 33.953 6.878 51.376 5.159 20.805-2.052 39.121.257 56.525 7.951 7.21 3.183 14.26 7.296 21.261 12.398 13.917 10.136 27.075 21.48 42.265 29.592 18.62 9.947 37.392 10.004 57.77 10.27 6.754.095 13.509.114 20.263.114z" fill="#6cdc2d"/><path d="M397.56 357.84c-40.224 38.408-89.434 63.764-141.56 74.993V305.466c7.21 3.183 14.26 7.296 21.261 12.398 13.917 10.136 27.075 21.48 42.265 29.592 18.62 9.947 37.392 10.004 57.77 10.27 6.754.095 13.509.114 20.263.114z" fill="#5dbf1d"/><path d="M377.04 375.7c-86.669 68.704-205.742 83.676-307.743 36.138A241.744 241.744 0 0 1 41.1 369.943a233.23 233.23 0 0 1-3.325-6.517 241.159 241.159 0 0 1-21.195-64.495c45.201.076 56.478.912 83.258 10.098 13.718 4.712 16.464 12.977 30.106 17.176 14.411 4.446 29.858 4.408 44.792 3.79 21.641-.902 44.365-2.622 63.973 6.603 5.168 2.432 11.2 6.412 17.167 10.697.038.028.085.057.123.085 6.859 4.931 13.623 10.213 18.971 13.985 13.87 9.785 29.83 16.976 49.04 15.513 9.48-.722 28.88-1.064 53.028-1.178z" fill="#5dbf1d"/><path d="M86.22 414.81l-.326-10.202-.792-24.756h-9.155l-.792 24.756-.326 10.202z" fill="#ec771b"/><path d="M86.22 414.81l-.326-10.202-.792-24.756h-4.348v34.958zM80.754 399.99v-20.139h-4.807l-.645 20.14z" fill="#c55732"/><path d="M85.746 399.99l-.644-20.139h-4.348v20.14z" fill="#a44e3e"/><path d="M99.432 387.73c-5.171 5.093-11.925 7.638-18.678 7.638-6.751 0-13.504-2.546-18.677-7.637a25.702 25.702 0 0 1-4.952-30.016c5.178-10.183 10.585-20.247 14.984-30.789l8.645-20.71 8.628 20.668c4.408 10.558 9.822 20.638 15.005 30.838a25.698 25.698 0 0 1-4.955 30.009z" fill="#43af3e"/><path d="M99.432 387.73c-5.171 5.093-11.925 7.638-18.678 7.638-3.203 0-6.406-2.546-8.861-7.637-3.968-8.232-4.719-20.612-2.252-30.414 3.432-13.63 6.473-27.67 9.29-41.894l1.823-9.209 8.63 20.67c4.407 10.557 9.821 20.637 15.004 30.837a25.7 25.7 0 0 1-4.956 30.01z" fill="#00a23e"/><path d="M99.432 387.73c-5.171 5.093-11.925 7.638-18.678 7.638v-89.154l8.63 20.67c4.407 10.557 9.821 20.637 15.004 30.837a25.7 25.7 0 0 1-4.956 30.01z" fill="#008839"/><path d="M141.298 403.935h-9.043l.484-15.153.596-18.614h6.883l.595 18.614z" fill="#ec771b"/><path d="M141.298 403.935h-4.348v-33.767h3.268l.595 18.614zM136.95 386.229v-16.06h-3.615l-.514 16.06z" fill="#c55732"/><path d="M140.732 386.229l-.514-16.06h-3.268v16.06z" fill="#a44e3e"/><path d="M150.994 376.093c-3.89 3.829-8.966 5.743-14.044 5.743a19.962 19.962 0 0 1-14.044-5.743 19.327 19.327 0 0 1-3.723-22.57c3.893-7.656 7.959-15.224 11.267-23.15l6.5-15.574 6.488 15.541c3.315 7.939 7.386 15.519 11.283 23.188a19.328 19.328 0 0 1-3.727 22.565z" fill="#43af3e"/><path d="M150.994 376.093c-3.89 3.829-8.966 5.743-14.044 5.743-2.408 0-4.818-1.914-6.663-5.743-2.984-6.189-3.549-15.498-1.693-22.868 2.58-10.249 4.866-20.805 6.985-31.5l1.37-6.925 6.49 15.541c3.314 7.938 7.385 15.519 11.282 23.188a19.327 19.327 0 0 1-3.727 22.564z" fill="#00a23e"/><path d="M150.994 376.093c-3.89 3.829-8.966 5.743-14.044 5.743V314.8l6.488 15.541c3.315 7.938 7.386 15.519 11.283 23.188a19.327 19.327 0 0 1-3.727 22.564z" fill="#008839"/><path d="M184.843 365.645h-6.891l.368-11.548.455-14.186h5.245l.455 14.186z" fill="#ec771b"/><path d="M184.843 365.645h-3.313v-25.734h2.49l.455 14.186zM181.53 352.09v-12.18h-2.755l-.39 12.18z" fill="#c55732"/><path d="M184.41 352.09l-.39-12.18h-2.49v12.18z" fill="#a44e3e"/><path d="M192.232 344.426c-2.964 2.917-6.833 4.377-10.702 4.377s-7.74-1.46-10.703-4.377a14.728 14.728 0 0 1-2.837-17.2c2.967-5.836 6.066-11.603 8.587-17.644l4.953-11.868 4.945 11.844c2.526 6.05 5.629 11.827 8.599 17.671a14.73 14.73 0 0 1-2.842 17.197z" fill="#43af3e"/><path d="M192.232 344.426a15.212 15.212 0 0 1-10.702 4.377c-1.836 0-3.672-1.46-5.078-4.377-2.275-4.717-2.705-11.811-1.29-17.428 1.966-7.81 3.708-15.855 5.323-24.006l1.045-5.278 4.945 11.845c2.526 6.05 5.629 11.827 8.599 17.671a14.73 14.73 0 0 1-2.842 17.196z" fill="#00a23e"/><path d="M192.232 344.426a15.212 15.212 0 0 1-10.702 4.377v-51.089l4.944 11.845c2.526 6.05 5.629 11.827 8.599 17.671a14.728 14.728 0 0 1-2.84 17.196z" fill="#008839"/><path d="M377.04 375.7c-35.948 28.5-77.473 47.747-121.04 57.133V347.38c6.859 4.931 13.623 10.213 18.972 13.984 13.87 9.785 29.83 16.977 49.039 15.514 9.48-.722 28.88-1.064 53.029-1.178z" fill="#53af17"/><path d="M499.2 255.857V256L356.9 398.3c-61.598 61.598-151.953 84.436-235.353 59.641-.656-.19-1.312-.389-1.967-.588-1.13-.77-2.261-1.549-3.382-2.347 0 0-.01 0-.01-.01a168.92 168.92 0 0 1-5.035-3.638 3.284 3.284 0 0 1-.294-.209 244.141 244.141 0 0 1-34.514-31.226 227.055 227.055 0 0 1-7.049-8.085h32.519c28.395 0 40.793-27.901 60.895-42.807 15.228-11.296 35.017-14.393 53.97-14.82 13.09-.285 26.257.532 39.32.133 5.852-.171 11.694-.589 17.49-1.454 28.338-4.218 53.636-23.17 73.919-43.89 23.56-24.063 41.107-48.972 61.57-73.786 24.785-30.058 56.658-43.33 85.148-28.832 3.173 15.275 4.902 31.055 5.063 47.224.01.75.01 1.501.01 2.252z" fill="#b6e337"/><path d="M499.2 255.857V256L356.9 398.3A236.853 236.853 0 0 1 256 458.16V354.344c5.852-.171 11.694-.589 17.49-1.454 28.338-4.218 53.637-23.17 73.919-43.89 23.56-24.063 41.107-48.972 61.57-73.786 24.785-30.058 56.658-43.33 85.148-28.833 3.173 15.276 4.902 31.056 5.063 47.225.01.75.01 1.501.01 2.251z" fill="#6cdc2d"/><g><path d="M216.698 414.837h-9.584l.513-16.06.63-19.727h7.296l.632 19.727z" fill="#ec771b"/><path d="M216.698 414.837h-4.609V379.05h3.464l.632 19.727z" fill="#c55732"/><path d="M212.09 395.57v-16.52h-3.832l-.528 16.52z" fill="#c55732"/><path d="M216.082 395.57l-.53-16.52h-3.463v16.52z" fill="#a44e3e"/><path d="M226.973 385.328c-4.122 4.058-9.503 6.087-14.884 6.087-5.38 0-10.761-2.028-14.884-6.087a20.481 20.481 0 0 1-3.782-24.236c5.764-10.862 10.872-22.05 15.603-33.385l3.063-7.339 3.064 7.339c4.73 11.335 9.839 22.523 15.603 33.385a20.482 20.482 0 0 1-3.783 24.236z" fill="#43af3e"/><path d="M226.973 385.328c-4.122 4.058-9.503 6.087-14.884 6.087-2.553 0-5.105-2.028-7.062-6.087-3.163-6.56-3.761-16.425-1.794-24.236 2.735-10.862 5.158-22.05 7.404-33.385l1.452-7.339 3.064 7.339c4.73 11.335 9.839 22.523 15.603 33.385a20.482 20.482 0 0 1-3.783 24.236z" fill="#00a23e"/><path d="M226.973 385.328c-4.122 4.058-9.503 6.087-14.884 6.087v-71.047l3.064 7.339c4.73 11.335 9.839 22.523 15.603 33.385a20.482 20.482 0 0 1-3.783 24.236z" fill="#008839"/></g><g><path d="M165.623 434.22h-6.917l.37-11.59.455-14.239h5.266l.455 14.239z" fill="#ec771b"/><path d="M165.623 434.22h-3.326v-25.829h2.5l.455 14.239zM162.297 420.55v-12.159h-2.766l-.388 12.16z" fill="#c55732"/><path d="M165.186 420.55l-.389-12.159h-2.5v12.16z" fill="#a44e3e"/><path d="M173.038 412.923a15.268 15.268 0 0 1-10.741 4.393 15.267 15.267 0 0 1-10.742-4.393 14.783 14.783 0 0 1-2.847-17.263c2.978-5.856 6.088-11.645 8.618-17.708l4.972-11.91 4.963 11.887c2.534 6.072 5.648 11.869 8.63 17.735a14.783 14.783 0 0 1-2.853 17.259z" fill="#43af3e"/><path d="M173.038 412.923a15.268 15.268 0 0 1-10.741 4.393c-1.842 0-3.685-1.464-5.097-4.393-2.282-4.734-2.714-11.855-1.295-17.491 1.973-7.84 3.723-15.914 5.343-24.094l1.049-5.297 4.963 11.888c2.534 6.072 5.648 11.869 8.63 17.735a14.781 14.781 0 0 1-2.852 17.259z" fill="#00a23e"/><path d="M173.038 412.923a15.268 15.268 0 0 1-10.741 4.393V366.04l4.963 11.888c2.534 6.072 5.648 11.869 8.63 17.735a14.781 14.781 0 0 1-2.852 17.259z" fill="#008839"/></g><g><path d="M120.672 458.094a231.077 231.077 0 0 1-9.376-6.612l.038-1.122.674-20.947h7.743l.674 20.947z" fill="#ec771b"/><path d="M120.672 458.094a261.546 261.546 0 0 1-4.597-3.154v-25.527h3.676l.674 20.947zM116.075 446.283v-16.87h-4.07l-.539 16.87z" fill="#c55732"/><path d="M120.293 446.283l-.54-16.87h-3.678v16.87z" fill="#a44e3e"/><path d="M131.88 436.08c-4.376 4.31-10.091 6.463-15.805 6.463s-11.429-2.155-15.807-6.463a21.75 21.75 0 0 1-4.19-25.401c4.382-8.617 8.958-17.133 12.682-26.055l7.315-17.526 7.302 17.491c3.73 8.935 8.313 17.465 12.698 26.097a21.75 21.75 0 0 1-4.194 25.394z" fill="#43af3e"/><path d="M131.88 436.08c-4.376 4.31-10.091 6.463-15.805 6.463-2.712 0-5.422-2.155-7.5-6.463-3.358-6.966-3.994-17.443-1.905-25.737 2.904-11.535 5.477-23.416 7.862-35.453l1.543-7.793 7.302 17.491c3.73 8.935 8.313 17.465 12.698 26.097a21.752 21.752 0 0 1-4.194 25.395z" fill="#00a23e"/><path d="M131.88 436.08c-4.376 4.31-10.091 6.463-15.805 6.463v-75.446l7.302 17.491c3.73 8.935 8.313 17.465 12.698 26.097a21.752 21.752 0 0 1-4.194 25.395z" fill="#008839"/></g><path d="M499.2 255.857V256c0 36.224-7.923 70.585-22.125 101.47a243.378 243.378 0 0 1-41.42 62.452c-44.327 48.545-108.053 79.06-178.904 79.278H256c-50.559 0-97.517-15.428-136.42-41.848 9.187-3.562 17.784-8.749 25.84-14.839 15.523-11.723 24.187-25.393 44.118-31.34 22.296-6.66 43.938-4.883 66.462-4.066l.788.028c22.031.78 44.29-4.987 63.071-16.549 38.066-23.427 58.34-66.528 85.766-101.83 16.083-20.71 37.838-40.384 64.059-40.954 9.005-.2 19.731 2.907 29.516 8.056z" fill="#6cdc2d"/><path d="M393.22 207.033a5.596 5.596 0 0 1-.464 6.549l-4.126 4.93c-1.568 1.872-3.164 3.772-5.244 5.045-2.072 1.282-4.741 1.843-6.974.855-2.603-1.15-3.933-4.01-5.994-5.985-5.434-5.235-12.483-3.069-17.784 1.273-3.81 3.125-6.821 7.115-10.507 10.383-11.429 10.137-21.195 4.218-28.766-6.612a33093.614 33093.614 0 0 0-20.758-29.706c-3.714-5.33-9.243-11.343-15.475-9.52-5.862 1.72-9.054 9.909-15.143 9.482-2.356-.171-4.332-1.672-5.985-3.43a21.89 21.89 0 0 1-1.083-1.235c-1.862-2.232-3.667-4.712-6.356-5.823-8.132-3.354-20.453 17.594-26.666 21.745-4.209 2.812-10.403 4.104-14.136-1.53-15.599-23.512-38.171-82.83-47.234-83.077s-14.041 10.184-19.684 15.723c-8.712 8.559-14.659-2.033-23.17-3.743-6.1-1.226-11.714 3.705-15.096 8.92s-5.909 11.324-11.03 14.858l-.15.102c-7.487 5.005-16.333-4.253-11.183-11.642 7.838-11.244 15.752-22.433 23.807-33.52 11.143-15.323 25.013-40.773 47.747-35.567 8.92 2.042 16.454 8.227 21.907 15.58 5.453 7.343 9.091 15.846 12.682 24.263 4.978 11.666 9.947 23.332 14.925 34.988 4.056 9.52 9.557 20.264 19.693 22.306 10.935 2.214 20.625-6.982 27.455-15.798 2.271-2.926 4.817-5.72 7.572-8.142 10.184-8.958 23.066-12.73 33.991 1.387 6.422 8.275 26.704 46.75 37.145 45.857 8.027-.694 14.26-6.916 21.061-11.239 17.024-10.792 28.681-1.111 37.753 11.305 2.603 3.572 5.007 7.382 7.249 10.982a.603.603 0 0 0 .022.036z" fill="#fff"/><path d="M499.2 255.857V256c0 36.224-7.923 70.585-22.125 101.47a243.378 243.378 0 0 1-41.42 62.452c-44.327 48.545-108.053 79.06-178.904 79.278H256v-92.093l.788.028c22.031.78 44.29-4.987 63.071-16.549 38.066-23.427 58.34-66.528 85.766-101.83 16.083-20.71 37.838-40.384 64.059-40.954 9.005-.2 19.731 2.907 29.516 8.056z" fill="#5dbf1d"/><path d="M393.22 207.033a5.596 5.596 0 0 1-.464 6.549l-4.126 4.93c-1.568 1.872-3.164 3.772-5.244 5.045-2.072 1.282-4.741 1.843-6.974.855-2.603-1.15-3.933-4.01-5.994-5.985-5.434-5.235-12.483-3.069-17.784 1.273-3.81 3.125-6.821 7.115-10.507 10.383-11.429 10.137-21.195 4.218-28.766-6.612a33093.614 33093.614 0 0 0-20.758-29.706c-3.714-5.33-9.243-11.343-15.475-9.52-5.862 1.72-9.054 9.909-15.143 9.482-2.356-.171-4.332-1.672-5.985-3.43v-41.591c10.184-8.958 23.066-12.73 33.991 1.387 6.422 8.275 26.704 46.75 37.145 45.857 8.027-.694 14.26-6.916 21.061-11.239 17.024-10.792 28.681-1.111 37.753 11.305 2.603 3.572 5.007 7.382 7.249 10.982l.022.035z" fill="#d1f6ff"/><g><path d="M288.055 70.676c0-.056.004-.111.004-.166 0-10.218-8.283-18.5-18.5-18.5-2.428 0-4.744.472-6.867 1.322-4.102-7.35-11.952-12.323-20.968-12.323-11.706 0-21.45 8.384-23.568 19.474-.632-.09-1.276-.14-1.932-.14-6.365 0-11.698 4.407-13.124 10.335h84.955z" fill="#fff"/><path d="M270.004 70.676l.003-.096c0-5.876-4.764-10.638-10.638-10.638-1.396 0-2.728.272-3.95.76-2.358-4.227-6.873-7.086-12.056-7.086-6.732 0-12.335 4.821-13.553 11.197a7.763 7.763 0 0 0-8.656 5.862h48.85z" fill="#dff7fd"/></g><g><path d="M326.972 136.988c0-.043-.003-.085-.003-.127 0-7.76 6.29-14.051 14.051-14.051 1.844 0 3.603.36 5.216 1.004 3.116-5.582 9.078-9.36 15.925-9.36 8.892 0 16.292 6.369 17.9 14.791.48-.068.97-.106 1.468-.106 4.835 0 8.885 3.347 9.968 7.849z" fill="#fff"/><path d="M340.682 136.988l-.002-.073a8.08 8.08 0 0 1 11.079-7.502 10.477 10.477 0 0 1 9.157-5.382c5.113 0 9.368 3.661 10.293 8.505a5.897 5.897 0 0 1 6.575 4.453h-37.102z" fill="#dff7fd"/></g><g fill="#53af17" transform="matrix(.95 0 0 .95 12.8 12.8)"><path d="M323.896 444.102a6.96 6.96 0 0 1-8.488 4.985 6.96 6.96 0 0 1-4.985-8.488 6.96 6.96 0 1 1 13.473 3.503z"/><circle cx="359.001" cy="456.887" r="6.961"/><path d="M469.161 355.849a6.96 6.96 0 1 1-13.922 0 6.96 6.96 0 0 1 13.922 0z"/><circle cx="444.618" cy="302.94" r="6.961"/><circle cx="405.483" cy="435.39" r="6.961"/><circle cx="277.198" cy="489.754" r="10.045"/><circle cx="492.116" cy="280.266" transform="rotate(-80.73 492.246 280.222)" r="10.045"/><circle cx="388.477" cy="381.543" transform="rotate(-80.73 388.609 381.534)" r="10.045"/><path d="M168.706 470.808a6.96 6.96 0 1 1-13.922 0 6.96 6.96 0 0 1 13.922 0z"/><circle cx="200.225" cy="447.474" r="10.045"/><path d="M232.923 489.754a5.941 5.941 0 1 1-11.882 0 5.941 5.941 0 0 1 11.882 0zM246.66 437.429a5.941 5.941 0 1 1-11.882 0 5.941 5.941 0 0 1 11.882 0z"/></g></g></svg>