<svg xmlns="http://www.w3.org/2000/svg" width="512" height="512" style="enable-background:new 0 0 512 512" xml:space="preserve"><circle r="256" cx="256" cy="256" fill="#48c774"/><g xmlns="http://www.w3.org/2000/svg"><path d="M494.014 205.86l-5.254 6.47c-121.153 149.321-347.994 152.352-473.1 6.318a241.188 241.188 0 0 1 28.823-82.745C86.207 62.573 164.972 13.039 255.374 12.802S424.787 61.698 466.891 134.81a241.505 241.505 0 0 1 26.923 70.091l.2.96z" fill="#fff9bb"/><path d="M494.014 205.86l-5.254 6.47c-121.153 149.321-347.994 152.352-473.1 6.318a241.188 241.188 0 0 1 28.823-82.745c42.104 73.102 121.125 122.236 211.527 121.999 90.393-.238 169.157-49.77 210.881-123.092 12.55 21.784 21.822 45.686 27.123 71.05z" fill="#fff297"/><path d="M136.621 124.386l.003-.003c.08-9.302-7.437-16.868-16.72-16.868a16.66 16.66 0 0 0-6.206 1.195c-3.708-6.642-10.803-11.137-18.95-11.137-10.58 0-19.387 7.577-21.3 17.6a12.314 12.314 0 0 0-1.747-.126c-5.752 0-10.573 3.982-11.86 9.34z" fill="#ffeb98"/><path d="M120.307 124.386l.002-.002c.046-5.35-4.276-9.7-9.614-9.7a9.584 9.584 0 0 0-3.57.688 12.463 12.463 0 0 0-10.896-6.404c-6.084 0-11.148 4.356-12.248 10.12a7.017 7.017 0 0 0-7.824 5.298z" fill="#f9e073"/><path d="M438.913 146.894l.005-.004c.117-13.568-10.846-24.603-24.388-24.603-3.2 0-6.253.622-9.052 1.743-5.409-9.688-15.756-16.244-27.64-16.244-15.432 0-28.276 11.051-31.068 25.67a17.88 17.88 0 0 0-2.547-.184c-8.39 0-15.42 5.809-17.3 13.622z" fill="#ffeb98"/><path d="M415.117 146.894l.003-.002c.068-7.803-6.236-14.148-14.023-14.148-1.84 0-3.595.358-5.205 1.002-3.11-5.57-9.06-9.34-15.893-9.34-8.874 0-16.26 6.355-17.865 14.761a10.345 10.345 0 0 0-1.465-.106c-4.825 0-8.867 3.34-9.947 7.832h64.395z" fill="#f9e073"/><path d="M499.2 255.374c.02 5.719-.17 11.4-.55 17.024a242.328 242.328 0 0 1-2.888 24.538 236.406 236.406 0 0 1-4.266 19.998 241.828 241.828 0 0 1-30.704 70.281l-.009.01-.684.636-4.446 2.432c-122.531 67.051-272.014 61.199-388.93-15.21l-33.792-22.087h-.009a242.328 242.328 0 0 1-12.103-34.846 238.434 238.434 0 0 1-4.37-19.979 237.121 237.121 0 0 1-2.1-14.61c-.37-3.24-.665-6.499-.902-9.776a244.105 244.105 0 0 1-.646-17.157c-.038-12.92.94-25.612 2.86-37.981l156.35-89.728 22.981-13.186 21.935 14.877 39.074 26.496 42.864 29.07a22.108 22.108 0 0 0 20.814 2.147l59.765-24.615 18.126-7.467 17.423 8.968 79.021 40.651a243.625 243.625 0 0 1 5.168 47.12c.01.799.019 1.597.019 2.394z" fill="#7e7f92"/><path d="M499.2 255.374c.02 5.719-.17 11.4-.55 17.024a242.328 242.328 0 0 1-2.888 24.538 236.406 236.406 0 0 1-4.266 19.998 241.828 241.828 0 0 1-30.704 70.281l-.009.01-.684.636-4.446 2.432C393.456 424.331 324.306 439.579 256 436.349V157.106l42.864 29.07a22.108 22.108 0 0 0 20.814 2.147l59.765-24.615 18.126-7.467 17.423 8.968 79.02 40.651a243.625 243.625 0 0 1 5.169 47.12c.01.799.019 1.597.019 2.394z" fill="#6e6f83"/><path d="M498.65 272.399a242.328 242.328 0 0 1-2.888 24.538 236.406 236.406 0 0 1-4.266 19.998 241.178 241.178 0 0 1-18.04 48.07c0 .01-.01.01-.01.01a227.49 227.49 0 0 1-6.25 11.627l-.01.01a238.155 238.155 0 0 1-6.394 10.564l-.019.019-.674.627-4.446 2.432C393.456 424.332 324.306 439.58 256 436.35c-66.253-3.126-131.708-23.636-189.278-61.266L32.93 352.997h-.009a242.328 242.328 0 0 1-12.103-34.846 238.434 238.434 0 0 1-4.37-19.979 237.121 237.121 0 0 1-2.1-14.61l180.633-103.674L256 221.26l42.864 29.07a22.108 22.108 0 0 0 20.814 2.147l77.89-32.081z" fill="#6e6f83"/><path d="M498.65 272.399a242.328 242.328 0 0 1-2.888 24.538 236.406 236.406 0 0 1-4.266 19.998 241.178 241.178 0 0 1-18.04 48.07c0 .01-.01.01-.01.01a227.49 227.49 0 0 1-6.25 11.627l-.01.01a238.155 238.155 0 0 1-6.394 10.564l-.019.019-.674.627-4.446 2.432C393.456 424.332 324.306 439.58 256 436.35V221.26l42.864 29.07a22.108 22.108 0 0 0 20.814 2.147l77.89-32.081z" fill="#605f74"/><path d="M100.573 358.607h-5.835l.312-9.779.384-12.012h4.442l.385 12.012z" fill="#ec771b"/><path d="M100.573 358.607h-2.806v-21.791h2.11l.384 12.012zm-2.806-21.791v12.012H95.05l.384-12.012z" fill="#c55732"/><path d="M100.26 348.828h-2.493v-12.012h2.11z" fill="#a44e3e"/><path d="M106.83 340.638c-2.51 2.471-5.786 3.706-9.063 3.706s-6.553-1.235-9.063-3.706a12.473 12.473 0 0 1-2.402-14.565c2.512-4.941 5.136-9.824 7.27-14.94l4.195-10.05 4.188 10.03c2.138 5.123 4.766 10.013 7.28 14.963a12.473 12.473 0 0 1-2.405 14.562z" fill="#b6e337"/><path d="M106.83 340.638a12.88 12.88 0 0 1-9.063 3.706c-1.554 0-3.108-1.235-4.3-3.706-1.925-3.993-2.29-10.001-1.092-14.757 1.665-6.614 3.14-13.426 4.508-20.328l.884-4.469 4.188 10.03c2.138 5.123 4.766 10.013 7.28 14.963a12.472 12.472 0 0 1-2.405 14.561z" fill="#6cdc2d"/><path d="M106.83 340.638a12.88 12.88 0 0 1-9.063 3.706v-43.26l4.188 10.03c2.138 5.123 4.766 10.013 7.28 14.963a12.472 12.472 0 0 1-2.405 14.561z" fill="#50ba4a"/><path d="M165.061 369.192h-5.835l.312-9.78.385-12.012h4.442l.384 12.012z" fill="#ec771b"/><path d="M165.061 369.192h-2.806V347.4h2.11l.384 12.012zm-2.806-21.792v12.012h-2.717l.385-12.012z" fill="#c55732"/><path d="M164.749 359.412h-2.494V347.4h2.11z" fill="#a44e3e"/><path d="M171.318 351.223c-2.51 2.471-5.787 3.706-9.063 3.706s-6.553-1.235-9.063-3.706a12.471 12.471 0 0 1-2.403-14.565c2.513-4.941 5.136-9.824 7.272-14.94l4.194-10.05 4.188 10.03c2.138 5.123 4.766 10.013 7.28 14.963a12.472 12.472 0 0 1-2.405 14.562z" fill="#b6e337"/><path d="M171.318 351.223a12.88 12.88 0 0 1-9.063 3.706c-1.554 0-3.108-1.235-4.3-3.706-1.925-3.994-2.29-10.001-1.092-14.757 1.665-6.614 3.14-13.426 4.508-20.328l.884-4.469 4.188 10.03c2.138 5.123 4.766 10.013 7.28 14.963a12.47 12.47 0 0 1-2.405 14.561z" fill="#6cdc2d"/><path d="M171.318 351.223a12.88 12.88 0 0 1-9.063 3.706v-43.26l4.188 10.03c2.138 5.123 4.766 10.013 7.28 14.963a12.47 12.47 0 0 1-2.405 14.561z" fill="#50ba4a"/><path d="M259.768 371.593H252l.415-13.016.512-15.99h5.912l.513 15.99z" fill="#ec771b"/><path d="M259.768 371.593h-3.736v-29.006h2.808l.513 15.99zm-3.736-29.006v15.99h-3.616l.512-15.99z" fill="#c55732"/><path d="M259.353 358.577h-3.32v-15.99h2.808z" fill="#a44e3e"/><path d="M268.096 347.676a17.146 17.146 0 0 1-12.064 4.933c-4.36 0-8.723-1.644-12.064-4.933a16.601 16.601 0 0 1-3.197-19.388c3.344-6.577 6.837-13.077 9.678-19.886l5.583-13.378 5.574 13.35c2.847 6.82 6.344 13.33 9.69 19.92a16.598 16.598 0 0 1-3.2 19.382z" fill="#b6e337"/><path d="M268.096 347.676a17.146 17.146 0 0 1-12.064 4.933c-2.069 0-4.138-1.644-5.723-4.933-2.564-5.317-3.049-13.313-1.455-19.644 2.216-8.804 4.181-17.872 6-27.06l1.177-5.948 5.574 13.35c2.847 6.82 6.344 13.33 9.691 19.92a16.596 16.596 0 0 1-3.2 19.382z" fill="#6cdc2d"/><path d="M268.096 347.676a17.146 17.146 0 0 1-12.064 4.933v-57.585l5.574 13.35c2.847 6.82 6.344 13.33 9.69 19.92a16.598 16.598 0 0 1-3.2 19.382z" fill="#50ba4a"/><path d="M344.15 376.565h-7.69l.412-12.89.506-15.832h5.855l.506 15.833z" fill="#ec771b"/><path d="M344.15 376.565h-3.698v-28.722h2.78l.507 15.833zm-3.698-28.722v15.833h-3.58l.506-15.833z" fill="#c55732"/><path d="M343.74 363.676h-3.288v-15.833h2.78z" fill="#a44e3e"/><path d="M352.397 352.883a16.976 16.976 0 0 1-11.945 4.885 16.98 16.98 0 0 1-11.945-4.885 16.437 16.437 0 0 1-3.166-19.197c3.311-6.512 6.77-12.948 9.583-19.69l5.528-13.246 5.519 13.219c2.818 6.753 6.281 13.198 9.596 19.722a16.437 16.437 0 0 1-3.17 19.192z" fill="#b6e337"/><path d="M352.397 352.883a16.976 16.976 0 0 1-11.945 4.885c-2.048 0-4.097-1.628-5.668-4.885-2.537-5.265-3.018-13.182-1.44-19.45 2.195-8.718 4.14-17.696 5.942-26.793l1.165-5.89 5.519 13.219c2.818 6.753 6.281 13.198 9.596 19.722a16.435 16.435 0 0 1-3.169 19.192z" fill="#6cdc2d"/><path d="M352.397 352.883a16.976 16.976 0 0 1-11.945 4.885V300.75l5.519 13.219c2.818 6.753 6.281 13.198 9.596 19.722a16.436 16.436 0 0 1-3.17 19.19z" fill="#50ba4a"/><path d="M424.778 379.543h-7.634l.408-12.792.504-15.714h5.81l.502 15.714z" fill="#ec771b"/><path d="M424.778 379.543h-3.67v-28.506h2.758l.503 15.714zm-3.671-28.506v15.714h-3.555l.504-15.714z" fill="#c55732"/><path d="M424.368 366.751h-3.26v-15.714h2.758z" fill="#a44e3e"/><path d="M432.963 356.038a16.85 16.85 0 0 1-11.856 4.848 16.853 16.853 0 0 1-11.856-4.848 16.315 16.315 0 0 1-3.142-19.053c3.286-6.464 6.718-12.852 9.51-19.544l5.488-13.147 5.478 13.12c2.798 6.702 6.235 13.101 9.525 19.575a16.316 16.316 0 0 1-3.147 19.049z" fill="#b6e337"/><path d="M432.963 356.038a16.85 16.85 0 0 1-11.856 4.848c-2.033 0-4.067-1.616-5.625-4.848-2.52-5.225-2.995-13.084-1.429-19.305 2.179-8.652 4.11-17.564 5.897-26.593l1.157-5.845 5.478 13.12c2.798 6.702 6.235 13.101 9.525 19.575a16.315 16.315 0 0 1-3.147 19.048z" fill="#6cdc2d"/><path d="M432.963 356.038a16.85 16.85 0 0 1-11.856 4.848v-56.592l5.478 13.12c2.798 6.702 6.235 13.101 9.525 19.575a16.316 16.316 0 0 1-3.147 19.049z" fill="#50ba4a"/><path d="M206.888 93.535c-.001-.09-.007-.177-.007-.266 0-16.316 13.227-29.543 29.543-29.543 3.876 0 7.575.754 10.966 2.112 6.551-11.737 19.087-19.679 33.483-19.679 18.695 0 34.255 13.389 37.636 31.098a21.743 21.743 0 0 1 3.086-.224c10.164 0 18.68 7.036 20.956 16.502z" fill="#ffeb98"/><path d="M235.714 93.535c0-.051-.004-.102-.004-.153 0-9.382 7.606-16.988 16.988-16.988 2.228 0 4.356.433 6.306 1.214 3.767-6.749 10.975-11.315 19.254-11.315 10.75 0 19.697 7.698 21.641 17.881.58-.082 1.172-.128 1.775-.128 5.845 0 10.742 4.046 12.05 9.49h-78.01z" fill="#f9e073"/><path d="M219.998 384.362h-7.285a1.083 1.083 0 0 1-1.082-1.135l.617-12.841 1.078-22.375h6.061l1.078 22.375.617 12.84a1.085 1.085 0 0 1-1.084 1.136z" fill="#ec771b"/><path d="M219.385 348.007l1.695 35.219a1.084 1.084 0 0 1-1.083 1.136h-3.642v-36.355z" fill="#c55732"/><path d="M220.464 370.386h-8.217l1.078-22.375h6.061z" fill="#c55732"/><path d="M220.464 370.386h-4.108V348.01h3.03z" fill="#b15848"/><path d="M233.103 350.532c-1.775 9.003-9.26 13.512-16.746 13.5h-.093c-7.462-.031-14.904-4.532-16.675-13.5-.84-4.23-.234-8.813 2.202-13.053l.152-.277c5.641-9.579 10.372-19.406 14.321-29.409.032-.082.063-.152.093-.226 3.961 10.073 8.712 19.982 14.403 29.635l.152.277c2.436 4.24 3.032 8.823 2.191 13.053z" fill="#b6e337"/><path d="M224.287 350.528c-.844 9.038-4.418 13.54-7.978 13.503-3.536-.037-7.058-4.54-7.896-13.503-.398-4.232-.115-8.819 1.04-13.052l.074-.28c2.673-9.577 4.91-19.407 6.783-29.405l.042-.223c1.879 10.072 4.128 19.98 6.822 29.629l.073.279c1.155 4.233 1.437 8.82 1.04 13.052z" fill="#6cdc2d"/><path d="M233.103 350.532c-1.775 9.003-9.26 13.512-16.746 13.5v-56.465c3.961 10.073 8.712 19.982 14.403 29.635l.152.277c2.436 4.24 3.032 8.823 2.191 13.053z" fill="#50ba4a"/><path d="M300.03 391.149h-7.284a1.083 1.083 0 0 1-1.082-1.135l.617-12.842 1.078-22.374h6.06l1.079 22.375.617 12.84a1.085 1.085 0 0 1-1.084 1.136z" fill="#ec771b"/><path d="M299.418 354.795l1.695 35.219a1.084 1.084 0 0 1-1.082 1.136h-3.643v-36.355z" fill="#c55732"/><path d="M300.496 377.173h-8.216l1.078-22.375h6.06z" fill="#c55732"/><path d="M300.496 377.173h-4.108v-22.375h3.03z" fill="#b15848"/><path d="M313.135 357.318c-1.774 9.004-9.26 13.512-16.746 13.5h-.093c-7.462-.03-14.905-4.532-16.675-13.5-.84-4.229-.234-8.812 2.202-13.053l.152-.276c5.641-9.579 10.372-19.407 14.321-29.41l.093-.225c3.96 10.073 8.712 19.982 14.403 29.635l.152.276c2.436 4.241 3.032 8.825 2.19 13.053z" fill="#b6e337"/><path d="M304.32 357.316c-.845 9.038-4.419 13.54-7.978 13.503-3.536-.037-7.059-4.54-7.897-13.503-.397-4.233-.115-8.82 1.042-13.052l.073-.28c2.673-9.578 4.91-19.407 6.783-29.405.013-.075.028-.15.042-.223 1.879 10.072 4.13 19.98 6.822 29.628l.074.28c1.153 4.232 1.436 8.818 1.039 13.052z" fill="#6cdc2d"/><path d="M313.135 357.318c-1.774 9.004-9.26 13.512-16.746 13.5v-56.464c3.96 10.073 8.712 19.982 14.403 29.635l.152.276c2.436 4.241 3.032 8.825 2.19 13.053z" fill="#50ba4a"/><path d="M458.199 391.177a243.324 243.324 0 0 1-32.519 39.045l-33.61 13.661c-86.612 35.217-184.11 32.034-268.252-8.75l-58.71-28.452a241.19 241.19 0 0 1-23.712-36.185 239.5 239.5 0 0 1-8.474-17.5h67.991c8.93 0 16.217 5.634 23.465 10.061 6.565 4.01 14.412 5.349 22.002 4.589 6.384-.637 12.103-3.563 18.278-5.035 5.387-1.283 10.013-4.465 15.799-2.879 4.37 1.197 8.075 4.095 11.371 7.201 3.306 3.107 6.365 6.508 10.09 9.092 5.68 3.942 12.805 5.614 19.664 4.968 7.724-.74 12.303-4.92 18.582-8.882 3.715-2.347 7.515-4.722 11.761-5.843a14.806 14.806 0 0 1 3.021-.465c2.651-.124 5.32.437 7.743 1.586 8.73 4.123 17.347 8.465 25.944 12.873 8.683 4.455 15.552 5.9 24.9 1.643 6.175-2.812 11.761-7.058 17.983-9.652 6.745-2.812 14.84-.076 20.14 4.418 6.47 5.5 13.063 10.212 20.216 14.725 7.05 4.446 12.75 6.773 21.176 3.087 14.269-6.241 23.493-29.108 41.914-20.32 2.071.997 3.99 2.29 5.766 3.752l8.075 6.631a78.797 78.797 0 0 0 9.396 6.631z" fill="#00a23e"/><path d="M458.199 391.177a243.324 243.324 0 0 1-32.519 39.045l-33.61 13.661a329.82 329.82 0 0 1-137.124 24.045V365.803c2.651-.124 5.32.437 7.743 1.586 8.73 4.123 17.347 8.465 25.944 12.873 8.683 4.455 15.552 5.9 24.9 1.643 6.175-2.812 11.761-7.058 17.983-9.652 6.745-2.812 14.84-.076 20.14 4.418 6.47 5.5 13.063 10.212 20.216 14.725 7.05 4.446 12.75 6.773 21.176 3.087 14.269-6.241 23.493-29.108 41.914-20.32 2.071.997 3.99 2.29 5.766 3.752l8.075 6.631a78.797 78.797 0 0 0 9.396 6.631z" fill="#008839"/><g><path d="M385.676 402.601h-7.768l.415-13.018.512-15.992h5.914l.51 15.992z" fill="#ec771b"/><path d="M385.676 402.601h-3.735v-29.01h2.808l.51 15.992zm-3.736-29.01v15.992h-3.617l.512-15.992z" fill="#c55732"/><path d="M385.26 389.583h-3.32v-15.992h2.809z" fill="#a44e3e"/><path d="M394.006 378.681c-3.342 3.289-7.704 4.933-12.065 4.933s-8.724-1.644-12.065-4.933a16.603 16.603 0 0 1-3.2-19.39c3.346-6.577 6.839-13.078 9.68-19.889l5.585-13.378 5.574 13.352c2.847 6.82 6.345 13.331 9.693 19.92a16.604 16.604 0 0 1-3.202 19.385z" fill="#b6e337"/><path d="M394.006 378.681a17.148 17.148 0 0 1-12.065 4.933c-2.07 0-4.14-1.644-5.725-4.933-2.563-5.317-3.049-13.315-1.455-19.646 2.217-8.805 4.181-17.874 6.002-27.063l1.178-5.948 5.574 13.352c2.847 6.82 6.345 13.331 9.693 19.92a16.604 16.604 0 0 1-3.202 19.385z" fill="#6cdc2d"/><path d="M394.006 378.681a17.148 17.148 0 0 1-12.065 4.933v-57.59l5.574 13.352c2.847 6.82 6.345 13.331 9.693 19.92a16.604 16.604 0 0 1-3.202 19.385z" fill="#50ba4a"/></g><path d="M425.68 430.222c-21.593 21.043-47.082 38.086-75.287 49.97-28.624 12.075-60.04 18.82-93.015 19.01h-1.377c-43.349 0-84.056-11.343-119.31-31.236a244.209 244.209 0 0 1-59.917-47.576 236.178 236.178 0 0 1-11.666-13.709c7.324.418 14.563 2.071 21.29 4.997 14.943 6.489 28.946 21.223 45.618 22.278 20.036 1.263 39.093-9.187 55.423-19.57 17.034-10.84 33.972-23.085 53.77-27.056 4.712-.94 9.719-1.397 14.792-1.32 14.098.18 28.775 4.322 39.358 12.805 10.422 8.36 21.907 15.865 35.511 15.618 13.557-.237 27.18 0 40.727.551 11.865.485 23.446 7.743 34.77 11.42 6.393 2.06 12.834 3.543 19.313 3.818z" fill="#5dbf1d"/><path d="M425.68 430.222a243.596 243.596 0 0 1-46.217 35.34 155.96 155.96 0 0 1-4.408 2.546c-34.818 19.58-74.936 30.847-117.677 31.094h-1.377V386.009c14.098.18 28.775 4.323 39.358 12.806 10.422 8.36 21.907 15.865 35.511 15.618 13.557-.237 27.18 0 40.727.551 11.865.485 23.446 7.743 34.77 11.42 6.393 2.06 12.834 3.543 19.313 3.818z" fill="#43af3e"/><path d="M379.016 465.828a240.452 240.452 0 0 1-28.623 14.364l-25.726 5.178a302.734 302.734 0 0 1-136.42-3.905l-51.557-13.5a243.027 243.027 0 0 1-28.804-19.066c24.814-27.35 56.924-55.632 84.598-57.104 29.45-1.577 39.9 22.106 62.937 25.479.2.028.39.057.58.076 22.648 3.03 33.487-13.025 53.456-10.165 13.642 1.947 44.688 31.264 69.56 58.643z" fill="#43af3e"/><path d="M379.016 465.828a240.452 240.452 0 0 1-28.623 14.364l-25.726 5.178A301.955 301.955 0 0 1 256 491.193V417.35c22.648 3.03 33.487-13.025 53.456-10.165 13.642 1.947 44.688 31.264 69.56 58.643z" fill="#00a23e"/><g><path d="M261.375 473.163h-11.168l.597-18.716.736-22.99h8.502l.736 22.99z" fill="#ec771b"/><path d="M261.375 473.163h-5.37v-41.707h4.037l.736 22.991zm-5.37-41.707v22.991h-5.2l.735-22.99z" fill="#c55732"/><path d="M260.778 454.447h-4.773v-22.99h4.037z" fill="#a44e3e"/><path d="M273.35 438.774c-4.802 4.728-11.074 7.093-17.345 7.093-6.27 0-12.542-2.365-17.346-7.093a23.87 23.87 0 0 1-4.598-27.877c4.809-9.456 9.83-18.803 13.916-28.593l8.028-19.234 8.014 19.195c4.094 9.805 9.122 19.167 13.935 28.64a23.871 23.871 0 0 1-4.603 27.87z" fill="#b6e337"/><path d="M273.35 438.774c-4.802 4.728-11.074 7.093-17.345 7.093-2.976 0-5.95-2.365-8.23-7.093-3.685-7.644-4.382-19.142-2.091-28.245 3.187-12.659 6.012-25.697 8.628-38.907l1.693-8.553 8.014 19.195c4.094 9.805 9.122 19.167 13.935 28.64a23.872 23.872 0 0 1-4.603 27.87z" fill="#6cdc2d"/><path d="M273.35 438.774c-4.802 4.728-11.074 7.093-17.345 7.093V363.07l8.014 19.195c4.094 9.805 9.122 19.167 13.935 28.64a23.871 23.871 0 0 1-4.603 27.87z" fill="#50ba4a"/></g><g><path d="M92.509 422.47h-6.543l.35-10.964.431-13.467h4.98l.431 13.467z" fill="#ec771b"/><path d="M92.509 422.47h-3.147v-24.43h2.366l.43 13.466zm-3.147-24.43v13.466h-3.045l.43-13.467z" fill="#c55732"/><path d="M92.158 411.506h-2.796V398.04h2.366z" fill="#a44e3e"/><path d="M99.524 402.326a14.44 14.44 0 0 1-10.162 4.155 14.444 14.444 0 0 1-10.16-4.155 13.983 13.983 0 0 1-2.694-16.33c2.817-5.54 5.758-11.014 8.152-16.75l4.702-11.266 4.694 11.244c2.398 5.744 5.344 11.227 8.163 16.776a13.98 13.98 0 0 1-2.695 16.326z" fill="#b6e337"/><path d="M99.524 402.326a14.44 14.44 0 0 1-10.162 4.155c-1.742 0-3.485-1.385-4.82-4.155-2.16-4.479-2.568-11.213-1.225-16.546 1.866-7.414 3.521-15.052 5.054-22.79l.991-5.01 4.694 11.244c2.398 5.744 5.344 11.227 8.163 16.776a13.98 13.98 0 0 1-2.695 16.326z" fill="#6cdc2d"/><path d="M99.524 402.326a14.44 14.44 0 0 1-10.162 4.155v-48.5l4.694 11.244c2.398 5.743 5.344 11.227 8.163 16.776a13.98 13.98 0 0 1-2.695 16.325z" fill="#50ba4a"/></g><g><path d="M418.128 437.262a212.89 212.89 0 0 1-6.289 5.434h-1.359l.418-13.11.513-16.103h5.957l.513 16.103z" fill="#ec771b"/><path d="M418.128 437.262a184.76 184.76 0 0 1-3.591 3.144v-26.923h2.831l.513 16.103zm-3.591-23.782v16.103h-3.642l.516-16.102z" fill="#c55732"/><path d="M417.88 429.583h-3.343v-16.102h2.828z" fill="#a44e3e"/><path d="M426.686 418.606c-3.364 3.311-7.757 4.967-12.15 4.967s-8.783-1.655-12.148-4.967a16.717 16.717 0 0 1-3.22-19.525c3.368-6.623 6.884-13.169 9.747-20.026l5.622-13.47 5.613 13.444c2.867 6.867 6.388 13.423 9.759 20.058a16.716 16.716 0 0 1-3.223 19.519z" fill="#b6e337"/><path d="M426.686 418.606a17.266 17.266 0 0 1-12.15 4.967c-2.082 0-4.166-1.655-5.763-4.967-2.58-5.354-3.07-13.408-1.464-19.782 2.233-8.865 4.21-17.998 6.043-27.25l1.186-5.99 5.613 13.445c2.867 6.867 6.388 13.423 9.759 20.058a16.718 16.718 0 0 1-3.224 19.519z" fill="#6cdc2d"/><path d="M426.686 418.606a17.266 17.266 0 0 1-12.15 4.967v-57.99l5.614 13.445c2.867 6.867 6.388 13.423 9.759 20.058a16.717 16.717 0 0 1-3.223 19.52z" fill="#50ba4a"/></g><g><path d="M193.553 456.595h-11.169l.598-18.716.735-22.99h8.503l.735 22.99z" fill="#ec771b"/><path d="M193.553 456.595h-5.37v-41.707h4.037l.735 22.991zm-5.371-41.707v22.991h-5.2l.735-22.99z" fill="#c55732"/><path d="M192.955 437.88h-4.773v-22.992h4.038z" fill="#a44e3e"/><path d="M205.528 422.206c-4.803 4.73-11.075 7.093-17.346 7.093-6.27 0-12.542-2.365-17.346-7.093a23.87 23.87 0 0 1-4.598-27.877c4.81-9.456 9.83-18.803 13.917-28.593l8.027-19.234 8.015 19.195c4.093 9.805 9.121 19.167 13.934 28.64a23.87 23.87 0 0 1-4.603 27.87z" fill="#b6e337"/><path d="M205.528 422.206c-4.803 4.73-11.075 7.093-17.346 7.093-2.975 0-5.95-2.365-8.23-7.093-3.685-7.644-4.382-19.142-2.09-28.244 3.187-12.659 6.011-25.697 8.627-38.907l1.693-8.553 8.015 19.195c4.093 9.805 9.121 19.167 13.934 28.64a23.87 23.87 0 0 1-4.603 27.87z" fill="#6cdc2d"/><path d="M205.528 422.206c-4.803 4.73-11.075 7.093-17.346 7.093v-82.797l8.015 19.195c4.093 9.805 9.121 19.167 13.934 28.64a23.87 23.87 0 0 1-4.603 27.87z" fill="#50ba4a"/></g><g><path d="M142.704 471.253a230.428 230.428 0 0 1-10.384-5.814l.114-3.468.741-22.99h8.503l.731 22.99z" fill="#ec771b"/><path d="M142.704 471.253c-1.7-.893-3.392-1.815-5.064-2.746v-29.526h4.038l.731 22.99zm-5.066-32.273v22.991h-5.2l.735-22.991z" fill="#c55732"/><path d="M142.41 461.971h-4.772V438.98h4.037z" fill="#a44e3e"/><path d="M154.984 446.297c-4.804 4.73-11.075 7.093-17.346 7.093-6.27 0-12.542-2.365-17.346-7.093a23.871 23.871 0 0 1-4.598-27.876c4.808-9.457 9.83-18.804 13.916-28.594l8.028-19.234 8.014 19.195c4.093 9.805 9.122 19.167 13.934 28.64a23.868 23.868 0 0 1-4.602 27.87z" fill="#b6e337"/><path d="M154.984 446.297c-4.804 4.73-11.075 7.093-17.346 7.093-2.976 0-5.95-2.365-8.23-7.093-3.685-7.644-4.383-19.142-2.091-28.245 3.187-12.659 6.011-25.697 8.628-38.907l1.693-8.553 8.014 19.196c4.093 9.804 9.122 19.166 13.934 28.64a23.87 23.87 0 0 1-4.602 27.87z" fill="#6cdc2d"/><path d="M154.984 446.297c-4.804 4.73-11.075 7.093-17.346 7.093v-82.797l8.014 19.195c4.093 9.805 9.122 19.167 13.934 28.64a23.868 23.868 0 0 1-4.602 27.87z" fill="#50ba4a"/></g><g><path d="M324.874 468.877h-11.17l.6-18.715.735-22.992h8.501l.736 22.992z" fill="#ec771b"/><path d="M324.874 468.877h-5.37V427.17h4.036l.736 22.992zm-5.37-41.707v22.992h-5.2l.735-22.992z" fill="#c55732"/><path d="M324.276 450.162h-4.772V427.17h4.036z" fill="#a44e3e"/><path d="M336.85 434.488c-4.803 4.729-11.075 7.093-17.346 7.093-6.27 0-12.542-2.365-17.346-7.093a23.871 23.871 0 0 1-4.598-27.877c4.808-9.456 9.83-18.803 13.916-28.593l8.028-19.235 8.014 19.196c4.093 9.805 9.122 19.166 13.935 28.64a23.87 23.87 0 0 1-4.603 27.869z" fill="#b6e337"/><path d="M336.85 434.488c-4.803 4.729-11.075 7.093-17.346 7.093-2.976 0-5.95-2.365-8.23-7.093-3.685-7.645-4.382-19.143-2.091-28.245 3.187-12.66 6.012-25.697 8.628-38.908l1.693-8.553 8.014 19.196c4.093 9.805 9.122 19.166 13.935 28.64a23.871 23.871 0 0 1-4.603 27.87z" fill="#6cdc2d"/><path d="M336.85 434.488c-4.803 4.729-11.075 7.093-17.346 7.093v-82.798l8.014 19.196c4.093 9.805 9.122 19.166 13.935 28.64a23.87 23.87 0 0 1-4.603 27.869z" fill="#50ba4a"/></g><g><path d="M379.463 465.561a227.499 227.499 0 0 1-9.985 5.596l.095-3.05.732-22.99h8.502z" fill="#ec771b"/><path d="M379.463 465.561a286.75 286.75 0 0 1-4.693 2.717v-23.16h4.037z" fill="#c55732"/><path d="M374.772 445.12v22.992h-5.2l.735-22.992z" fill="#c55732"/><path d="M379.463 465.561a155.96 155.96 0 0 1-4.408 2.546h-.285v-22.99h4.037z" fill="#a44e3e"/><path d="M392.118 452.438c-4.803 4.728-11.075 7.093-17.346 7.093-6.27 0-12.542-2.365-17.346-7.093a23.871 23.871 0 0 1-4.598-27.877c4.808-9.456 9.83-18.803 13.916-28.593l8.028-19.234 8.014 19.195c4.094 9.805 9.122 19.167 13.935 28.639a23.871 23.871 0 0 1-4.603 27.87z" fill="#b6e337"/><path d="M392.118 452.438c-4.803 4.728-11.075 7.093-17.346 7.093-2.976 0-5.95-2.365-8.23-7.093-3.685-7.645-4.382-19.142-2.091-28.245 3.187-12.659 6.012-25.697 8.628-38.908l1.693-8.552 8.014 19.195c4.094 9.805 9.122 19.167 13.935 28.639a23.872 23.872 0 0 1-4.603 27.871z" fill="#6cdc2d"/><path d="M392.118 452.438c-4.803 4.728-11.075 7.093-17.346 7.093v-82.797l8.014 19.195c4.094 9.805 9.122 19.167 13.935 28.639a23.871 23.871 0 0 1-4.603 27.87z" fill="#50ba4a"/></g><path d="M350.393 480.192c-28.624 12.075-60.04 18.82-93.015 19.01h-1.377c-43.349 0-84.056-11.343-119.31-31.236 18.344-12.094 37.99-21.337 55.793-22.069 29.45-1.206 39.9 16.986 62.937 19.57.2.02.39.048.58.057 22.648 2.328 33.487-10.003 53.456-7.809 8.655.95 24.301 10.355 40.936 22.477z" fill="#6cdc2d"/><path d="M350.393 480.192c-28.624 12.075-60.04 18.82-93.015 19.01h-1.377v-33.678c22.648 2.328 33.487-10.003 53.456-7.809 8.655.95 24.301 10.355 40.936 22.477z" fill="#43af3e"/><g><path d="M125.958 386.136h-7.769l.416-13.018.512-15.992h5.913l.512 15.992z" fill="#ec771b"/><path d="M125.958 386.136h-3.736v-29.01h2.808l.512 15.992zm-3.736-29.01v15.992h-3.617l.512-15.992z" fill="#c55732"/><path d="M125.542 373.118h-3.32v-15.992h2.808z" fill="#a44e3e"/><path d="M134.288 362.216c-3.341 3.289-7.704 4.933-12.065 4.933s-8.724-1.644-12.065-4.933a16.603 16.603 0 0 1-3.199-19.39c3.345-6.578 6.837-13.078 9.68-19.888l5.584-13.379 5.575 13.352c2.847 6.82 6.345 13.332 9.692 19.92a16.603 16.603 0 0 1-3.202 19.385z" fill="#b6e337"/><path d="M134.288 362.216a17.148 17.148 0 0 1-12.065 4.933c-2.07 0-4.138-1.644-5.725-4.933-2.563-5.317-3.048-13.316-1.454-19.646 2.216-8.805 4.18-17.874 6-27.063l1.179-5.949 5.575 13.352c2.847 6.82 6.345 13.332 9.692 19.92a16.604 16.604 0 0 1-3.202 19.386z" fill="#6cdc2d"/><path d="M134.288 362.216a17.148 17.148 0 0 1-12.065 4.933v-57.59l5.575 13.351c2.847 6.82 6.345 13.332 9.692 19.921a16.604 16.604 0 0 1-3.202 19.385z" fill="#50ba4a"/></g><g><path d="M65.1 385.185h-7.768l.415-13.018.512-15.992h5.914l.511 15.992z" fill="#ec771b"/><path d="M65.1 385.185h-3.735v-29.01h2.808l.511 15.992z" fill="#c55732"/><path d="M61.365 356.175v15.992h-3.618l.512-15.992z" fill="#c55732"/><path d="M64.684 372.167h-3.319v-15.992h2.808z" fill="#a44e3e"/><path d="M73.43 361.265a17.149 17.149 0 0 1-12.066 4.933 17.148 17.148 0 0 1-12.065-4.933 16.603 16.603 0 0 1-3.199-19.39c3.345-6.578 6.838-13.078 9.68-19.888l5.584-13.379 5.575 13.352c2.847 6.82 6.345 13.332 9.692 19.921a16.6 16.6 0 0 1-3.201 19.384z" fill="#b6e337"/><path d="M73.43 361.265a17.149 17.149 0 0 1-12.066 4.933c-2.07 0-4.138-1.644-5.725-4.933-2.563-5.317-3.048-13.315-1.454-19.646 2.216-8.805 4.18-17.874 6.001-27.063l1.177-5.949 5.575 13.352c2.847 6.82 6.345 13.332 9.693 19.921a16.6 16.6 0 0 1-3.201 19.385z" fill="#6cdc2d"/><path d="M73.43 361.265a17.149 17.149 0 0 1-12.066 4.933v-57.59l5.575 13.351c2.847 6.82 6.345 13.332 9.692 19.921a16.601 16.601 0 0 1-3.201 19.385z" fill="#50ba4a"/></g><g><path d="M460.792 387.216a266.574 266.574 0 0 1-3.391 5.14 225.277 225.277 0 0 1-4.047 5.794l.209-6.726.541-16.976h6.28z" fill="#ec771b"/><path d="M460.792 387.216a266.574 266.574 0 0 1-3.391 5.14v-17.908h2.983z" fill="#c55732"/><path d="M457.403 374.45v16.974h-3.84l.544-16.973z" fill="#c55732"/><path d="M460.792 387.216a321.203 321.203 0 0 1-2.764 4.208h-.627v-16.976h2.983z" fill="#a44e3e"/><path d="M474.795 362.278a237.805 237.805 0 0 1-12.188 22.05c-1.691.513-3.449.76-5.206.76a18.235 18.235 0 0 1-12.806-5.235 17.63 17.63 0 0 1-3.392-20.577c3.553-6.982 7.258-13.88 10.27-21.109l5.928-14.202 5.918 14.174c3.021 7.239 6.736 14.145 10.289 21.137.494.97.893 1.976 1.187 3.002z" fill="#b6e337"/><path d="M474.795 362.278a237.805 237.805 0 0 1-12.188 22.05c-1.691.513-3.449.76-5.206.76-2.195 0-4.39-1.748-6.07-5.235-2.727-5.643-3.24-14.136-1.55-20.852 2.357-9.348 4.437-18.972 6.375-28.719l1.245-6.317 5.918 14.174c3.021 7.239 6.736 14.145 10.289 21.137.494.97.893 1.976 1.187 3.002z" fill="#6cdc2d"/><path d="M474.795 362.278a237.805 237.805 0 0 1-12.188 22.05c-1.691.513-3.449.76-5.206.76v-61.123l5.918 14.174c3.021 7.239 6.736 14.145 10.289 21.137.494.97.893 1.976 1.187 3.002z" fill="#50ba4a"/></g></g></svg>