<svg xmlns="http://www.w3.org/2000/svg" width="512" height="512" style="enable-background:new 0 0 512 512" xml:space="preserve"><circle r="256" cx="256" cy="256" fill="#ffdd57"/><g xmlns="http://www.w3.org/2000/svg"><path d="M499.2 256c0 7.277-.323 14.48-.946 21.594-1.893 21.501-6.576 42.197-13.712 61.728-.097.263-.2.53-.305.794a241.49 241.49 0 0 1-28.652 54.847 241.545 241.545 0 0 1-25.854 31.21 239.232 239.232 0 0 1-13.181 12.483 244.123 244.123 0 0 1-42.282 29.892 236.992 236.992 0 0 1-18.848 9.455 237.764 237.764 0 0 1-19.241 7.656 239.627 239.627 0 0 1-15.32 4.787 242.724 242.724 0 0 1-14.194 3.455 242.051 242.051 0 0 1-29.156 4.353c-7.088.623-14.262.946-21.509.946s-14.42-.323-21.509-.946a242.642 242.642 0 0 1-45.678-8.461 239.324 239.324 0 0 1-12.992-4.134 235.075 235.075 0 0 1-20.243-8.109 239.596 239.596 0 0 1-17.846-9.002 244.123 244.123 0 0 1-42.282-29.892 239.232 239.232 0 0 1-13.181-12.484 241.545 241.545 0 0 1-25.854-31.209 241.851 241.851 0 0 1-28.7-54.951c-.086-.226-.171-.464-.257-.69-7.136-19.531-11.82-40.227-13.712-61.728A247.31 247.31 0 0 1 12.8 256C12.8 121.683 121.683 12.8 256 12.8S499.2 121.683 499.2 256zm0 0" style="stroke:none;fill-rule:nonzero;fill:#35c9b8;fill-opacity:1"/><path d="M498.254 256c0 24.652-3.682 48.443-10.532 70.85C457.43 426.071 365.14 498.253 256 498.253c-98.945 0-184.048-59.33-221.654-144.36-13.248-29.928-20.6-63.052-20.6-97.894 0-43.737 11.593-84.758 31.874-120.179C87.368 208.752 165.95 257.893 256 257.893s168.64-49.14 210.38-122.072c20.28 35.421 31.874 76.442 31.874 120.179zm0 0" style="stroke:none;fill-rule:nonzero;fill:#81e2d2;fill-opacity:1"/><path d="M298.179 142.794h-14.195v-22.618c0-11.983-9.752-21.735-21.735-21.735h-12.498c-11.983 0-21.735 9.752-21.735 21.735v22.618H213.82v-22.618c0-19.809 16.117-35.93 35.93-35.93h12.498c19.813 0 35.93 16.121 35.93 35.93zm0 0" style="stroke:none;fill-rule:nonzero;fill:#2c3b56;fill-opacity:1"/><path d="M175.821 253.718v231.94a235.075 235.075 0 0 1-20.243-8.108 239.596 239.596 0 0 1-17.846-9.002 244.123 244.123 0 0 1-42.282-29.892 239.232 239.232 0 0 1-13.181-12.484v-140.44c0-17.686 14.335-32.014 32.014-32.014zm0 0M429.731 285.732v140.44a239.232 239.232 0 0 1-13.181 12.484 244.123 244.123 0 0 1-42.282 29.892 236.992 236.992 0 0 1-18.848 9.455 237.764 237.764 0 0 1-19.241 7.656V253.718h61.538c17.679 0 32.014 14.328 32.014 32.014zm0 0" style="stroke:none;fill-rule:nonzero;fill:#bd0046;fill-opacity:1"/><path d="M374.268 164.84v303.708a236.992 236.992 0 0 1-18.848 9.455 237.764 237.764 0 0 1-19.241 7.656 239.627 239.627 0 0 1-15.32 4.787 242.724 242.724 0 0 1-14.194 3.455 242.051 242.051 0 0 1-29.156 4.353c-7.088.623-14.262.946-21.509.946s-14.42-.323-21.509-.946a242.642 242.642 0 0 1-45.678-8.461 239.324 239.324 0 0 1-12.992-4.134 235.075 235.075 0 0 1-20.243-8.109 239.596 239.596 0 0 1-17.846-9.002V164.84zm0 0" style="stroke:none;fill-rule:nonzero;fill:#8e073e;fill-opacity:1"/><path d="M409.017 144.082v69.335c0 7.381-5.979 13.363-13.363 13.363H116.346c-7.384 0-13.363-5.982-13.363-13.363v-69.335c0-7.381 5.979-13.363 13.363-13.363h279.308c7.384 0 13.363 5.982 13.363 13.363zm0 0" style="stroke:none;fill-rule:nonzero;fill:#ffe955;fill-opacity:1"/><path d="M409.017 176.512v36.905c0 7.381-5.979 13.363-13.363 13.363H116.346c-7.384 0-13.363-5.982-13.363-13.363v-36.905zm0 0" style="stroke:none;fill-rule:nonzero;fill:#ffd112;fill-opacity:1"/><path d="M204.886 130.722v108.63c0 12.726-10.32 23.05-23.06 23.05a23.007 23.007 0 0 1-16.295-6.75 23 23 0 0 1-6.75-16.3v-108.63zm0 0" style="stroke:none;fill-rule:nonzero;fill:#495d75;fill-opacity:1"/><path d="M204.886 130.722v108.63c0 12.726-10.32 23.05-23.06 23.05v-131.68zm0 0" style="stroke:none;fill-rule:nonzero;fill:#2c3b56;fill-opacity:1"/><path d="M354.555 130.722v108.63c0 12.726-10.32 23.05-23.045 23.05-6.368 0-12.13-2.587-16.31-6.75a23 23 0 0 1-6.75-16.3v-108.63zm0 0" style="stroke:none;fill-rule:nonzero;fill:#495d75;fill-opacity:1"/><path d="M354.555 130.722v108.63c0 12.726-10.32 23.05-23.045 23.05v-131.68zm0 0" style="stroke:none;fill-rule:nonzero;fill:#2c3b56;fill-opacity:1"/><path d="M191.519 240.017c0 6.09-4.936 11.025-11.025 11.025-6.09 0-11.026-4.935-11.026-11.025 0-6.09 4.936-11.025 11.026-11.025s11.025 4.935 11.025 11.025zm0 0M342.532 240.017c0 6.09-4.936 11.025-11.026 11.025s-11.025-4.935-11.025-11.025c0-6.09 4.936-11.025 11.025-11.025 6.09 0 11.026 4.935 11.026 11.025zm0 0" style="stroke:none;fill-rule:nonzero;fill:#ffe955;fill-opacity:1"/><path d="M355.42 366.887v111.116a237.764 237.764 0 0 1-19.241 7.656 239.627 239.627 0 0 1-15.32 4.787 242.724 242.724 0 0 1-14.194 3.455 242.051 242.051 0 0 1-29.156 4.353c-7.088.623-14.262.946-21.509.946s-14.42-.323-21.509-.946a242.642 242.642 0 0 1-45.678-8.461 239.324 239.324 0 0 1-12.992-4.134 235.075 235.075 0 0 1-20.243-8.109V366.887c0-20.117 7.675-38.446 20.243-52.225 14.173-15.53 34.575-25.267 57.25-25.267h44.853c23.223 0 44.053 10.212 58.255 26.392 11.971 13.645 19.24 31.52 19.24 51.1zm0 0" style="stroke:none;fill-rule:nonzero;fill:#f2005b;fill-opacity:1"/><path d="M355.42 366.887v111.116a237.764 237.764 0 0 1-19.241 7.656 239.627 239.627 0 0 1-15.32 4.787 242.724 242.724 0 0 1-14.194 3.455 242.051 242.051 0 0 1-29.156 4.353c-7.088.623-14.262.946-21.509.946V289.395h21.924c23.223 0 44.053 10.212 58.255 26.392 11.971 13.645 19.24 31.52 19.24 51.1zm0 0" style="stroke:none;fill-rule:nonzero;fill:#bd0046;fill-opacity:1"/><path d="M320.86 364.72v125.726a242.724 242.724 0 0 1-14.195 3.455V364.719c0-19.17-15.597-34.764-34.767-34.764h-34.122c-19.175 0-34.768 15.594-34.768 34.764V493.4a236.113 236.113 0 0 1-8.944-2.166c-1.759-.464-3.51-.94-5.25-1.44V364.719c0-13.67 5.629-26.05 14.695-34.946 8.84-8.668 20.933-14.016 34.267-14.016h34.122c26.997 0 48.962 21.965 48.962 48.962zm0 0" style="stroke:none;fill-rule:nonzero;fill:#1f2b3d;fill-opacity:1"/></g></svg>