<svg xmlns="http://www.w3.org/2000/svg" width="512" height="512" style="enable-background:new 0 0 512 512" xml:space="preserve"><circle r="256" cx="256" cy="256" fill="#48c774"/><g xmlns="http://www.w3.org/2000/svg"><path d="M499.2 256c0 134.318-108.882 243.2-243.2 243.2S12.8 390.318 12.8 256 121.682 12.8 256 12.8 499.2 121.682 499.2 256zm0 0" fill="#c798e9"/><path d="M499.2 256c0 24.748-3.696 48.631-10.573 71.127a241.844 241.844 0 0 1-18.762 44.754c-7.838 14.44-140.021 18.934-213.865 18.934s-206.027-4.494-213.854-18.934a234.356 234.356 0 0 1-8.664-17.604C20.182 324.229 12.8 290.979 12.8 256c0-43.908 11.638-85.091 31.996-120.65C86.711 208.567 165.598 257.9 256 257.9s169.3-49.333 211.204-122.55C487.562 170.909 499.2 212.092 499.2 256zm0 0" fill="#ab65dd"/><path d="M469.999 371.614a243.446 243.446 0 0 1-23.487 35.559 243.393 243.393 0 0 1-26.333 28.236C376.917 475.023 319.279 499.2 256 499.2s-120.917-24.177-164.179-63.79a243.393 243.393 0 0 1-26.333-28.237 243.446 243.446 0 0 1-23.487-35.559zm0 0" fill="#5b3fbc"/><g><path d="M277.391 134.116H256l-14.261 21.391v322.3L256 499.2c7.21 0 14.341-.332 21.391-.947z" fill="#f75e1a"/><path d="M234.608 134.116v364.137c7.05.615 14.182.947 21.392.947V134.116z" fill="#fe9c1b"/><path d="M396.676 294.553h-53.478l-42.784 48.132 42.784 48.13h53.478z" fill="#e02a73"/><path d="M256 294.553l-42.783 48.132L256 390.815h87.198v-96.262z" fill="#ffdf66"/><path d="M121.59 294.553l-48.132 48.132 48.131 48.13H256v-96.262z" fill="#fff5b2"/><path d="M121.59 294.553l-48.132 48.132 48.131 48.13h47.214v-96.262z" fill="#fef6eb"/><path d="M115.323 176.9v96.262h53.48l42.783-48.132-42.783-48.13z" fill="#84ed48"/><path d="M390.41 176.9H256l-42.783 48.13L256 273.162h134.41l48.132-48.132z" fill="#ffdf66"/><path d="M168.803 176.9h87.198v96.262h-87.198z" fill="#fff5b2"/></g></g></svg>