<svg xmlns="http://www.w3.org/2000/svg" width="512" height="512" style="enable-background:new 0 0 512 512" xml:space="preserve"><circle r="256" cx="256" cy="256" fill="#3e8ed0"/><g xmlns="http://www.w3.org/2000/svg"><path d="M499.2 256c0 24.748-3.696 48.632-10.572 71.128-24.56 80.445-89.709 143.182-171.59 164.35a235.552 235.552 0 0 1-11.352 2.638c-16.035 3.336-32.66 5.084-49.686 5.084-.998 0-1.985-.011-2.984-.019a243.688 243.688 0 0 1-46.702-5.065 245.225 245.225 0 0 1-10.439-2.412h-.01c-72.817-18.525-132.515-69.9-162.384-137.427C20.181 324.229 12.8 290.979 12.8 256 12.8 121.69 121.69 12.8 256 12.8S499.2 121.69 499.2 256zm0 0" style="stroke:none;fill-rule:nonzero;fill:#35c9b8;fill-opacity:1"/><path d="M499.2 256c0 24.748-3.696 48.632-10.572 71.128C458.216 426.733 365.562 499.2 256 499.2c-99.33 0-184.764-59.564-222.519-144.923C20.181 324.229 12.8 290.979 12.8 256c0-43.908 11.638-85.092 31.996-120.65C86.71 208.567 165.598 257.9 256 257.9s169.3-49.333 211.204-122.55C487.562 170.908 499.2 212.092 499.2 256zm0 0" style="stroke:none;fill-rule:nonzero;fill:#81e2d2;fill-opacity:1"/><path d="M305.686 494.116a242.817 242.817 0 0 1-48.395 5.073c-.426.011-.864.011-1.291.011-.998 0-1.985-.011-2.984-.019a249.267 249.267 0 0 1-15.875-.705 208.74 208.74 0 0 1-7.047-.645 239.26 239.26 0 0 1-23.78-3.715l4.617-78.03 15.704-265.525h58.73l15.704 265.525zm0 0" style="stroke:none;fill-rule:nonzero;fill:#c55835;fill-opacity:1"/><path d="M226.635 150.561l-15.704 265.525-4.617 78.03a239.26 239.26 0 0 0 23.78 3.715l13.166-347.27zm0 0" style="stroke:none;fill-rule:nonzero;fill:#ea824e;fill-opacity:1"/><path d="M305.686 494.116a242.817 242.817 0 0 1-48.395 5.073V150.56h28.074l15.704 265.525zm0 0" style="stroke:none;fill-rule:nonzero;fill:#7a2d1a;fill-opacity:1"/><path d="M449.8 281.687l-31.406 37.098-12.068 14.25-27.984 33.061H102.71V197.271h275.633l31.673 37.41 12.053 14.25zm0 0" style="stroke:none;fill-rule:nonzero;fill:#7a2d1a;fill-opacity:1"/><path d="M449.8 281.687H102.709v-84.416h275.633l31.673 37.41 4.234 5.006 2.227 2.634 5.592 6.61zm0 0" style="stroke:none;fill-rule:nonzero;fill:#c55835;fill-opacity:1"/><path d="M416.476 242.321H102.709v-45.05h275.633l31.673 37.41 4.234 5.006zm0 0" style="stroke:none;fill-rule:nonzero;fill:#ea824e;fill-opacity:1"/><path d="M170.604 159.616c0-.063.004-.123.004-.186 0-11.27-9.43-20.41-21.06-20.41-2.765 0-5.4.52-7.819 1.459-4.668-8.109-13.604-13.594-23.869-13.594-13.326 0-24.418 9.248-26.83 21.483-.716-.1-1.45-.156-2.2-.156-7.244 0-13.315 4.861-14.94 11.4h96.714zm0 0M308.821 78.395c0-.064.004-.123.004-.186 0-11.27-9.43-20.41-21.06-20.41-2.764 0-5.399.52-7.818 1.458-4.669-8.108-13.605-13.593-23.87-13.593-13.325 0-24.417 9.248-26.83 21.483-.715-.1-1.45-.152-2.2-.152-7.243 0-13.315 4.857-14.936 11.4zm0 0M438.49 165.316c0-.063.003-.123.003-.186 0-11.27-9.43-20.41-21.06-20.41-2.764 0-5.4.52-7.819 1.459-4.668-8.109-13.604-13.594-23.868-13.594-13.326 0-24.418 9.248-26.827 21.483-.72-.1-1.455-.156-2.2-.156-7.248 0-13.315 4.861-14.94 11.4h96.71zm0 0" style="stroke:none;fill-rule:nonzero;fill:#fff;fill-opacity:1"/></g></svg>