<svg xmlns="http://www.w3.org/2000/svg" width="512" height="512" style="enable-background:new 0 0 512 512" xml:space="preserve"><circle r="256" cx="256" cy="256" fill="#48c774"/><g xmlns="http://www.w3.org/2000/svg"><path d="M499.203 256.003c0 31.473-5.978 61.559-16.872 89.161l-2.055 1.399c-135.331 92.105-313.216 92.106-448.547.001l-1.82-1.238C18 315.443 11.87 282.683 12.914 248.452c4-131.039 111.636-235.984 243.718-235.65 134.3.34 242.572 108.901 242.57 243.2z" fill="#464d7f"/><path d="M499.203 256.002c0 31.474-5.978 61.56-16.872 89.163-136.57 92.949-316.085 92.949-452.656 0-10.894-27.603-16.872-57.689-16.872-89.163 0-43.908 11.633-85.09 31.991-120.647 41.922 73.213 120.81 122.553 211.209 122.553s169.297-49.34 211.209-122.553c20.358 35.557 31.99 76.739 31.99 120.647z" fill="#3b407a"/></g><path d="M482.33 345.165a242.632 242.632 0 0 1-30.551 55.146L256.003 499.2 60.227 400.31a242.596 242.596 0 0 1-30.552-55.146h119.607l15.034 4.078 22.817-4.078h137.289l21.457 6.65 17.081-6.65h119.37z" fill="#c8b2a7"/><path d="M482.33 345.165a242.632 242.632 0 0 1-30.551 55.146L256.003 499.2V345.166z" fill="#b79c91"/><path d="M437.856 417.487a244.493 244.493 0 0 1-43.148 38.314c-29.782 20.703-64.398 34.93-101.83 40.615-12.018 1.834-24.34 2.786-36.875 2.786s-24.857-.953-36.875-2.786c-37.433-5.685-72.048-19.912-101.83-40.615A244.706 244.706 0 0 1 81.77 425.68c-2.602-2.672 2.876-5.403.398-8.192h355.688z" fill="#a0e557"/><path d="M427.93 417.487c-2.512 2.827 4.838 5.594 2.2 8.3a244.666 244.666 0 0 1-35.421 30.014c-39.348 27.36-87.147 43.4-138.705 43.4v-81.714z" fill="#80cb4f"/><path d="M451.779 400.31a242.31 242.31 0 0 1-21.574 25.394H81.801a241.985 241.985 0 0 1-21.573-25.394z" fill="#fff"/><path d="M451.779 400.31a242.31 242.31 0 0 1-21.574 25.394H256.003V400.31z" fill="#dfebff"/><path d="M362.814 299.482v29.42c0 8.977-7.282 16.258-16.264 16.258H165.45c-8.982 0-16.263-7.281-16.263-16.258v-29.42c0-8.976 7.282-16.258 16.263-16.258H346.55c8.982.001 16.263 7.283 16.263 16.258z" fill="#5989ff"/><path d="M362.814 299.482v29.42c0 8.977-7.282 16.258-16.264 16.258h-90.548v-61.936h90.548c8.983.001 16.264 7.283 16.264 16.258z" fill="#3d77ea"/><path d="M390.653 87.93v206.609c0 10.855-8.807 19.654-19.655 19.654h-229.99c-10.856 0-19.655-8.799-19.655-19.654V88.117c0-17.761 14.399-32.209 32.16-32.209h204.979c17.762 0 32.161 14.26 32.161 32.022z" fill="#fff"/><path d="M390.653 88.025v206.514c0 10.855-8.807 19.654-19.655 19.654H256.003V55.908h102.49c17.76 0 32.16 14.356 32.16 32.117z" fill="#dfebff"/><path d="M256.003 50.208v38.28h-134.65V82.37c0-17.76 14.399-32.16 32.16-32.16h102.49z" fill="#5989ff"/><path d="M390.653 82.37v6.118h-134.65v-38.28h102.49c17.76 0 32.16 14.4 32.16 32.161z" fill="#3d77ea"/><path d="M390.65 271.626v22.91c0 10.854-8.802 19.654-19.654 19.654h-229.99c-10.853 0-19.65-8.8-19.65-19.653v-22.911z" fill="#b5d6ff"/><path d="M147.976 108.461H364.03v82.593H147.976z" fill="#3b407a"/><g transform="matrix(.95 0 0 .95 12.8 12.8)"><circle cx="177.086" cy="230.021" fill="#fed110" r="26.607"/><circle cx="334.914" cy="230.021" fill="#f4b311" r="26.607"/></g><path d="M390.65 271.626v22.91c0 10.854-8.802 19.654-19.654 19.654H256.003v-42.565h134.646z" fill="#9bc6f9"/><path d="M256.003 108.461H364.03v82.593H256.003z" fill="#2f316e"/><path d="M181.032 206.042v50.554c13.96 0 25.276-11.318 25.276-25.277.001-13.96-11.316-25.277-25.276-25.277z" fill="#f4b311"/><path d="M330.968 206.042v50.554c13.96 0 25.277-11.318 25.277-25.277 0-13.96-11.316-25.277-25.277-25.277z" fill="#f29814"/><path d="M127.348 400.31H88.765l60.048-55.149h38.584z" fill="#5a4f5b"/><path d="M384.262 400.31h38.585l-60.05-55.149h-38.583z" fill="#4e444f"/></svg>