<svg xmlns="http://www.w3.org/2000/svg" width="512" height="512" style="enable-background:new 0 0 512 512" xml:space="preserve"><circle r="256" cx="256" cy="256" fill="#ffdd57"/><g xmlns="http://www.w3.org/2000/svg"><path d="M499.2 256c0 134.318-108.882 243.2-243.2 243.2S12.8 390.318 12.8 256 121.682 12.8 256 12.8 499.2 121.682 499.2 256zm0 0" fill="#84ed48"/><path d="M499.2 256c0 24.748-3.696 48.631-10.573 71.127a241.844 241.844 0 0 1-18.762 44.754c-7.838 14.44-140.021 34.62-213.865 34.62S49.973 386.32 42.146 371.88a234.356 234.356 0 0 1-8.664-17.604C20.182 324.229 12.8 290.979 12.8 256c0-43.908 11.638-85.091 31.996-120.65C86.711 208.567 165.598 257.9 256 257.9s169.3-49.333 211.204-122.55C487.562 170.909 499.2 212.092 499.2 256zm0 0" fill="#23d089"/><path d="M469.999 371.614a243.446 243.446 0 0 1-23.487 35.559 243.393 243.393 0 0 1-26.333 28.236C376.917 475.023 319.279 499.2 256 499.2s-120.917-24.177-164.179-63.79a243.393 243.393 0 0 1-26.333-28.237 243.446 243.446 0 0 1-23.487-35.559zm0 0" fill="#009f8b"/></g><g fill="#22273b"><path d="M255.299 477.38l-21.82 10.91 21.802 10.9c.24.001.479.01.719.01 35.961 0 70.095-7.813 100.808-21.821h-101.51zM350.849 393.89l-16.538 14.235 22.047 25.613h-101.06l-21.82 10.91 21.82 10.91H375.14l7.158 8.315a243.832 243.832 0 0 0 18.228-12.27z"/></g><g fill="#383838"><path d="M255.299 499.191V477.38H155.192c30.513 13.918 64.404 21.71 100.107 21.812zM176.286 408.126l-16.537-14.234-49.136 57.085a243.991 243.991 0 0 0 18.178 12.33l6.667-7.746h119.84v-21.82H154.24z"/></g><path d="M393.552 357.368l-50.972-21.82 47.356-21.821-12.174-146.89c-.908-10.944-5.856-21.066-13.935-28.504S345.252 126.8 334.27 126.8h-2.6l-152.743 99.646L255.3 411.92h142.774z" fill="#fe9c1b"/><path d="M178.927 126.8h-2.6a43.532 43.532 0 0 0-29.557 11.533 43.53 43.53 0 0 0-13.935 28.504l-12.172 146.89 47.355 21.821-50.972 21.82-4.52 54.552h142.773V181.35z" fill="#ffdf66"/><path d="M222.569 126.8h-2.6a43.532 43.532 0 0 0-29.558 11.533 43.53 43.53 0 0 0-13.935 28.504l-12.173 146.89 47.355 21.821-50.972 21.82-4.52 54.552h99.132V181.35z" fill="#fec21b"/><path d="M298.94 335.547c0 12.051 9.768 21.82 21.82 21.82h72.791l-3.616-43.64H320.76c-12.051 0-21.82 9.77-21.82 21.82z" fill="#ffdf66"/><path d="M211.658 335.547c0-12.05-9.769-21.82-21.82-21.82h-69.175l-3.617 43.64h72.792c12.051 0 21.82-9.768 21.82-21.82z" fill="#fff5b2"/><path d="M164.303 313.728h-43.64l-3.617 43.64h43.64z" fill="#fff"/><path d="M331.67 181.35V126.8H255.3l-43.641 98.191z" fill="#1d6b87"/><path d="M255.299 224.991V126.8h-76.372v54.55z" fill="#0093b2"/><path d="M217.114 224.991V126.8h-38.187v54.55z" fill="#4db5ca"/><path d="M255.299 291.907h76.371V181.351H255.3l-43.641 56.184z" fill="#22273b"/><path d="M178.927 181.35H255.3v110.557h-76.372z" fill="#024c60"/><path d="M178.927 181.35h38.186v110.557h-38.186z" fill="#1d6b87"/></svg>