<svg xmlns="http://www.w3.org/2000/svg" width="512" height="512" style="enable-background:new 0 0 512 512" xml:space="preserve"><circle r="256" cx="256" cy="256" fill="#3e8ed0"/><g xmlns="http://www.w3.org/2000/svg"><path d="M499.2 256c0 134.318-108.882 214.685-243.2 214.685S12.8 390.318 12.8 256 121.682 12.8 256 12.8 499.2 121.682 499.2 256zm0 0" fill="#ffdf66" data-original="#ffdf66"/><path d="M499.2 256c0 24.748-3.696 48.631-10.573 71.127a241.844 241.844 0 0 1-18.762 44.754c-7.838 14.44-140.021 31.665-213.865 31.665S49.973 386.321 42.146 371.881a234.356 234.356 0 0 1-8.664-17.604C20.182 324.229 12.8 290.979 12.8 256c0-43.908 11.638-85.091 31.996-120.65C86.711 208.567 165.598 257.9 256 257.9s169.3-49.333 211.204-122.55C487.562 170.909 499.2 212.092 499.2 256zm0 0" fill="#fec21b" data-original="#fec21b"/><path d="M469.999 371.614a243.446 243.446 0 0 1-23.487 35.559 242.059 242.059 0 0 1-15.8 18c-3.408 3.517-56.508 12.461-56.508 12.461s-23.221 22.595-46.276 50.75C305.197 495.414 281.04 499.2 256 499.2c-25.556 0-50.192-3.943-73.332-11.255-19.895-24.66-41.005-52.538-41.005-52.538s-57.927-7.654-61.767-11.683a242.324 242.324 0 0 1-14.408-16.551A243.446 243.446 0 0 1 42 371.614zm0 0" fill="#eb8e2a" data-original="#eb8e2a"/><g><g fill="#33d3f1"><path d="M430.705 365.005v-82.222H255.299l-41.111 41.112 41.11 41.11zM430.705 396.524H255.299l-41.111 41.111 41.11 41.111h98.437c29.08-12.777 55.178-31.077 76.97-53.579zM430.705 251.539v-82.222H255.299l-41.111 41.111 41.11 41.11z" data-original="#33d3f1"/></g><path d="M79.892 169.317h175.407v82.222H79.892z" fill="#71edff" data-original="#71edff"/><path d="M79.892 169.317h61.77v82.222h-61.77z" fill="#d6fcfb" data-original="#d6fcfb"/><path d="M79.892 282.783h175.407v82.222H79.892z" fill="#71edff" data-original="#71edff"/><path d="M79.892 282.783h61.77v82.222h-61.77z" fill="#d6fcfb" data-original="#d6fcfb"/><path d="M79.892 423.727c22.07 23.166 48.671 41.967 78.372 55.019h97.034v-82.222H79.892z" fill="#71edff" data-original="#71edff"/><path d="M79.892 423.727a244.099 244.099 0 0 0 61.77 46.958v-74.161h-61.77z" fill="#d6fcfb" data-original="#d6fcfb"/><path d="M121.003 458.31a242.147 242.147 0 0 0 61.667 29.628v-339.45h-61.667z" fill="#5a637b" data-original="#5a637b"/><path d="M121.003 458.31a242.857 242.857 0 0 0 30.833 17.503V148.488h-30.833z" fill="#878eac" data-original="#878eac"/><path d="M327.928 488.383c22.066-6.822 42.78-16.71 61.667-29.15V148.488h-61.667z" fill="#4e5262" data-original="#4e5262"/></g></g></svg>