<svg xmlns="http://www.w3.org/2000/svg" width="512" height="512" style="enable-background:new 0 0 512 512" xml:space="preserve"><circle r="256" cx="256" cy="256" fill="#3e8ed0"/><g xmlns="http://www.w3.org/2000/svg"><path d="M256 305.77c-134.318 0-232.748-130.559-214.326-164.81C82.711 64.665 163.298 12.8 256 12.8c92.344 0 172.664 51.464 213.848 127.275C488.567 174.535 390.318 305.77 256 305.77z" fill="#ffdf66" data-original="#ffdf66"/><path d="M499.2 256c0 24.748-3.696 48.631-10.573 71.127a241.844 241.844 0 0 1-18.762 44.754c-7.838 14.44-140.021 49.254-213.865 49.254S49.973 386.32 42.146 371.88a234.356 234.356 0 0 1-8.664-17.604C20.182 324.229 12.8 290.979 12.8 256c0-43.908 11.638-85.091 31.996-120.65C86.711 208.567 165.598 257.9 256 257.9s169.3-49.333 211.204-122.55C487.563 170.909 499.2 212.092 499.2 256zm0 0" fill="#fec21b" data-original="#fec21b"/><g><path d="M256 98.094l-24.5 49 24.5 49.002c27.063 0 49.001-21.938 49.001-49.001S283.063 98.094 256 98.094z" fill="#fe9c1b" data-original="#fe9c1b"/><path d="M206.999 147.095c0 27.063 21.938 49 49.001 49V98.095c-27.063 0-49.001 21.938-49.001 49z" fill="#febd67" data-original="#febd67"/><path d="M206.999 147.095c0 27.063 21.938 49 49.001 49-41.833-20.225-50.468-71.406 0-98.001-27.063 0-49.001 21.938-49.001 49z" fill="#fff5b2" data-original="#fff5b2"/><path d="M340.351 319.999h21.001v63h-21z" fill="#fd3d3c" data-original="#fd3d3c"/><path d="M413.594 267.586h21.61l-84.352-144.642L266.5 267.586h21.61l-21.61 37.057h21.61l-21.61 37.056h168.703l-21.61-37.056h21.61z" fill="#1d6b87" data-original="#1d6b87"/><path d="M150.648 319.999h21v63h-21z" fill="#f75e1a" data-original="#f75e1a"/><path d="M223.89 267.586h21.61l-84.352-144.642-84.351 144.642h21.61l-21.61 37.057h21.61l-21.61 37.056H245.5l-21.61-37.056h21.61z" fill="#009f8b" data-original="#009f8b"/><path d="M161.09 341.699V123.046l-84.293 144.54h21.61l-21.61 37.057h21.61l-21.61 37.056zM470.326 371.018H301.125V470.7l45.202 11.16c53.184-21.287 97.093-60.81 123.999-110.842z" fill="#23d089" data-original="#23d089"/><path d="M165.673 481.86l45.202-11.16v-99.682h-169.2c26.905 50.032 70.814 89.555 123.998 110.843z" fill="#84ed48" data-original="#84ed48"/><path d="M301.125 371.018H256l-57 64.057 57 64.125c46.911 0 90.71-13.294 127.86-36.302z" fill="#fe9c1b" data-original="#fe9c1b"/><path d="M210.875 371.018l-82.735 91.88C165.29 485.906 209.089 499.2 256 499.2V371.018z" fill="#febd67" data-original="#febd67"/></g></g></svg>