<svg xmlns="http://www.w3.org/2000/svg" width="512" height="512" style="enable-background:new 0 0 512 512" xml:space="preserve"><circle r="256" cx="256" cy="256" fill="#48c774"/><g xmlns="http://www.w3.org/2000/svg"><path d="M256 289.25c-134.318 0-231.976-116.88-212.288-152C85.341 62.988 164.81 12.8 256 12.8c90.872 0 170.103 49.838 211.85 123.672 19.959 35.3-77.532 152.778-211.85 152.778z" fill="#abecfe"/><path d="M499.2 256c0 24.748-3.696 48.631-10.573 71.127a241.844 241.844 0 0 1-18.762 44.754C462.027 386.321 329.844 424.15 256 424.15S49.973 386.321 42.146 371.881a234.356 234.356 0 0 1-8.664-17.604C20.182 324.229 12.8 290.979 12.8 256c0-43.908 11.638-85.091 31.996-120.65C86.711 208.567 165.598 257.9 256 257.9s169.3-49.333 211.204-122.55C487.562 170.909 499.2 212.092 499.2 256z" fill="#70c5e9"/><path d="M469.999 371.614a243.446 243.446 0 0 1-23.487 35.559A242.067 242.067 0 0 1 433.5 422.25c-4.27 4.555-43.694 2.436-48.299 6.65-14.309 13.102 4.788 31.025-12.35 40.434C338.172 488.372 298.35 499.2 256 499.2c-42.04 0-81.59-10.67-116.09-29.45-17.429-9.488-.49-27.554-15.01-40.85-4.605-4.214-42.128-2.095-46.398-6.65a242.082 242.082 0 0 1-13.014-15.077A243.446 243.446 0 0 1 42 371.614z" fill="#355dd7"/><g><path d="M433.806 396.821c0-40.208-33.415-72.928-73.623-72.928h-31.95l-10.417 20.837-10.418-20.836c-7.725 0-15.044-1.593-21.88-4.165l-21.35 16.14 3.393-26.718a62.686 62.686 0 0 1-8.278-8.352l-26.635 3.346 16.24-21.407c-2.452-6.692-4.001-13.823-4.001-21.354l-20.836-10.419 20.836-10.419v-62.51h-72.929L99.03 271.801c-7.885 17.253-13.34 34.41-16.774 52.092l79.284 93.765h71.514c30.715 13.827 63.466 20.837 97.377 20.837h78.809l14.007-5.94c3.63-3.44 7.146-6.996 10.559-10.652z" fill="#e2a976"/><path d="M130.73 231.046l-31.7 40.755c-7.884 17.253-13.338 34.41-16.773 52.092l48.472 57.326z" fill="#ecbea6"/><path d="M433.806 396.821c0-40.208-33.415-72.928-73.623-72.928h-31.95l-10.417 20.837-10.418-20.836c-7.725 0-15.044-1.593-21.88-4.165l-21.35 16.14 3.393-26.718a62.686 62.686 0 0 1-8.278-8.352l-26.635 3.346 16.24-21.407c-2.452-6.692-4.001-13.823-4.001-21.354l-20.836-10.419 20.836-10.419v-62.51h-72.929v239.622h61.096c30.715 13.827 63.466 20.837 97.377 20.837h78.809l14.007-5.94c3.63-3.44 7.146-6.996 10.559-10.652z" fill="#d18059"/><path d="M119.867 198.874h-10.419c-17.235 0-31.255-14.02-31.255-31.255V157.2H99.03v10.419c0 5.748 4.67 10.418 10.418 10.418h10.419z" fill="#5e464f"/><path d="M246.118 346.287l18.05 10.419 21.35-36.977c-6.627-2.495-12.617-6.116-17.958-10.577zM222.23 322.194l37.052-21.395c-4.414-5.378-7.957-11.41-10.394-18.061l-37.077 21.407z" fill="#3e2d3f"/><path d="M88.642 323.894h-6.386c-2.503 12.891-4.063 26.027-4.063 39.862v43.484l32.242 10.419h51.105v-20.867c0-40.2-32.7-72.898-72.898-72.898z" fill="#d18059"/><path d="M130.73 337.325c-11.899-8.446-26.417-13.431-42.088-13.431h-6.386c-2.503 12.891-4.063 26.027-4.063 39.862v43.484l32.242 10.418h20.294z" fill="#e2a976"/><path d="M203.214 240.546h41.674v20.837h-41.674zM307.397 323.894h20.836v41.673h-20.836z" fill="#3e2d3f"/><path d="M171.96 219.71v-41.674H99.03v93.765h20.837c28.722 0 52.092-23.37 52.092-52.091z" fill="#5e464f"/><path d="M130.73 178.036h-31.7v93.765h20.837c3.725 0 7.357-.4 10.862-1.147z" fill="#844b44"/><path d="M330.432 428.076c-33.91 0-66.662-7.01-97.377-20.836H78.194v14.663c17.798 19.067 38.616 35.278 61.707 47.847h84.15v-21.08c33.808 13.999 69.52 21.08 106.38 21.08H372.1a244.021 244.021 0 0 0 55.76-41.674z" fill="#5e464f"/><path d="M78.194 421.903a244.286 244.286 0 0 0 52.535 42.584V407.24H78.194z" fill="#844b44"/><path d="M330.432 428.076c-33.91 0-66.662-7.01-97.377-20.836h-61.096v62.51h52.092v-21.08c33.808 13.999 69.52 21.08 106.38 21.08H372.1a244.021 244.021 0 0 0 55.76-41.674z" fill="#3e2d3f"/></g><g fill="#fff"><path d="M332.95 165.513h-1.448c-6.416 0-11.614-5.204-11.614-11.616v-1.447h-8.28v1.447c0 6.412-5.203 11.616-11.615 11.616h-1.451v8.279h1.45c6.413 0 11.616 5.198 11.616 11.614v1.452h8.28v-1.452c0-6.416 5.198-11.614 11.614-11.614h1.448zM182.85 109.254h-1.448c-6.416 0-11.614-5.203-11.614-11.615v-1.447h-8.28v1.447c0 6.412-5.203 11.615-11.615 11.615h-1.451v8.28h1.45c6.413 0 11.616 5.198 11.616 11.614v1.452h8.28v-1.452c0-6.416 5.198-11.614 11.614-11.614h1.448zM432.7 178.813h-1.448c-6.416 0-11.614-5.204-11.614-11.616v-1.447h-8.28v1.447c0 6.412-5.203 11.616-11.615 11.616h-1.451v8.279h1.45c6.413 0 11.616 5.198 11.616 11.614v1.452h8.28v-1.452c0-6.416 5.198-11.614 11.614-11.614h1.448zM290.2 64.813h-1.448c-6.416 0-11.614-5.204-11.614-11.616V51.75h-8.28v1.447c0 6.412-5.203 11.615-11.615 11.615h-1.451v8.28h1.45c6.413 0 11.616 5.198 11.616 11.614v1.452h8.28v-1.452c0-6.416 5.198-11.614 11.614-11.614h1.448zM454.758 284.054h-1.448c-6.416 0-11.614-5.203-11.614-11.615v-1.447h-8.28v1.447c0 6.412-5.203 11.615-11.615 11.615h-1.451v8.28h1.45c6.413 0 11.616 5.198 11.616 11.614v1.452h8.28v-1.452c0-6.416 5.198-11.614 11.614-11.614h1.448z"/></g></g></svg>