<svg xmlns="http://www.w3.org/2000/svg" width="512" height="512" style="enable-background:new 0 0 512 512" xml:space="preserve"><circle r="256" cx="256" cy="256" fill="#ffdd57"/><g xmlns="http://www.w3.org/2000/svg"><path d="M256 296.974c-134.318 0-232.03-124.405-212.433-159.465C85.157 63.104 164.702 12.8 256 12.8c91.015 0 170.35 49.994 212.046 124.018 19.837 35.22-77.728 160.156-212.046 160.156zM499.2 256" fill="#abecfe"/><path d="M499.2 256c0 24.748-3.696 48.631-10.573 71.127a241.844 241.844 0 0 1-18.762 44.754c-7.838 14.44-140.021 38.374-213.865 38.374S49.973 386.321 42.146 371.881a234.356 234.356 0 0 1-8.664-17.604C20.182 324.229 12.8 290.979 12.8 256c0-43.908 11.638-85.091 31.996-120.65C86.711 208.567 165.598 257.9 256 257.9s169.3-49.333 211.204-122.55C487.562 170.909 499.2 212.092 499.2 256zm0 0" fill="#70c5e9"/><path d="M469.999 371.614a243.446 243.446 0 0 1-23.487 35.559 243.393 243.393 0 0 1-26.333 28.236c-24.839 22.744-54.415 40.4-87.078 51.312-24.228 8.094-129.657 8.148-153.757.148-32.84-10.9-62.572-28.612-87.523-51.46a243.393 243.393 0 0 1-26.333-28.236 243.446 243.446 0 0 1-23.487-35.559zm0 0" fill="#355dd7"/><g><path d="M193.757 336.798C99.458 317.218 65.26 267.548 65.26 230.974c0-48.688 30.997-70.865 59.799-70.865 29.62 0 52.707 20.857 52.707 48.514 0 24.655-20.05 44.704-44.705 44.704-11.94 0-23.904-4.65-32.352-13.097l15.803-15.803c4.224 4.223 10.579 6.548 16.55 6.548 12.322 0 22.352-10.03 22.352-22.352 0-17.18-15.643-26.162-30.355-26.162-17.277 0-37.447 12.705-37.447 48.514 0 30.418 34.743 68.159 110.684 83.93z" fill="#efc142"/><path d="M318.243 336.798l-4.54-21.894c75.941-15.771 110.684-53.513 110.684-83.93 0-16.272-4.28-29.37-12.388-37.883-6.526-6.854-15.42-10.63-25.059-10.63-14.712 0-30.355 8.982-30.355 26.16 0 12.323 10.03 22.353 22.353 22.353 5.97 0 12.325-2.324 16.549-6.548l15.803 15.803c-8.448 8.447-20.413 13.097-32.352 13.097-24.656 0-44.705-20.049-44.705-44.704 0-27.657 23.087-48.514 52.708-48.514 28.802 0 59.799 22.178 59.799 70.865-.002 36.574-34.198 86.244-128.497 105.825z" fill="#e89a39"/><path d="M256 141.565H155.415v89.408c0 64.504 28.389 98.55 67.057 149.055v74.468h67.056v-74.468c38.944-50.999 67.057-84.096 67.057-149.055v-89.408z" fill="#fcf4c2"/><path d="M257.118 141.565h-52.784v89.408c0 64.504 14.734 98.55 34.803 149.055v74.468h17.981z" fill="#f7de82"/><path d="M289.528 380.028c38.944-50.999 67.057-84.096 67.057-149.055v-89.408H256v312.93h33.528z" fill="#efc142"/><path d="M219.765 292.028L256 275.688l36.235 16.34-4.333-39.51 26.73-29.424-38.921-8.087-19.711-34.5-19.71 34.5-38.921 8.087 26.73 29.424z" fill="#efc142"/><path d="M308.76 432.143H203.24l-24.267 54.596C203.18 494.816 229.077 499.2 256 499.2s52.819-4.384 77.027-12.461z" fill="#f7de82"/><path d="M308.76 432.143h-70.581l-27.891 62.749A244.407 244.407 0 0 0 256 499.2c26.923 0 52.819-4.384 77.027-12.461z" fill="#efc142"/><g fill="#e89a39"><path d="M287.902 252.518l26.73-29.424-38.921-8.087-19.711-34.5v95.182l36.235 16.339zM308.76 432.143H256V499.2c26.923 0 52.819-4.384 77.027-12.461z"/></g></g><g fill="#fff"><path d="M273.204 57.14h-1.448c-6.417 0-11.615-5.204-11.615-11.616v-1.447h-8.28v1.447c0 6.412-5.202 11.615-11.615 11.615h-1.45v8.28h1.45c6.413 0 11.616 5.198 11.616 11.614v1.452h8.28v-1.452c0-6.416 5.197-11.614 11.614-11.614h1.448zm0 0M362.238 88.388h-1.448c-6.417 0-11.615-5.203-11.615-11.616v-1.447h-8.28v1.447c0 6.413-5.202 11.616-11.615 11.616h-1.45v8.279h1.45c6.413 0 11.616 5.198 11.616 11.615v1.451h8.279v-1.451c0-6.417 5.198-11.615 11.615-11.615h1.448zm0 0M184.687 88.388h-1.448c-6.416 0-11.614-5.203-11.614-11.616v-1.447h-8.28v1.447c0 6.413-5.203 11.616-11.615 11.616h-1.45v8.279h1.45c6.412 0 11.616 5.198 11.616 11.615v1.451h8.279v-1.451c0-6.417 5.198-11.615 11.614-11.615h1.448zm0 0"/></g></g></svg>