<svg height="512" width="512" xmlns="http://www.w3.org/2000/svg"><path d="M512 256c0 55.75-17.82 107.34-48.08 149.38h-6.16c-6.69 0-9.01 8.9-3.16 12.16a257.678 257.678 0 0 1-39.32 38.88l-1.84.64a477.786 477.786 0 0 1-314.88 0l-1.84-.64a257.678 257.678 0 0 1-39.32-38.88c5.85-3.26 3.53-12.16-3.16-12.16h-6.16C17.82 363.34 0 311.75 0 256c0-46.22 12.25-89.57 33.68-127C77.8 51.93 160.84 0 256 0s178.2 51.93 222.32 129C499.75 166.43 512 209.78 512 256z" fill="#00beff"/><path d="M512 256c0 55.75-17.83 107.34-48.08 149.38h-6.16c-6.69 0-9.01 8.9-3.16 12.16l-.01.01a256.637 256.637 0 0 1-39.31 38.87l-1.84.64a477.786 477.786 0 0 1-314.88 0l-1.84-.64a257.678 257.678 0 0 1-39.32-38.88c5.85-3.26 3.53-12.16-3.16-12.16h-6.16C17.83 363.34 0 311.75 0 256c0-46.22 12.25-89.57 33.68-127 16.31 28.49 37.93 53.53 63.52 73.8C140.84 237.36 196.01 258 256 258s115.16-20.64 158.8-55.2c25.59-20.27 47.21-45.31 63.52-73.8C499.75 166.43 512 209.78 512 256z" fill="#0af"/><path d="M451.38 382l12.54 23.38c-2.99 4.15-6.1 8.21-9.33 12.17l-20.5 6.17c-12.44 3.74-20.49 15.78-19.21 28.71l.4 3.99C371.56 491.21 316.21 512 256 512s-115.56-20.79-159.28-55.58l.4-3.99c1.28-12.93-6.77-24.97-19.21-28.72l-20.51-6.17c-3.23-3.96-6.33-8.01-9.32-12.16L60.62 382c6.15-11.44 3.33-25.64-6.72-33.88l-27.58-22.61L53.9 302.9c10.05-8.23 12.87-22.43 6.72-33.88l-16.86-31.43 34.15-10.29c11.08-3.33 18.67-13.24 19.29-24.5.09-1.39.06-2.79-.08-4.21l-3.52-35.48 35.48 3.52c12.93 1.28 24.97-6.76 28.72-19.21l10.28-34.15 31.43 16.86c11.45 6.15 25.65 3.34 33.88-6.72L256 95.83l22.61 27.58c8.23 10.06 22.43 12.87 33.88 6.72l31.43-16.86 10.29 34.15c3.74 12.45 15.78 20.49 28.71 19.21l35.48-3.52-3.52 35.48c-.14 1.42-.17 2.82-.08 4.21.62 11.26 8.21 21.17 19.29 24.51l34.15 10.28-16.86 31.43c-6.15 11.45-3.33 25.65 6.72 33.88l27.58 22.61-27.58 22.61c-10.05 8.24-12.87 22.44-6.72 33.88z" fill="#e7ea00"/><path d="M451.38 382l12.54 23.38c-2.99 4.15-6.1 8.21-9.33 12.17l-20.5 6.17c-12.44 3.74-20.49 15.78-19.21 28.71l.4 3.99C371.56 491.21 316.21 512 256 512V95.83l22.61 27.58c8.23 10.06 22.43 12.87 33.88 6.72l31.43-16.86 10.29 34.15c3.74 12.45 15.78 20.49 28.71 19.21l35.48-3.52-3.52 35.48c-.14 1.42-.17 2.82-.08 4.21.62 11.26 8.21 21.17 19.29 24.51l34.15 10.28-16.86 31.43c-6.15 11.45-3.33 25.65 6.72 33.88l27.58 22.61-27.58 22.61c-10.05 8.24-12.87 22.44-6.72 33.88z" fill="#ffcd00"/><circle cx="256" cy="325.512" fill="#ffcd00" transform="rotate(-45 255.96 325.583)" r="174.161"/><path d="M430.161 325.513c0 96.184-77.977 174.161-174.161 174.161V151.351c96.184 0 174.161 77.977 174.161 174.162z" fill="#ffa300"/><path d="M274.529 468.295H237.47c-9.557 0-14.432-11.426-7.846-18.361 6.63-6.968 15.996-11.325 26.376-11.325 10.379 0 19.745 4.357 26.375 11.325 6.586 6.935 1.712 18.361-7.846 18.361z" fill="#ffa300"/><path d="M274.529 468.295H256V438.61c10.379 0 19.745 4.357 26.375 11.325 6.586 6.934 1.712 18.36-7.846 18.36z" fill="#ff7500"/><path d="M322.04 366.928a75.392 75.392 0 0 1-16.866 20.938c-13.18 11.419-30.367 18.33-49.174 18.33s-35.994-6.911-49.174-18.33a75.406 75.406 0 0 1-16.866-20.938c-6.524-11.979 2.098-26.582 15.747-26.582h100.585c13.65 0 22.272 14.603 15.748 26.582z" fill="#131042"/><g fill="#131042"><circle cx="193.233" cy="295.667" r="24.979"/><circle cx="318.767" cy="295.667" r="24.979"/></g><path d="M305.174 387.866c-13.18 11.419-30.367 18.33-49.174 18.33s-35.994-6.911-49.174-18.33c14.134-9.231 31.025-14.595 49.174-14.595s35.04 5.364 49.174 14.595z" fill="#ff4852"/><path d="M305.174 387.866c-13.18 11.419-30.367 18.33-49.174 18.33v-32.925c18.149 0 35.04 5.364 49.174 14.595z" fill="#f50000"/><g><path d="M209.328 252.018H171.46c-6.475 0-11.723-5.249-11.723-11.723 0-6.475 5.249-11.723 11.723-11.723h37.868c6.475 0 11.723 5.249 11.723 11.723 0 6.475-5.249 11.723-11.723 11.723z" fill="#ff7500"/><path d="M340.54 252.018h-37.868c-6.475 0-11.723-5.249-11.723-11.723 0-6.475 5.249-11.723 11.723-11.723h37.868c6.475 0 11.723 5.249 11.723 11.723 0 6.475-5.249 11.723-11.723 11.723z" fill="#db351d"/></g><g><path d="M190.328 101.428c0-.071.005-.141.005-.213 0-13.038-10.57-23.608-23.608-23.608-3.098 0-6.053.603-8.763 1.687-5.235-9.379-15.252-15.725-26.756-15.725-14.939 0-27.373 10.698-30.075 24.85a17.436 17.436 0 0 0-2.466-.178c-8.122 0-14.927 5.623-16.746 13.187z" fill="#fff"/><path d="M167.294 101.428c0-.041.003-.081.003-.122 0-7.497-6.078-13.575-13.575-13.575-1.781 0-3.481.347-5.039.97-3.01-5.393-8.77-9.042-15.385-9.042-8.59 0-15.74 6.152-17.294 14.289a10.038 10.038 0 0 0-1.418-.103c-4.671 0-8.584 3.233-9.63 7.583z" fill="#dfebff"/></g><g><path d="M420.492 105.129c0-.064.005-.128.005-.192 0-11.791-9.559-21.35-21.35-21.35-2.801 0-5.474.545-7.925 1.526-4.734-8.482-13.793-14.221-24.197-14.221-13.51 0-24.755 9.675-27.199 22.473a15.755 15.755 0 0 0-2.23-.161c-7.345 0-13.5 5.085-15.145 11.926h98.041z" fill="#fff"/><path d="M399.66 105.129l.003-.111c0-6.781-5.497-12.277-12.277-12.277-1.611 0-3.148.313-4.557.877-2.723-4.877-7.932-8.177-13.914-8.177-7.769 0-14.235 5.563-15.64 12.923a9.04 9.04 0 0 0-1.282-.093c-4.224 0-7.763 2.924-8.709 6.858z" fill="#dfebff"/></g><g><path d="M191.953 55.184c0-.08-.006-.159-.006-.239 0-14.652 11.878-26.53 26.53-26.53 3.481 0 6.802.677 9.847 1.896 5.883-10.539 17.139-17.671 30.067-17.671 16.788 0 30.76 12.022 33.797 27.925.905-.13 1.83-.201 2.771-.201 9.127 0 16.775 6.318 18.819 14.819H191.953z" fill="#fff"/><path d="M217.838 55.184c0-.046-.003-.091-.003-.138 0-8.425 6.83-15.255 15.255-15.255 2.002 0 3.911.389 5.663 1.09 3.383-6.06 9.856-10.161 17.289-10.161 9.653 0 17.688 6.913 19.434 16.058a11.313 11.313 0 0 1 1.593-.115c5.249 0 9.646 3.633 10.821 8.521z" fill="#dfebff"/></g></svg>