<svg xmlns="http://www.w3.org/2000/svg" width="512" height="512" style="enable-background:new 0 0 512 512" xml:space="preserve"><circle r="256" cx="256" cy="256" fill="#48c774"/><g xmlns="http://www.w3.org/2000/svg"><path d="M499.2 256c0 36.033-7.837 70.234-21.898 100.985a243.464 243.464 0 0 1-41.648 62.938 248.037 248.037 0 0 1-13.129 13.319c-24.329 22.866-53.361 40.774-85.48 52.117l-12.503 2.137a266.523 266.523 0 0 1-134.064-11.571l-87.894-31.217a245.15 245.15 0 0 1-26.239-24.785 242.932 242.932 0 0 1-33.003-45.857c-.76-1.368-1.51-2.736-2.242-4.123a234.163 234.163 0 0 1-6.393-12.958 240.438 240.438 0 0 1-17.366-54.026 239.168 239.168 0 0 1-3.943-29.802 228.78 228.78 0 0 1-.503-10.583c-.067-2.185-.095-4.38-.095-6.574 0-15.333 1.415-30.334 4.142-44.878a241.328 241.328 0 0 1 27.854-75.772C86.71 62.133 165.598 12.8 256 12.8s169.29 49.333 211.204 122.55a241.542 241.542 0 0 1 26.742 70.167 242.72 242.72 0 0 1 2.641 14.706A246.115 246.115 0 0 1 499.2 256z" fill="#fff9bb"/><path d="M499.2 256c0 34.029-6.992 66.434-19.627 95.846a248.302 248.302 0 0 1-2.28 5.139 241.504 241.504 0 0 1-11.894 22.752 229.548 229.548 0 0 1-5.52 8.854 240.758 240.758 0 0 1-14.639 20.169 244.07 244.07 0 0 1-22.724 24.481c-24.32 22.867-53.352 40.774-85.471 52.127v-.01l-12.502 2.138a266.523 266.523 0 0 1-134.064-11.571l-87.894-31.217a243.992 243.992 0 0 1-55.452-64.068C25.331 344.188 12.8 301.552 12.8 256c0-43.909 11.638-85.092 31.996-120.65C86.71 208.566 165.598 257.9 256 257.9s169.29-49.334 211.204-122.55a241.408 241.408 0 0 1 29.374 84.873A244.07 244.07 0 0 1 499.2 256z" fill="#fff297"/><path d="M499.2 256c0 36.033-7.837 70.234-21.898 100.985H34.707a240.438 240.438 0 0 1-17.366-54.026 239.168 239.168 0 0 1-3.942-29.802 228.78 228.78 0 0 1-.504-10.583c-.066-2.185-.095-4.38-.095-6.574 0-15.333 1.416-30.334 4.142-44.878 12.882-5.529 27.702-5.88 41.335-1.216 15.656 5.358 28.015 17.651 32.157 31.986.171.2 1.7 2.28 1.929 2.565 14.639-8.198 33.839-9.699 49.884-3.904 16.055 5.804 28.519 18.753 32.386 33.649 10.146-7.334 28.899-6.65 41.097-2.375 8.768 3.078 15.95 9.32 19.902 16.853 2.955 5.624 9.272 9.291 16.312 9.291h59.992c5.995 0 11.495-2.689 14.896-7.03 6.726-8.578 16.948-15.732 27.598-19.38 13.452-4.617 28.956-4.36 42.199.684 2.717-21.175 21.707-39.957 43.415-49.343 17.413-7.533 38.285-8.341 56.544-2.679A246.115 246.115 0 0 1 499.2 256z" fill="#b6e337"/><path d="M499.2 256c0 36.024-7.837 70.224-21.907 100.985H256v-59.014h55.936c5.994 0 11.495-2.688 14.896-7.03 6.726-8.578 16.948-15.732 27.598-19.38 13.452-4.617 28.956-4.36 42.199.684 2.717-21.175 21.707-39.957 43.415-49.343 17.404-7.533 38.275-8.341 56.534-2.679A244.07 244.07 0 0 1 499.2 256z" fill="#6cdc2d"/><path d="M240.838 317.275h-90.487l2.346-40.08 6.061-103.579 4.37-74.594h64.942l4.36 74.594 6.061 103.578z" fill="#fff"/><path d="M240.838 317.275H172.97l4.208-143.659 2.185-74.594h48.707l4.36 74.594z" fill="#dff7fd"/><path d="M240.838 317.275h-45.239V99.022h32.471l4.36 74.594z" fill="#c5f2f9"/><path d="M240.838 317.275h-90.487l2.346-40.08h85.794z" fill="#dff7fd"/><path d="M240.838 317.275H172.97l1.178-40.08h64.344z" fill="#c5f2f9"/><path d="M240.838 317.275h-45.239v-40.08h42.892z" fill="#92eaff"/><path d="M232.43 173.616h-73.672l4.37-74.594h64.942z" fill="#6e6f83"/><path d="M232.43 173.616h-55.252l2.185-74.594h48.707z" fill="#605f74"/><path d="M232.43 173.616H195.6V99.022h32.471z" fill="#58586b"/><path d="M216.176 173.616h-41.154l.675-32.87c.228-10.83 9.063-19.494 19.893-19.494h.009c10.84 0 19.665 8.664 19.893 19.494z" fill="#fff"/><path d="M216.176 173.616h-20.577v-52.364c10.84 0 19.665 8.664 19.893 19.494z" fill="#dff7fd"/><path d="M491.344 317.541a241.096 241.096 0 0 1-22.696 56.525c-1.054 1.91-2.137 3.8-3.249 5.671a237.478 237.478 0 0 1-7.828 12.35c-28.909 42.741-71.041 75.791-120.526 93.271l-12.502 2.138a266.523 266.523 0 0 1-134.064-11.571l-87.875-31.208a244.29 244.29 0 0 1-48.175-52.63 235.534 235.534 0 0 1-7.296-11.447 214.33 214.33 0 0 1-3.79-6.574 241.482 241.482 0 0 1-22.686-56.525z" fill="#63dbfa"/><path d="M457.571 392.087C413.861 456.716 339.894 499.2 256 499.2c-4.665 0-9.291-.133-13.889-.399-78.138-4.398-146.414-45.676-187.682-106.713z" fill="#dff7fd"/><path d="M468.648 374.066c-1.055 1.91-2.138 3.8-3.249 5.671C423.057 451.253 345.129 499.2 256 499.2V374.066z" fill="#c5f2f9"/><path d="M422.526 433.241c-24.33 22.867-53.362 40.774-85.481 52.117a19.99 19.99 0 0 1-2.432-9.576c0-11.058-8.959-20.007-20.007-20.007h-9.415c-11.048 0-20.007-8.958-20.007-20.007v-2.527z" fill="#3dcaea"/><path d="M354.287 374.066c0 9.956-8.066 18.021-18.021 18.021H267.96c-6.602 0-11.96 5.358-11.96 11.961 0 3.306-1.34 6.289-3.506 8.455s-5.158 3.505-8.455 3.505h-59.812c-7.923 0-14.345 6.422-14.345 14.345 0 3.962-1.605 7.553-4.208 10.156a14.31 14.31 0 0 1-10.146 4.199h-52.943a245.15 245.15 0 0 1-26.24-24.786 242.932 242.932 0 0 1-33.003-45.856z" fill="#63dbfa"/><path d="M354.287 374.066c0 9.956-8.066 18.021-18.021 18.021H267.96c-6.602 0-11.96 5.358-11.96 11.961v-29.982z" fill="#3dcaea"/><path d="M354.287 374.066H43.342c-.76-1.368-1.51-2.736-2.242-4.123a234.163 234.163 0 0 1-6.393-12.958 240.438 240.438 0 0 1-17.366-54.027 239.168 239.168 0 0 1-3.943-29.801 228.78 228.78 0 0 1-.503-10.583h82.802c16.074 0 32.452 10.222 40.232 23.702 4.912 8.512 13.88 13.87 23.703 13.87h52.734c10.868 0 23.275 3.287 30.761 10.593a31.652 31.652 0 0 1 7.154 10.592c4.284 10.355 14.136 17.31 25.346 17.31h29.716c21.774 0 43.928 15.788 48.944 35.425z" fill="#7e7f92"/><path d="M312.154 374.066H43.344c-.76-1.368-1.511-2.736-2.242-4.123a234.163 234.163 0 0 1-6.394-12.958 240.438 240.438 0 0 1-17.366-54.027 239.168 239.168 0 0 1-3.629-25.764H60.87c16.084 0 32.462 10.232 40.242 23.712 4.902 8.512 13.87 13.861 23.703 13.861h52.725c10.877 0 23.275 3.287 30.76 10.592a31.774 31.774 0 0 1 7.164 10.593c4.284 10.355 14.136 17.318 25.346 17.318h29.716c15.979 0 32.167 8.503 41.629 20.796z" fill="#6e6f83"/><path d="M199.513 374.066H43.343c-.76-1.368-1.511-2.736-2.242-4.123a240.83 240.83 0 0 1-23.76-66.984h17.765c16.084 0 32.462 10.231 40.242 23.711 4.902 8.512 13.87 13.861 23.703 13.861h52.725c10.877 0 23.275 3.287 30.76 10.592a31.774 31.774 0 0 1 7.164 10.593c2.09 5.073 5.529 9.329 9.813 12.35z" fill="#605f74"/><path d="M479.573 351.845a248.302 248.302 0 0 1-2.28 5.14 241.504 241.504 0 0 1-11.894 22.752 229.548 229.548 0 0 1-5.52 8.854 240.758 240.758 0 0 1-14.639 20.169 244.07 244.07 0 0 1-22.724 24.481H285.184c3.667-14.335 19.836-25.868 35.739-25.868h21.688c8.18 0 15.381-5.073 18.506-12.635a23.221 23.221 0 0 1 5.216-7.733c5.472-5.33 14.525-7.733 22.458-7.733h38.503c7.173 0 13.718-3.905 17.3-10.118 5.681-9.842 17.642-17.309 29.374-17.309z" fill="#7e7f92"/><path d="M459.88 388.591a240.758 240.758 0 0 1-14.64 20.169 244.07 244.07 0 0 1-22.724 24.481H315.945c6.907-8.977 18.725-15.18 30.39-15.18h21.699c8.179 0 15.37-5.083 18.496-12.645a23.18 23.18 0 0 1 5.234-7.733c5.463-5.339 14.516-7.733 22.458-7.733h38.485c2.498 0 4.921-.475 7.172-1.358z" fill="#6e6f83"/><path d="M445.24 408.76a244.07 244.07 0 0 1-22.724 24.481h-24.339a20.582 20.582 0 0 0 7.163-9.015c1.188-2.86 2.945-5.52 5.234-7.733 5.463-5.339 14.516-7.733 22.449-7.733z" fill="#605f74"/><path d="M228.07 88.107v10.915h-64.942V88.107c0-17.784 14.307-32.243 32.053-32.462.142-.01.275-.01.418-.01 8.968 0 17.081 3.639 22.962 9.51 5.87 5.88 9.509 14.003 9.509 22.962z" fill="#fe3345"/><path d="M228.07 88.107v10.915h-48.706V88.107c0-17.651 7.039-32.015 15.817-32.462.142-.01.275-.01.418-.01 8.968 0 17.081 3.639 22.962 9.51 5.87 5.88 9.509 14.003 9.509 22.962z" fill="#de1263"/><path d="M228.07 88.107v10.915h-32.471V55.636c8.968 0 17.081 3.638 22.962 9.509 5.87 5.88 9.509 14.003 9.509 22.962z" fill="#ce0557"/><path d="M155.053 95.08h81.083v17.575h-81.083z" fill="#ff6378"/><path d="M175.63 95.08h60.505v17.575H175.63z" fill="#fe3345"/><path d="M155.053 164.819h81.083v17.585h-81.083z" fill="#7e7f92"/><path d="M175.63 164.828h60.505v17.575H175.63z" fill="#6e6f83"/><path d="M206.096 146c0 5.795-4.702 10.497-10.497 10.497s-10.498-4.702-10.498-10.498c0-5.804 4.703-10.506 10.498-10.506s10.498 4.702 10.498 10.507z" fill="#f9e073"/><path d="M195.599 95.08h40.536v17.575H195.6z" fill="#de1263"/><path d="M206.096 146c0 5.795-4.702 10.497-10.497 10.497v-21.005c5.795 0 10.498 4.703 10.498 10.508z" fill="#ffc300"/><path d="M195.599 164.819h40.536v17.585H195.6zM352.042 94.075c.092.137-.07.3-.213.218-7.176-4.102-16.464-3.087-22.589 3.03a18.798 18.798 0 0 0-4.968 8.832.152.152 0 0 1-.148.116h-6.287a.151.151 0 0 1-.148-.116 18.723 18.723 0 0 0-4.97-8.833c-6.114-6.115-15.411-7.131-22.579-3.03-.143.083-.305-.08-.213-.217a19.215 19.215 0 0 1 2.34-2.85c7.333-7.335 19.227-7.335 26.561 0a18.974 18.974 0 0 1 2.035 2.401c.061.085.183.085.244 0 .597-.84 1.27-1.645 2.035-2.4 7.325-7.335 19.219-7.335 26.553 0 .89.89 1.673 1.841 2.347 2.85z" fill="#605f74"/><path d="M352.042 94.075c.092.137-.07.3-.213.218-7.176-4.102-16.464-3.087-22.589 3.03a18.798 18.798 0 0 0-4.968 8.832.152.152 0 0 1-.148.116h-2.983a.156.156 0 0 1-.155-.155V93.849c0-.033.01-.065.028-.092a18.173 18.173 0 0 1 2.128-2.533c7.325-7.334 19.219-7.334 26.553 0 .89.891 1.673 1.843 2.347 2.851z" fill="#58586b"/><path d="M442.707 154.575c.092.137-.07.3-.213.218-7.176-4.102-16.464-3.087-22.589 3.03a18.798 18.798 0 0 0-4.968 8.831.152.152 0 0 1-.148.117h-6.286a.151.151 0 0 1-.149-.117 18.723 18.723 0 0 0-4.97-8.832c-6.114-6.115-15.41-7.131-22.579-3.03-.143.082-.305-.08-.213-.217a19.274 19.274 0 0 1 2.34-2.85c7.333-7.335 19.227-7.335 26.561 0 .757.755 1.437 1.56 2.035 2.4.061.086.183.086.244 0 .597-.84 1.27-1.646 2.035-2.4 7.325-7.335 19.219-7.335 26.553 0a18.88 18.88 0 0 1 2.347 2.85z" fill="#605f74"/><path d="M442.707 154.575c.092.137-.07.3-.213.218-7.176-4.102-16.464-3.087-22.589 3.03a18.798 18.798 0 0 0-4.968 8.831.152.152 0 0 1-.148.117h-2.982a.156.156 0 0 1-.156-.156V154.35c0-.033.01-.065.028-.092a18.173 18.173 0 0 1 2.128-2.533c7.325-7.334 19.219-7.334 26.553 0a18.88 18.88 0 0 1 2.347 2.851z" fill="#58586b"/><g><path d="M320.958 206.227c.092.136-.07.3-.213.217-7.176-4.102-16.464-3.086-22.589 3.03a18.798 18.798 0 0 0-4.968 8.832.152.152 0 0 1-.148.117h-6.287a.152.152 0 0 1-.148-.117 18.723 18.723 0 0 0-4.97-8.832c-6.114-6.115-15.411-7.132-22.579-3.03-.143.082-.305-.08-.213-.217a19.27 19.27 0 0 1 2.34-2.852c7.333-7.334 19.227-7.334 26.561 0a19.053 19.053 0 0 1 2.035 2.401c.061.086.183.086.244 0 .597-.84 1.27-1.646 2.035-2.401 7.325-7.334 19.219-7.334 26.553 0 .89.89 1.673 1.844 2.347 2.852z" fill="#605f74"/><path d="M320.958 206.227c.092.136-.07.3-.213.217-7.176-4.102-16.464-3.086-22.589 3.03a18.798 18.798 0 0 0-4.968 8.832.152.152 0 0 1-.148.117h-2.983a.156.156 0 0 1-.155-.157V206c0-.034.01-.066.028-.093a18.239 18.239 0 0 1 2.128-2.532c7.325-7.334 19.219-7.334 26.553 0 .89.89 1.673 1.844 2.347 2.852z" fill="#58586b"/></g></g></svg>