<svg xmlns="http://www.w3.org/2000/svg" width="512" height="512" style="enable-background:new 0 0 512 512" xml:space="preserve"><circle r="256" cx="256" cy="256" fill="#ffdd57"/><g xmlns="http://www.w3.org/2000/svg"><path d="M499.2 256c0 134.318-108.882 243.2-243.2 243.2-7.904 0-15.727-.375-23.438-1.125L13.925 279.45l-.01-.01A245.688 245.688 0 0 1 12.8 256C12.8 121.682 121.682 12.8 256 12.8S499.2 121.682 499.2 256z" fill="#654baa" data-original="#654baa"/><path d="M499.2 256c0 61.975-23.185 118.54-61.347 161.485a244.493 244.493 0 0 1-43.148 38.314C355.358 483.16 307.558 499.2 256 499.2c-7.914 0-15.747-.375-23.469-1.114l.03-.01L13.915 279.437A245.688 245.688 0 0 1 12.8 256c0-43.908 11.633-85.09 31.991-120.647C86.713 208.566 165.601 257.905 256 257.905s169.298-49.34 211.209-122.553C487.567 170.91 499.2 212.092 499.2 256z" fill="#513390" data-original="#513390"/><g><path d="M81.418 138.34h1.544c6.843 0 12.39-5.547 12.39-12.39v-1.545h8.832v1.545c0 6.843 5.547 12.39 12.39 12.39h1.545v8.832h-1.545c-6.843 0-12.39 5.547-12.39 12.39v1.544h-8.832v-1.544c0-6.843-5.547-12.39-12.39-12.39h-1.544zM389.839 294.075h1.545c6.842 0 12.39-5.547 12.39-12.39v-1.545h8.832v1.545c0 6.843 5.547 12.39 12.39 12.39h1.544v8.832h-1.544c-6.843 0-12.39 5.547-12.39 12.39v1.545h-8.833v-1.545c0-6.843-5.547-12.39-12.39-12.39h-1.544zM193.947 78.406h1.545c6.843 0 12.39-5.547 12.39-12.39v-1.545h8.832v1.545c0 6.843 5.547 12.39 12.39 12.39h1.544v8.832h-1.544c-6.843 0-12.39 5.547-12.39 12.39v1.545h-8.832v-1.545c0-6.843-5.547-12.39-12.39-12.39h-1.545zM345.106 401.918h1.545c6.843 0 12.39-5.547 12.39-12.39v-1.544h8.832v1.544c0 6.843 5.547 12.39 12.39 12.39h1.545v8.832h-1.545c-6.843 0-12.39 5.547-12.39 12.39v1.545h-8.832v-1.545c0-6.843-5.547-12.39-12.39-12.39h-1.545z" fill="#fff" data-original="#ffffff"/><path d="M322.2 352.6c0 7.915-.566 15.667-1.671 23.267a161.244 161.244 0 0 1-11.613 41.223c-.76 1.793-1.56 3.536-2.391 5.29a162.98 162.98 0 0 1-33.207 46.511 120.28 120.28 0 0 1-3.324 3.151c-11.147 10.347-23.732 19.143-37.433 26.033a241.469 241.469 0 0 1-73.163-18.817c-48.725-87.853-50.349-194.236-4.329-283.535l3.042-5.904c.426-.02.862-.02 1.287-.02 5.392 0 10.69.263 15.95.79 38.01 3.68 72.159 20.43 97.969 45.722 13.63 13.356 24.938 29.093 33.207 46.523a161.546 161.546 0 0 1 14.025 46.512A164.349 164.349 0 0 1 322.2 352.6z" fill="#0076ff" data-original="#0076ff"/><path d="M21.717 304.996c0 12.233 2.037 24.408 6.306 35.872a242.775 242.775 0 0 0 37.44 66.29 244.73 244.73 0 0 0 24.107 26.175l42.712 32.092.01.01a243.202 243.202 0 0 0 27.107 13.822V189.799c-35.1 0-67.602 11.109-94.187 30-27.494 19.538-43.495 51.468-43.495 85.197z" fill="#0092ff" data-original="#0092ff"/><path d="M158.112 195.005c-26.65.547-50.778 12.993-68.46 41.305-8.35 13.356-15.251 29.073-20.338 46.523-3.476 11.967-6.09 24.756-7.702 38.121a201.405 201.405 0 0 0-.871 8.39 265.36 265.36 0 0 0-1.014 23.257c0 2.877.05 5.745.152 8.593.142 4.965.426 9.85.862 14.672.942 10.812 2.543 21.28 4.722 31.292a243.982 243.982 0 0 1-28.799-45.964l-.01-.03-15.068-40.149-.02-.06a242.833 242.833 0 0 1-7.65-41.517 162.872 162.872 0 0 1 31.565-43.127c29.092-28.485 68.784-40.96 112.631-41.306z" fill="#00b9ff" data-original="#00b9ff"/><path d="M159.4 374.103v41.754h33.174c11.533 0 20.886 9.353 20.886 20.886 0 9.748 3.947 18.57 10.348 24.971 6.384 6.384 15.206 10.331 24.954 10.331h21.229c1.132-1.03 2.23-2.076 3.33-3.158a163.093 163.093 0 0 0 33.208-46.508c.823-1.75 1.63-3.5 2.385-5.286a20.676 20.676 0 0 0-7.105-1.236h-23.443c-11.533 0-20.869-9.335-20.869-20.868a20.75 20.75 0 0 0-6.126-14.76 20.748 20.748 0 0 0-14.76-6.126z" fill="#00ca7f" data-original="#00ca7f"/><path d="M138.291 394.989a20.748 20.748 0 0 0 6.127 14.759 20.804 20.804 0 0 0 14.759 6.11h.223v-41.755h-.223c-11.532 0-20.886 9.354-20.886 20.886z" fill="#84f600" data-original="#84f600"/><path d="M43.592 238.199h41.55c5.251 0 9.988 2.128 13.42 5.56s5.56 8.17 5.56 13.42c0 12.169 9.868 22.02 22.019 22.02h73.658c10.469 0 18.981-8.496 18.981-18.981v-3.037c0-5.252-2.128-9.988-5.56-13.42-3.45-3.433-8.187-5.561-13.421-5.561s-9.988-2.128-13.42-5.56-5.561-8.17-5.561-13.421c0-10.108-1.939-19.77-5.475-28.626a157.931 157.931 0 0 0-15.943-.789c-.43 0-.858 0-1.287.017-43.848.343-83.544 18.003-112.633 46.491a95.529 95.529 0 0 0-1.888 1.887z" fill="#00ca7f" data-original="#00ca7f"/><path d="M60.737 329.345a265.369 265.369 0 0 0-1.013 23.254c0 2.883.052 5.75.154 8.598h27.167c11.104 0 20.114-9.01 20.114-20.113 0-11.12-9.01-20.13-20.114-20.13H61.613c-.344 2.762-.636 5.559-.876 8.39z" fill="#84f600" data-original="#84f600"/><path d="M60.74 329.345a265.36 265.36 0 0 0-1.013 23.256c0 2.877.05 5.745.152 8.593H36.664a241.757 241.757 0 0 1-15.098-40.24h40.047a201.4 201.4 0 0 0-.872 8.39z" fill="#adff43" data-original="#adff43"/><path d="M226.365 317.544c0 11.112 9.008 20.119 20.119 20.119h29.61c11.113 0 20.12-9.008 20.12-20.12 0-11.111-9.007-20.118-20.12-20.118h-29.61c-11.111-.001-20.12 9.007-20.12 20.119z" fill="#00ca7f" data-original="#00ca7f"/><path d="M132.971 459.518c0 2.036-.233 4.023-.679 5.917a244.362 244.362 0 0 1-42.722-32.102h17.216c14.461 0 26.185 11.714 26.185 26.185zM43.592 238.199h41.55c1.08 0 2.145.085 3.192.274 3.964.67 7.499 2.558 10.228 5.286a18.908 18.908 0 0 1 5.56 13.42c0 12.169 9.868 22.02 22.019 22.02h33.26v-89.396c-.43 0-.859 0-1.288.017-43.848.343-83.544 18.003-112.633 46.491a98.234 98.234 0 0 0-1.888 1.888z" fill="#84f600" data-original="#84f600"/><path d="M43.592 238.199h41.55c1.08 0 2.145.085 3.192.274a146.7 146.7 0 0 1 1.321-2.162c17.677-28.316 41.806-45.942 68.459-46.49-43.848.342-83.544 18.002-112.633 46.49a95.626 95.626 0 0 0-1.889 1.888z" fill="#adff43" data-original="#adff43"/><g><path d="M316.59 101.487l11.01-11.011 90.601 90.6-11.01 11.011z" fill="#c8c6cb" data-original="#c8c6cb"/><path d="M316.59 101.486l5.505-5.506 90.6 90.6-5.505 5.506z" fill="#aeadb2" data-original="#aeadb2"/><path d="M403.984 79.661l-8.033 8.033a8.476 8.476 0 0 0 .004 11.99l13.068 13.067a8.474 8.474 0 0 0 11.985 0l8.034-8.033a8.476 8.476 0 0 0 0-11.986l-13.069-13.068c-3.31-3.31-8.677-3.315-11.989-.003z" fill="#00b9ff" data-original="#00b9ff"/><path d="M403.984 79.661l-8.033 8.033a8.476 8.476 0 0 0 .004 11.99l6.532 6.531 20.02-20.018-6.533-6.532c-3.311-3.312-8.678-3.316-11.99-.004z" fill="#0092ff" data-original="#0092ff"/><path d="M403.984 79.661l-8.033 8.033a8.476 8.476 0 0 0 .004 11.99l3.266 3.265c-1.656-1.656-.316-5.68 2.994-8.99l8.034-8.034c3.311-3.311 7.336-4.65 8.99-2.994l-3.266-3.266a8.476 8.476 0 0 0-11.989-.004z" fill="#0076ff" data-original="#0076ff"/><path d="M314.137 169.508l-8.033 8.033c-3.312 3.312-3.308 8.679.004 11.99l13.068 13.069a8.476 8.476 0 0 0 11.986 0l8.033-8.034a8.476 8.476 0 0 0 0-11.986l-13.068-13.068c-3.312-3.31-8.678-3.315-11.99-.004z" fill="#c8c6cb" data-original="#c8c6cb"/><path d="M314.137 169.508l-8.033 8.033c-3.312 3.312-3.308 8.679.004 11.99l6.532 6.533 20.02-20.02-6.533-6.532c-3.312-3.31-8.678-3.315-11.99-.004z" fill="#aeadb2" data-original="#aeadb2"/><path d="M314.137 169.508l-8.033 8.033c-3.312 3.312-3.308 8.679.004 11.99l3.266 3.266c-1.656-1.655-.316-5.68 2.994-8.99l8.033-8.034c3.312-3.311 7.336-4.65 8.991-2.994l-3.266-3.266c-3.31-3.312-8.677-3.316-11.989-.005z" fill="#99989b" data-original="#99989b"/><path d="M385.482 82.18l-25.058 25.058c-4.413 4.412-4.413 11.57 0 15.983l25.057 25.059c4.417 4.416 11.575 4.416 15.988.003l25.058-25.058c4.416-4.416 4.416-11.575 0-15.991l-25.058-25.058c-4.412-4.413-11.57-4.413-15.987.003z" fill="#fff" data-original="#ffffff"/><path d="M385.482 82.18l-25.058 25.058c-4.413 4.412-4.413 11.57 0 15.983l12.529 12.529 41.044-41.045-12.528-12.528c-4.412-4.414-11.57-4.414-15.987.002z" fill="#eee" data-original="#eeeeee"/><path d="M385.482 82.18l-25.058 25.058c-4.413 4.412-4.413 11.57 0 15.983l6.264 6.265c-2.206-2.206-.419-7.578 3.994-11.99l25.058-25.058c4.417-4.417 9.787-6.205 11.993-3.998l-6.264-6.264c-4.412-4.413-11.57-4.413-15.987.003z" fill="#dddddf" data-original="#dddddf"/><path d="M333.424 134.238l-25.054 25.054c-4.417 4.416-4.417 11.575-.004 15.987l25.058 25.059c4.417 4.416 11.575 4.416 15.991 0l25.055-25.055c4.416-4.416 4.416-11.575 0-15.991l-25.058-25.058c-4.413-4.413-11.571-4.413-15.988.004z" fill="#fff" data-original="#ffffff"/><path d="M333.424 134.238l-25.054 25.054c-4.417 4.416-4.417 11.575-.004 15.987l12.529 12.53 41.044-41.046-12.528-12.528c-4.412-4.414-11.57-4.414-15.987.003z" fill="#eee" data-original="#eeeeee"/><path d="M333.424 134.238l-25.058 25.058c-4.413 4.412-4.413 11.57 0 15.983l6.264 6.265c-2.206-2.206-.419-7.577 3.994-11.99l25.058-25.057c4.417-4.417 9.787-6.205 11.994-3.998l-6.264-6.264c-4.413-4.414-11.571-4.414-15.988.003z" fill="#dddddf" data-original="#dddddf"/><path d="M358.934 124.711l-8.033 8.033a8.476 8.476 0 0 0 .004 11.99l13.068 13.067a8.474 8.474 0 0 0 11.985 0l8.034-8.033a8.476 8.476 0 0 0 0-11.986l-13.069-13.068c-3.31-3.31-8.677-3.315-11.989-.003z" fill="#c8c6cb" data-original="#c8c6cb"/><path d="M358.934 124.711l-8.033 8.033a8.476 8.476 0 0 0 .004 11.99l6.532 6.531 20.02-20.019-6.533-6.532c-3.311-3.31-8.678-3.315-11.99-.003z" fill="#aeadb2" data-original="#aeadb2"/><path d="M358.934 124.711l-8.033 8.033a8.476 8.476 0 0 0 .004 11.99l3.266 3.265c-1.656-1.656-.316-5.68 2.995-8.99l8.033-8.034c3.311-3.311 7.336-4.65 8.99-2.994l-3.266-3.266a8.476 8.476 0 0 0-11.989-.004z" fill="#99989b" data-original="#99989b"/><path d="M333.61 185.504l4.857 4.858a1.344 1.344 0 0 0 1.9 0l19.623-19.624a1.345 1.345 0 0 0 0-1.9l-4.857-4.857a1.345 1.345 0 0 0-1.901 0l-19.624 19.623a1.344 1.344 0 0 0 .002 1.9z" fill="#fdd425" data-original="#fdd425"/><path d="M317.342 169.237l4.858 4.857a1.342 1.342 0 0 0 1.9 0l19.623-19.623a1.345 1.345 0 0 0 0-1.901l-4.856-4.858a1.344 1.344 0 0 0-1.9 0l-19.624 19.624a1.344 1.344 0 0 0 0 1.901z" fill="#feb123" data-original="#feb123"/><path d="M390.172 128.942l4.857 4.857a1.344 1.344 0 0 0 1.9 0l19.623-19.624a1.344 1.344 0 0 0 0-1.9l-4.857-4.857a1.344 1.344 0 0 0-1.9 0l-19.624 19.623a1.344 1.344 0 0 0 .001 1.901z" fill="#fdd425" data-original="#fdd425"/><path d="M373.905 112.674l4.857 4.857a1.342 1.342 0 0 0 1.9 0l19.623-19.623a1.343 1.343 0 0 0 0-1.901l-4.856-4.858a1.344 1.344 0 0 0-1.9 0l-19.624 19.624a1.344 1.344 0 0 0 0 1.901z" fill="#feb123" data-original="#feb123"/><g><path d="M437.015 245.863l-55.045-55.045c-4.08-4.08-4.08-10.696 0-14.777l20.263-20.262c4.08-4.08 10.696-4.08 14.776 0l55.045 55.045c4.08 4.08 4.08 10.696 0 14.776l-20.263 20.263c-4.08 4.08-10.696 4.08-14.776 0z" fill="#feb123" data-original="#feb123"/><path d="M317.01 125.859l-55.044-55.044c-4.08-4.08-4.08-10.696 0-14.777l20.263-20.262c4.08-4.08 10.696-4.08 14.776 0L352.05 90.82c4.08 4.08 4.08 10.696 0 14.776l-20.263 20.263c-4.08 4.079-10.696 4.079-14.776-.001z" fill="#fdd425" data-original="#fdd425"/></g><g><path d="M281.59 218.105l22.477-22.477a5.754 5.754 0 0 1 8.137 8.136l-22.477 22.477a5.754 5.754 0 0 1-8.137-8.136z" fill="#eee" data-original="#eeeeee"/><path d="M315.452 240.578c10.093-13.486 9.012-32.69-3.247-44.95s-31.463-13.34-44.95-3.247z" fill="#dddddf" data-original="#dddddf"/><path d="M315.452 240.578c10.093-13.486 9.012-32.69-3.247-44.95-6.13-6.13-20.263-2.14-32.9 8.801z" fill="#eee" data-original="#eeeeee"/><path d="M315.452 240.578c10.093-13.486 9.012-32.69-3.247-44.95l-20.85 20.851z" fill="#fff" data-original="#ffffff"/><path d="M263.239 187.724c1.054-1.054 2.437-1.581 3.819-1.581s2.765.527 3.82 1.582l49.229 49.23a5.403 5.403 0 0 1-3.818 9.22 5.383 5.383 0 0 1-3.82-1.583l-49.229-49.229a5.403 5.403 0 0 1-.001-7.64z" fill="#aeadb2" data-original="#aeadb2"/><path d="M263.239 187.724c1.054-1.054 2.437-1.581 3.819-1.581s2.765.527 3.82 1.582l24.614 24.615-7.638 7.638-24.614-24.615a5.403 5.403 0 0 1-.001-7.64z" fill="#0092ff" data-original="#0092ff"/><path d="M263.239 187.724c1.054-1.054 2.437-1.581 3.819-1.581s2.765.527 3.82 1.582l24.614 24.615-7.638 7.638-24.614-24.615a5.403 5.403 0 0 1-.001-7.64z" fill="#c8c6cb" data-original="#c8c6cb"/></g><g fill="#eee"><path d="M271.695 236.134c-3.769-3.769-6.103-8.972-6.103-14.71a4.267 4.267 0 1 1 8.534 0c0 6.77 5.508 12.28 12.278 12.279a4.268 4.268 0 0 1 0 8.534c-5.737 0-10.94-2.335-14.709-6.103z" data-original="#eeeeee"/><path d="M259.943 247.886c-8.144-8.143-12.628-18.97-12.628-30.484a4.267 4.267 0 0 1 8.535 0c0 9.235 3.597 17.918 10.128 24.45s15.214 10.128 24.45 10.128a4.268 4.268 0 0 1 0 8.533c-11.516.001-22.342-4.484-30.485-12.627z" data-original="#eeeeee"/></g><g fill="#000"><path d="M456.615 225.234L446.24 214.86l10.375-10.375 10.374 10.375zM441.005 240.841l-10.375-10.374 10.375-10.374 10.374 10.374zM442.099 210.716l-10.375-10.374 10.375-10.375 10.374 10.375zM426.489 226.322l-10.375-10.374 10.375-10.374 10.374 10.374z" data-original="#000000"/><g><path d="M427.583 196.197l-10.375-10.374 10.375-10.375 10.374 10.375zM411.973 211.802l-10.375-10.374 10.375-10.375 10.374 10.375z" data-original="#000000"/></g><g><path d="M413.067 181.678l-10.375-10.374 10.375-10.375 10.374 10.375zM397.458 197.284l-10.375-10.374 10.375-10.375 10.374 10.375z" data-original="#000000"/></g><g><path d="M337.049 105.645L326.674 95.27l10.375-10.374 10.374 10.374zM321.44 121.25l-10.374-10.374 10.374-10.374 10.375 10.374zM322.534 91.125L312.16 80.751l10.374-10.375 10.375 10.375zM306.924 106.732L296.55 96.358l10.374-10.374L317.3 96.358z" data-original="#000000"/><g><path d="M308.018 76.606l-10.374-10.374 10.374-10.375 10.375 10.375zM292.408 92.213L282.034 81.84l10.374-10.374 10.375 10.374z" data-original="#000000"/></g><g><path d="M293.502 62.088l-10.374-10.374 10.374-10.375 10.375 10.375zM277.892 77.694L267.518 67.32l10.374-10.374 10.375 10.374z" data-original="#000000"/></g></g></g></g></g></g></svg>