<svg xmlns="http://www.w3.org/2000/svg" width="512" height="512" style="enable-background:new 0 0 512 512" xml:space="preserve"><circle r="256" cx="256" cy="256" fill="#3e8ed0"/><g xmlns="http://www.w3.org/2000/svg"><path d="M499.2 256c0 134.318-108.882 243.2-243.2 243.2S12.8 390.318 12.8 256 121.682 12.8 256 12.8 499.2 121.682 499.2 256z" fill="#bc98e6"/><path d="M499.2 256c0 24.748-3.696 48.631-10.573 71.127a241.844 241.844 0 0 1-18.762 44.754 243.35 243.35 0 0 1-27.598 40.48c-.553.656-1.102 1.31-1.663 1.955C396.01 466.284 329.844 499.2 256 499.2s-140.01-32.916-184.594-84.884c-.56-.653-1.12-1.31-1.662-1.967a241.466 241.466 0 0 1-27.598-40.468 234.356 234.356 0 0 1-8.664-17.604C20.182 324.229 12.8 290.979 12.8 256c0-43.908 11.638-85.091 31.996-120.65C86.711 208.567 165.598 257.9 256 257.9s169.3-49.333 211.204-122.55C487.562 170.909 499.2 212.092 499.2 256z" fill="#9a65d9"/><path d="M469.999 371.614a243.446 243.446 0 0 1-23.487 35.559 243.393 243.393 0 0 1-26.333 28.236C376.917 475.023 319.279 499.2 256 499.2s-120.917-24.177-164.179-63.79a243.393 243.393 0 0 1-26.333-28.237 243.446 243.446 0 0 1-23.487-35.559z" fill="#363d58"/><g><path d="M146.826 117.834h168.329v131.545H146.826z" fill="#ecbea6"/><path d="M171.45 117.834h143.704v131.545H171.45z" fill="#e2a976"/><path d="M230.99 117.834h84.165v131.545H230.99z" fill="#d18059"/><path d="M184.232 165.216h93.516v84.164h-93.516z" fill="#5e464f"/><path d="M230.99 165.216h46.758v84.164H230.99z" fill="#3e2d3f"/><path d="M296.451 249.38h18.704v112.218H296.45z" fill="#5e464f"/><path d="M277.747 361.598h-18.703c0-15.47-12.585-28.054-28.055-28.054h-9.351V314.84h9.351c25.781.001 46.758 20.978 46.758 46.758z" fill="#80cf8c"/><path d="M352.56 361.598h-18.704c0-25.78 20.977-46.758 46.758-46.758h9.352v18.704h-9.352c-15.47 0-28.054 12.584-28.054 28.054z" fill="#599d8a"/><path d="M371.263 277.434c-36.153 0-65.46 29.308-65.46 65.46 0-36.153-29.309-65.46-65.46-65.46h-30.896l25.701 17.127a53.649 53.649 0 0 1 23.898 44.644v22.392h93.516v-22.392a53.649 53.649 0 0 1 23.897-44.644l25.7-17.127z" fill="#a8eb58"/><path d="M371.263 277.434h30.895l-25.7 17.127a53.649 53.649 0 0 0-23.897 44.644v22.392h-46.758v-18.703c0-36.152 29.307-65.46 65.46-65.46z" fill="#80cf8c"/><path d="M221.639 352.246h168.328v18.704H221.64z" fill="#844b44"/><path d="M230.99 51.75l-120.823 75.436h241.645z" fill="#fcf4c2"/><path d="M230.99 51.75l-59.54 75.436h180.362z" fill="#f7de82"/><path d="M351.812 127.186H230.99V51.75z" fill="#efc142"/><path d="M109.42 202.621V370.95h18.703v-37.406h18.704v37.406h18.704V258.731h187.03v-56.109H109.42zm37.406 112.22h-18.704v-18.703h18.704zm0-37.407h-18.704V258.73h18.704zm0-37.405h-18.704v-18.704h18.704zm37.406 0H165.53v-18.704h18.703zm37.407 0h-18.704v-18.704h18.704zm37.406 0h-18.703v-18.704h18.703zm37.406 0h-18.704v-18.704h18.704zm37.406 0h-18.703v-18.704h18.703z" fill="#844b44"/><path d="M137.93 314.841h-9.808v-18.704h9.808v-18.703h-9.808V258.73h9.808V240.03h-9.808v-18.704h9.808v-18.704h-28.51V370.95h18.702v-37.406h9.808z" fill="#b4694b"/><path d="M230.99 202.621v56.11h121.57v-56.11zm28.055 37.408h-18.703v-18.704h18.703zm37.406 0h-18.704v-18.704h18.704zm37.406 0h-18.703v-18.704h18.703z" fill="#5e464f"/></g><g fill="#fff"><path d="M421.508 151.263h-1.448c-6.416 0-11.614-5.204-11.614-11.616V138.2h-8.28v1.447c0 6.412-5.203 11.616-11.615 11.616H387.1v8.279h1.45c6.413 0 11.616 5.198 11.616 11.614v1.452h8.28v-1.452c0-6.416 5.198-11.614 11.614-11.614h1.448zM461.2 235.813h-1.448c-6.416 0-11.614-5.204-11.614-11.616v-1.447h-8.28v1.447c0 6.412-5.203 11.616-11.615 11.616h-1.451v8.279h1.45c6.413 0 11.616 5.198 11.616 11.614v1.452h8.28v-1.452c0-6.416 5.198-11.614 11.614-11.614h1.448z"/></g></g></svg>