<svg xmlns="http://www.w3.org/2000/svg" width="512" height="512" style="enable-background:new 0 0 512 512" xml:space="preserve"><circle r="256" cx="256" cy="256" fill="#48c774"/><g xmlns="http://www.w3.org/2000/svg"><path d="M499.2 254.396v2.394a247.447 247.447 0 0 1-1.443 25.869l-.713.636c-137.313 122.968-345.068 123.215-482.666.56-.437-3.8-.78-7.628-1.036-11.485-.38-5.662-.56-11.39-.541-17.157.142-43.909 11.913-85.053 32.385-120.545C87.338 61.584 166.387 12.508 256.79 12.802c90.402.294 169.129 49.884 210.805 123.234a241.377 241.377 0 0 1 26.515 70.252c3.24 15.552 4.978 31.635 5.092 48.108z" fill="#fff9bb"/><path d="M499.2 256.79a247.447 247.447 0 0 1-1.443 25.869l-.713.636c-137.313 122.968-345.059 123.215-482.657.57v-.01c-.057-.398-.095-.807-.133-1.206a244.674 244.674 0 0 1-1.453-27.436c.142-43.909 11.913-85.053 32.385-120.545 24.985 43.975 63.29 79.41 109.44 100.795.931.437 1.862.864 2.803 1.282 30.096 13.49 63.45 21.043 98.562 21.157 35.065.114 68.42-7.201 98.582-20.463a227.717 227.717 0 0 0 4.38-1.976c45.647-21.166 83.637-56.07 108.641-99.427 20.245 35.625 31.75 76.845 31.607 120.754z" fill="#fff297"/><path d="M447.551 155.512c0-.053.004-.106.004-.16 0-9.757-7.91-17.667-17.667-17.667-2.318 0-4.53.451-6.558 1.263-3.918-7.019-11.413-11.768-20.022-11.768-11.18 0-20.484 8.006-22.506 18.596a12.985 12.985 0 0 0-1.845-.134c-6.078 0-11.17 4.208-12.532 9.868h81.126z" fill="#ffeb98"/><path d="M430.314 155.512l.001-.091c0-5.611-4.548-10.159-10.159-10.159-1.333 0-2.605.26-3.77.726-2.253-4.035-6.564-6.767-11.513-6.767-6.43 0-11.78 4.604-12.942 10.693a7.415 7.415 0 0 0-8.267 5.597z" fill="#f9e073"/><path d="M471.262 369.28a243.578 243.578 0 0 1-36.138 51.224 443.075 443.075 0 0 1-163.932 37.192 443.09 443.09 0 0 1-194.123-37.79l-1.254-.561c-13.68-15.086-25.498-31.892-35.064-50.065z" fill="#7e7f92"/><path d="M471.262 369.28a243.578 243.578 0 0 1-36.138 51.224 443.075 443.075 0 0 1-163.932 37.192V369.28z" fill="#6e6f83"/><path d="M435.655 419.924c-41.287 45.22-99.417 74.803-164.464 78.812-5.025.304-10.089.466-15.19.466-71.155 0-135.176-30.562-179.655-79.278z" fill="#6cdc2d"/><path d="M215.75 166.455h110.883V369.28H215.75z" fill="#fff"/><path d="M326.634 166.455v169.652l-29.958 33.173h-25.485V166.455z" fill="#dff7fd"/><path d="M232.433 191.985h32.462v32.462h-32.462z" fill="#4e679c"/><path d="M248.669 191.985h16.226v32.462h-16.226z" fill="#374c81"/><path d="M277.49 191.985h32.461v32.462H277.49z" fill="#4e679c"/><path d="M293.725 191.985h16.226v32.462h-16.226z" fill="#374c81"/><path d="M232.433 239.771h32.462v32.462h-32.462z" fill="#4e679c"/><path d="M248.669 239.771h16.226v32.462h-16.226z" fill="#374c81"/><path d="M277.49 239.771h32.461v32.462H277.49z" fill="#4e679c"/><path d="M293.725 239.771h16.226v32.462h-16.226z" fill="#374c81"/><path d="M326.634 166.459h86.306v202.82h-86.306z" fill="#92eaff"/><path d="M338.764 191.985h24.946v32.462h-24.946z" fill="#4e679c"/><path d="M351.24 191.985h12.47v32.462h-12.47z" fill="#374c81"/><g><path d="M375.865 191.985h24.946v32.462h-24.946z" fill="#4e679c"/><path d="M388.342 191.985h12.468v32.462h-12.468z" fill="#374c81"/></g><g><path d="M497.757 282.663l-.143 1.197H354.573v-48.393h86.307z" fill="#a63917"/><path d="M497.615 283.856a241.64 241.64 0 0 1-26.353 85.424l-116.687-2.85v-82.574z" fill="#92eaff"/><path d="M412.895 283.856H296.252l58.322-48.388z" fill="#ec781b"/><path d="M296.252 283.856h116.641v81.624h-116.64z" fill="#fff"/><path d="M354.574 283.856h58.321v85.425h-58.321z" fill="#d1f6ff"/><path d="M412.895 283.856h-58.321v-48.388z" fill="#c55732"/><path d="M378.275 313.638v55.642H330.88v-55.642a7.58 7.58 0 0 1 7.581-7.59h32.224c4.19 0 7.59 3.391 7.59 7.59z" fill="#4e679c"/><path d="M378.275 313.638v55.642h-23.702v-63.232h16.112c4.19 0 7.59 3.391 7.59 7.59z" fill="#374c81"/><path d="M439.94 306.048H472.4v32.461H439.94z" fill="#4e679c"/><path d="M456.175 306.048h16.226v32.461h-16.226z" fill="#374c81"/><path d="M296.252 350.764h34.628v18.516h-34.628zM480.04 350.764a237.447 237.447 0 0 1-8.778 18.516h-92.986v-18.516z" fill="#92c6eb"/><path d="M480.04 350.764a237.447 237.447 0 0 1-8.778 18.516h-58.368v-18.516z" fill="#75addd"/></g><g><path d="M157.429 235.467v48.393H14.387c-.057-.4-.095-.808-.133-1.207l56.867-47.186z" fill="#ec781b"/><path d="M215.75 283.86v80.67l-175 4.75c-.01-.01-.01-.02-.02-.029a241.459 241.459 0 0 1-26.352-85.391z" fill="#fff"/><path d="M99.108 283.86H215.75l-58.321-48.392z" fill="#a63917"/><path d="M99.108 283.86H215.75v81.62H99.11z" fill="#92eaff"/><path d="M99.108 283.86h58.32v81.62h-58.32z" fill="#d1f6ff"/><path d="M99.108 283.86h58.32v-48.392z" fill="#c55732"/><path d="M133.726 313.638v55.642h47.396v-55.642a7.58 7.58 0 0 0-7.581-7.59h-32.224a7.588 7.588 0 0 0-7.59 7.59z" fill="#374c81"/><path d="M133.726 313.638v55.642h23.703v-63.232h-16.112a7.588 7.588 0 0 0-7.59 7.59zM39.601 306.048h32.462v32.461H39.6z" fill="#4e679c"/><path d="M39.601 306.048h16.226v32.461H39.601z" fill="#374c81"/><path d="M181.122 350.764h34.627v18.516h-34.627zM133.726 350.764v18.516H40.75c-.01-.01-.01-.02-.02-.029a243.659 243.659 0 0 1-8.768-18.487z" fill="#92c6eb"/><path d="M99.108 350.764v18.516H40.75c-.01-.01-.01-.02-.019-.029a243.659 243.659 0 0 1-8.769-18.487z" fill="#75addd"/></g><path d="M357.498 118.066h-86.307v48.393H412.94z" fill="#a63917"/><path d="M326.633 166.459H215.75l55.442-48.393z" fill="#ec781b"/><path d="M326.633 166.459h-55.442v-48.393z" fill="#c55732"/><g><path d="M75.013 168.643c-.001-.076-.006-.15-.006-.226 0-13.887 11.256-25.143 25.143-25.143 3.298 0 6.445.642 9.332 1.797 5.576-9.988 16.244-16.746 28.495-16.746 15.91 0 29.151 11.393 32.029 26.465a18.41 18.41 0 0 1 2.626-.19c8.65 0 15.897 5.988 17.834 14.044H75.013z" fill="#ffeb98"/><path d="M99.545 168.643c0-.044-.003-.087-.003-.13 0-7.985 6.472-14.458 14.457-14.458 1.897 0 3.707.37 5.366 1.034 3.207-5.744 9.34-9.63 16.385-9.63 9.148 0 16.763 6.551 18.418 15.218.493-.07.996-.11 1.51-.11 4.973 0 9.14 3.445 10.254 8.077H99.545z" fill="#f9e073"/></g><g><path d="M212.662 73.909c0-.054-.004-.108-.004-.162 0-9.9 8.027-17.927 17.928-17.927 2.352 0 4.596.458 6.654 1.281 3.976-7.122 11.582-11.94 20.318-11.94 11.344 0 20.786 8.124 22.838 18.87a13.233 13.233 0 0 1 1.872-.136c6.168 0 11.336 4.27 12.717 10.014z" fill="#ffeb98"/><path d="M230.153 73.909l-.002-.093c0-5.694 4.616-10.309 10.309-10.309 1.353 0 2.643.263 3.826.737 2.286-4.095 6.66-6.866 11.684-6.866 6.522 0 11.953 4.671 13.132 10.85a7.524 7.524 0 0 1 8.388 5.68z" fill="#f9e073"/></g></g><path d="M435.655 419.924c-41.287 45.22-99.417 74.803-164.464 78.812v-78.812z" fill="#5dbf1d"/></svg>