<svg xmlns="http://www.w3.org/2000/svg" width="512" height="512" style="enable-background:new 0 0 512 512" xml:space="preserve"><circle r="256" cx="256" cy="256" fill="#ffdd57"/><g xmlns="http://www.w3.org/2000/svg"><path d="M499.2 256c0 8.056-.39 16.017-1.169 23.864l-55.489 50.293c-110.704 100.32-274.123 116.09-401.964 38.789a241.304 241.304 0 0 1-22.03-60.145 242.517 242.517 0 0 1-2.205-11.248 239.243 239.243 0 0 1-2.945-24.396c0-.057-.009-.114-.009-.171A245.154 245.154 0 0 1 12.8 256c0-43.909 11.637-85.091 31.996-120.65C86.71 62.134 165.598 12.8 256 12.8s169.29 49.334 211.204 122.55a241.542 241.542 0 0 1 26.742 70.167A243.729 243.729 0 0 1 499.2 256z" fill="#92eaff" data-original="#92eaff"/><path d="M499.2 256c0 8.066-.39 16.036-1.159 23.893l-.01-.029-55.489 50.293c-110.694 100.31-274.104 116.09-401.945 38.798a240.625 240.625 0 0 1-19.94-51.414C15.535 297.886 12.8 277.261 12.8 256c0-43.909 11.637-85.091 31.996-120.65C86.71 208.567 165.598 257.9 256 257.9s169.29-49.333 211.204-122.55C487.562 170.909 499.2 212.091 499.2 256z" fill="#63dbfa" data-original="#63dbfa"/><path d="M498.031 279.864a234.955 234.955 0 0 1-2.375 17.689 235.405 235.405 0 0 1-2.299 11.638 243 243 0 0 1-2.023 8.35 241.532 241.532 0 0 1-25.403 61.313L139.558 469.56c4.845-5.71 11.704-9.737 19.086-11.086-6.337-10.84-5.425-26.372 1.007-37.155 6.441-10.782 22.372-23.588 34.922-23.151-1.91-11.21 4.151-23.323 14.26-28.52 10.107-5.215 23.483-3.096 31.501 4.969 2.461-15.912 17.319-27.388 33.136-24.386-6.175-10.944-4.617-30.011 4.921-38.2 9.529-8.189 24.91-8.521 34.79-.76 2.431-9.158 11.4-12.958 20.405-15.922 8.997-2.954 19.437-1.073 26.828 4.855.01-7.762 3.63-16.122 9.453-21.29 6.222-5.52 17.508-5.681 25.46-4.417-.722-12.607 4.987-20.235 6.498-22.173 6.023-7.79 16.311-12.436 26.144-10.925 13.138 2.004 23.75 14.734 23.351 28.015.104-3.705 7.438-6.165 10.212-6.289 5.026-.228 9.871 1.881 14.032 4.503 6.64 4.19 10.621 10.944 10.127 18.896 2.992-3.99 7.467-5.805 12.34-6.66z" fill="#fff" data-original="#ffffff"/><path d="M493.357 309.19a243 243 0 0 1-2.023 8.351 241.532 241.532 0 0 1-25.403 61.313c-.01-.01-.01-.019-.01-.019l-293.426 105.64a28.92 28.92 0 0 1 2.004-2.451c5.539-6.099 13.395-10.041 21.603-10.83-7.714-8.683-12.169-21.907-6.707-32.157s17.632-16.483 29.137-14.934c-2.309-9.073 3.192-20.112 11.495-24.434 8.303-4.313 19.465-2.166 25.555 4.949.418-9.3 5.111-19.408 12.188-25.45 7.068-6.033 16.692-8.978 25.935-7.933-4.417-10.032-2.698-24.557 5.72-31.587 8.407-7.021 21.526-7.695 30.608-1.558.238-8.436 6.707-16.663 14.906-18.64 8.198-1.994 17.48 2.09 21.565 9.482.931-10.061 4.959-19.428 13.442-24.928 8.484-5.482 20.834-5.263 27.93 1.928-.456-8.759 2.499-18.876 9.738-23.807 7.248-4.93 17.822-4.911 24.424.846 4.636 4.028 6.964 10.545 5.938 16.606 6.64-3.06 14.753-2.86 20.824 1.235 6.061 4.085 9.766 11.447 9.424 18.753 4.398-4.674 9.5-8.246 15.133-10.374z" fill="#dff7fd" data-original="#dff7fd"/><path d="M465.921 378.835c-.17.304-.342.608-.522.903a243.963 243.963 0 0 1-45.686 56.097l-3.458 1.34c-101.099 39.13-214.614 29.336-307.505-26.543l-52.868-31.797z" fill="#63dbfa" data-original="#63dbfa"/><path d="M404.323 427.502h-5.866l.314-9.831.386-12.075h4.466l.386 12.075z" fill="#ec771b" data-original="#ec771b"/><path d="M404.323 427.502h-2.82v-21.906h2.12l.386 12.075zM401.503 405.596v12.075h-2.732l.386-12.075z" fill="#c55732" data-original="#c55732"/><path d="M404.009 417.671h-2.506v-12.075h2.12z" fill="#a44e3e" data-original="#a44e3e"/><path d="M410.613 409.44c-2.523 2.483-5.816 3.725-9.11 3.725s-6.587-1.241-9.11-3.726a12.537 12.537 0 0 1-2.415-14.641c2.525-4.967 5.163-9.876 7.309-15.019l4.216-10.102 4.21 10.082c2.15 5.15 4.79 10.068 7.318 15.043a12.538 12.538 0 0 1-2.418 14.637z" fill="#43af3e" data-original="#43af3e"/><path d="M410.613 409.44a12.95 12.95 0 0 1-9.11 3.725c-1.563 0-3.126-1.241-4.323-3.726-1.936-4.015-2.301-10.055-1.098-14.835 1.674-6.649 3.158-13.497 4.532-20.435l.889-4.493 4.21 10.082c2.15 5.15 4.79 10.068 7.318 15.043a12.539 12.539 0 0 1-2.418 14.638z" fill="#00a23e" data-original="#00a23e"/><path d="M410.613 409.44a12.95 12.95 0 0 1-9.11 3.725v-43.488l4.21 10.082c2.15 5.15 4.79 10.068 7.318 15.043a12.538 12.538 0 0 1-2.418 14.637z" fill="#008839" data-original="#008839"/><path d="M48.838 179.345h70.306v28.603H48.838z" fill="#4e689b" data-original="#4e689b"/><path d="M83.991 179.345h35.153v28.603H83.99z" fill="#384c81" data-original="#384c81"/><path d="M127.398 193.642v237.453h-.684a243.65 243.65 0 0 1-6.488-3.268l-64.391-33.668A240.817 240.817 0 0 1 41.1 369.943c-.18-.332-.351-.665-.522-.997V193.642z" fill="#dff7fd" data-original="#dff7fd"/><path d="M127.398 193.642v237.453h-.684a243.65 243.65 0 0 1-6.488-3.268l-36.233-18.943V193.642z" fill="#c5f2f9" data-original="#c5f2f9"/><path d="M48.84 207.949h70.302v14.057H48.84z" fill="#ffc300" data-original="#ffc300"/><path d="M83.991 207.949h35.151v14.057h-35.15z" fill="#ff9f00" data-original="#ff9f00"/><path d="M48.84 236.069h70.302v14.062H48.84z" fill="#ffc300" data-original="#ffc300"/><path d="M83.991 236.069h35.151v14.062h-35.15zM48.838 264.192h70.306v14.06H48.838z" fill="#ff9f00" data-original="#ff9f00"/><path d="M48.84 292.314h70.302v14.063H48.84z" fill="#ffc300" data-original="#ffc300"/><path d="M83.991 292.314h35.151v14.063h-35.15z" fill="#ff9f00" data-original="#ff9f00"/><path d="M76.96 207.949h14.062v14.057H76.959z" fill="#605f74" data-original="#605f74"/><path d="M105.083 207.947h14.06v14.061h-14.06z" fill="#58586b" data-original="#58586b"/><path d="M48.838 236.07H62.9v14.06H48.84z" fill="#605f74" data-original="#605f74"/><path d="M105.083 236.07h14.06v14.06h-14.06z" fill="#58586b" data-original="#58586b"/><path d="M48.84 264.194h42.183v14.057H48.84z" fill="#605f74" data-original="#605f74"/><path d="M105.083 264.192h14.06v14.06h-14.06zM105.083 292.315h14.06v14.06h-14.06zM83.991 207.949h7.031v14.057h-7.03zM83.991 264.194h7.031v14.057h-7.03z" fill="#58586b" data-original="#58586b"/><path d="M48.84 320.433h70.301v14.063H48.84z" fill="#ffc300" data-original="#ffc300"/><path d="M83.994 320.433h35.148v14.063H83.994z" fill="#ff9f00" data-original="#ff9f00"/><path d="M105.083 320.433h14.06v14.06h-14.06z" fill="#58586b" data-original="#58586b"/><path d="M62.9 320.433H48.837v14.062H76.96v-14.062z" fill="#605f74" data-original="#605f74"/><path d="M48.84 348.546h70.301v14.063H48.84z" fill="#ffc300" data-original="#ffc300"/><path d="M83.994 348.546h35.148v14.063H83.994z" fill="#ff9f00" data-original="#ff9f00"/><path d="M105.083 348.548H91.022v14.061H119.143v-14.06z" fill="#58586b" data-original="#58586b"/><path d="M119.143 376.669v14.05H53.498a241.68 241.68 0 0 1-4.655-7.267v-6.783z" fill="#ffc300" data-original="#ffc300"/><path d="M83.994 376.665h35.148v14.056H83.994z" fill="#ff9f00" data-original="#ff9f00"/><g><path d="M105.083 376.663h14.06v14.061h-14.06z" fill="#58586b" data-original="#58586b"/></g><g><path d="M62.9 348.548h14.061v14.061h-14.06z" fill="#58586b" data-original="#58586b"/></g><g><path d="M286.979 200.4h70.305v28.604H286.98z" fill="#4e689b" data-original="#4e689b"/><path d="M322.131 200.4h35.153v28.604h-35.153z" fill="#384c81" data-original="#384c81"/><path d="M365.544 214.704v199.395a239.523 239.523 0 0 1-86.82 36.309V214.704z" fill="#fff" data-original="#ffffff"/><path d="M365.544 214.704v199.395a238.885 238.885 0 0 1-43.415 23.209V214.704z" fill="#dff7fd" data-original="#dff7fd"/><path d="M286.98 229.004h70.302v14.057H286.98z" fill="#ffc300" data-original="#ffc300"/><path d="M322.131 229.004h35.151v14.057h-35.15z" fill="#ff9f00" data-original="#ff9f00"/><path d="M286.98 257.124h70.302v14.063H286.98z" fill="#ffc300" data-original="#ffc300"/><path d="M322.131 257.124h35.151v14.063h-35.15zM286.979 285.248h70.305v14.06H286.98z" fill="#ff9f00" data-original="#ff9f00"/><path d="M286.98 313.369h70.302v14.062H286.98z" fill="#ffc300" data-original="#ffc300"/><path d="M322.131 313.369h35.151v14.062h-35.15z" fill="#ff9f00" data-original="#ff9f00"/><path d="M315.1 229.004h14.063v14.057H315.1z" fill="#605f74" data-original="#605f74"/><path d="M343.223 229.003h14.061v14.06h-14.06z" fill="#58586b" data-original="#58586b"/><path d="M286.979 257.126h14.06v14.06h-14.06z" fill="#605f74" data-original="#605f74"/><path d="M343.223 257.126h14.061v14.06h-14.06z" fill="#58586b" data-original="#58586b"/><path d="M286.98 285.25h42.183v14.057H286.98z" fill="#605f74" data-original="#605f74"/><path d="M343.223 285.248h14.061v14.06h-14.06zM343.223 313.37h14.061v14.061h-14.06zM322.131 229.004h7.031v14.057h-7.03zM322.131 285.25h7.031v14.057h-7.03z" fill="#58586b" data-original="#58586b"/><path d="M286.98 341.489h70.302v14.062H286.98z" fill="#ffc300" data-original="#ffc300"/><path d="M322.134 341.489h35.147v14.062h-35.147z" fill="#ff9f00" data-original="#ff9f00"/><path d="M343.223 341.489h14.061v14.06h-14.06z" fill="#58586b" data-original="#58586b"/><path d="M301.04 341.489h-14.061v14.06H315.1v-14.06z" fill="#605f74" data-original="#605f74"/><path d="M286.98 369.601h70.302v14.063H286.98z" fill="#ffc300" data-original="#ffc300"/><path d="M322.134 369.601h35.147v14.063h-35.147z" fill="#ff9f00" data-original="#ff9f00"/><path d="M343.223 369.604h-14.06v14.06H357.283v-14.06z" fill="#58586b" data-original="#58586b"/><path d="M286.98 397.721h70.302v14.056H286.98z" fill="#ffc300" data-original="#ffc300"/><path d="M322.134 397.721h35.147v14.056h-35.147z" fill="#ff9f00" data-original="#ff9f00"/><g><path d="M343.223 397.718h14.061v14.061h-14.06z" fill="#58586b" data-original="#58586b"/></g><g><path d="M301.04 369.604h14.061v14.06h-14.06z" fill="#58586b" data-original="#58586b"/></g></g><g><path d="M113.34 149.68h70.306v28.604H113.34z" fill="#4e689b" data-original="#4e689b"/><path d="M148.494 149.68h35.153v28.604h-35.153z" fill="#384c81" data-original="#384c81"/><path d="M191.903 163.983v267.112h-65.189a243.65 243.65 0 0 1-6.488-3.268l-15.143-7.914v-255.93z" fill="#fff" data-original="#ffffff"/><path d="M148.494 163.982h43.409v267.114h-43.409z" fill="#dff7fd" data-original="#dff7fd"/><path d="M113.34 179.581h70.306v14.061H113.34zM113.342 207.949h70.302v14.057h-70.302z" fill="#ffc300" data-original="#ffc300"/><path d="M148.494 207.949h35.151v14.057h-35.15z" fill="#ff9f00" data-original="#ff9f00"/><path d="M113.342 236.069h70.302v14.062h-70.302z" fill="#ffc300" data-original="#ffc300"/><path d="M148.494 236.069h35.151v14.062h-35.15zM113.34 264.192h70.306v14.06H113.34z" fill="#ff9f00" data-original="#ff9f00"/><path d="M113.342 292.314h70.302v14.063h-70.302z" fill="#ffc300" data-original="#ffc300"/><path d="M148.494 292.314h35.151v14.063h-35.15z" fill="#ff9f00" data-original="#ff9f00"/><path d="M113.34 179.581h14.061v14.061h-14.06zM141.462 179.58h14.063v14.062h-14.063z" fill="#605f74" data-original="#605f74"/><path d="M169.586 179.581h14.061v14.061h-14.06z" fill="#58586b" data-original="#58586b"/><path d="M141.462 207.949h14.063v14.057h-14.063z" fill="#605f74" data-original="#605f74"/><path d="M169.586 207.947h14.061v14.061h-14.06z" fill="#58586b" data-original="#58586b"/><path d="M113.34 236.07h14.061v14.06h-14.06z" fill="#605f74" data-original="#605f74"/><path d="M169.586 236.07h14.061v14.06h-14.06z" fill="#58586b" data-original="#58586b"/><path d="M113.342 264.194h42.183v14.057h-42.183z" fill="#605f74" data-original="#605f74"/><path d="M169.586 264.192h14.061v14.06h-14.06zM169.586 292.315h14.061v14.06h-14.06z" fill="#58586b" data-original="#58586b"/><g fill="#58586b"><path d="M148.494 179.58h7.031v14.062h-7.03zM148.494 207.949h7.031v14.057h-7.03zM148.494 264.194h7.031v14.057h-7.03z" data-original="#58586b"/></g><path d="M113.342 320.433h70.302v14.063h-70.302z" fill="#ffc300" data-original="#ffc300"/><path d="M148.497 320.433h35.148v14.063h-35.148z" fill="#ff9f00" data-original="#ff9f00"/><path d="M169.586 320.433h14.061v14.06h-14.06z" fill="#58586b" data-original="#58586b"/><path d="M127.402 320.433H113.34v14.062H141.463v-14.062z" fill="#605f74" data-original="#605f74"/><path d="M113.342 348.546h70.302v14.063h-70.302z" fill="#ffc300" data-original="#ffc300"/><path d="M148.497 348.546h35.148v14.063h-35.148z" fill="#ff9f00" data-original="#ff9f00"/><path d="M169.586 348.548h-14.062v14.061H183.647v-14.06z" fill="#58586b" data-original="#58586b"/><path d="M113.342 376.665h70.302v14.056h-70.302z" fill="#ffc300" data-original="#ffc300"/><path d="M148.497 376.665h35.148v14.056h-35.148z" fill="#ff9f00" data-original="#ff9f00"/><g><path d="M169.586 376.663h14.061v14.061h-14.06z" fill="#58586b" data-original="#58586b"/></g><g><path d="M127.403 348.548h14.061v14.061h-14.06z" fill="#58586b" data-original="#58586b"/></g><g><path d="M270.468 207.826v53.675h-70.31v-27.178l35.155-13.245z" fill="#4e689b" data-original="#4e689b"/><path d="M270.468 207.826v53.675h-35.155v-40.423z" fill="#384c81" data-original="#384c81"/><path d="M191.903 250.135h86.817v180.96h-86.817z" fill="#fff" data-original="#ffffff"/><path d="M235.31 250.135h43.41v180.96h-43.41z" fill="#dff7fd" data-original="#dff7fd"/><path d="M200.158 264.192h70.306v14.06h-70.306z" fill="#ff9f00" data-original="#ff9f00"/><path d="M200.16 292.314h70.302v14.063H200.16z" fill="#ffc300" data-original="#ffc300"/><path d="M235.31 292.314h35.152v14.063H235.31z" fill="#ff9f00" data-original="#ff9f00"/><path d="M200.16 264.194h42.183v14.057H200.16z" fill="#605f74" data-original="#605f74"/><path d="M256.403 264.192h14.06v14.06h-14.06zM256.403 292.315h14.06v14.06h-14.06zM235.31 264.194h7.032v14.057h-7.031z" fill="#58586b" data-original="#58586b"/><path d="M200.16 320.433h70.302v14.063H200.16z" fill="#ffc300" data-original="#ffc300"/><path d="M235.315 320.433h35.148v14.063h-35.148z" fill="#ff9f00" data-original="#ff9f00"/><path d="M256.403 320.433h14.06v14.06h-14.06z" fill="#58586b" data-original="#58586b"/><path d="M214.219 320.433h-14.061v14.062H228.281v-14.062z" fill="#605f74" data-original="#605f74"/><path d="M200.16 348.546h70.302v14.063H200.16z" fill="#ffc300" data-original="#ffc300"/><path d="M235.315 348.546h35.148v14.063h-35.148z" fill="#ff9f00" data-original="#ff9f00"/><path d="M256.403 348.548h-14.061v14.061h28.123v-14.06z" fill="#58586b" data-original="#58586b"/><path d="M200.16 376.665h70.302v14.056H200.16z" fill="#ffc300" data-original="#ffc300"/><path d="M235.315 376.665h35.148v14.056h-35.148z" fill="#ff9f00" data-original="#ff9f00"/><g><path d="M256.403 376.663h14.06v14.061h-14.06z" fill="#58586b" data-original="#58586b"/></g><g><path d="M214.22 348.548h14.062v14.061H214.22z" fill="#58586b" data-original="#58586b"/></g></g></g><path d="M272.045 460.269v38.409c-5.063.332-10.155.503-15.295.522H256c-71.155 0-135.176-30.561-179.655-79.277a242.725 242.725 0 0 1-20.51-25.764 498.669 498.669 0 0 1 120.45 29.526z" fill="#b6e337" data-original="#b6e337"/><g><path d="M134.733 429.07h-5.86l.313-9.82.387-12.063h4.46l.386 12.063z" fill="#ec771b" data-original="#ec771b"/><path d="M134.733 429.07h-2.818v-21.883h2.118l.386 12.063zM131.915 407.187v12.063h-2.729l.387-12.063z" fill="#c55732" data-original="#c55732"/><path d="M134.419 419.25h-2.504v-12.063h2.118z" fill="#a44e3e" data-original="#a44e3e"/><path d="M141.017 411.026c-2.52 2.481-5.811 3.72-9.101 3.72s-6.58-1.24-9.101-3.72a12.524 12.524 0 0 1-2.412-14.626c2.523-4.962 5.157-9.866 7.301-15.003l4.213-10.092 4.204 10.072c2.148 5.144 4.786 10.056 7.312 15.026a12.526 12.526 0 0 1-2.416 14.623z" fill="#43af3e" data-original="#43af3e"/><path d="M141.017 411.026a12.933 12.933 0 0 1-9.101 3.72c-1.561 0-3.122-1.24-4.318-3.72-1.933-4.011-2.3-10.044-1.097-14.82 1.672-6.64 3.154-13.482 4.526-20.413l.889-4.488 4.204 10.072c2.148 5.144 4.787 10.056 7.312 15.026a12.524 12.524 0 0 1-2.415 14.623z" fill="#00a23e" data-original="#00a23e"/><path d="M141.017 411.026a12.933 12.933 0 0 1-9.101 3.72v-43.44l4.204 10.071c2.148 5.144 4.787 10.056 7.312 15.026a12.524 12.524 0 0 1-2.415 14.623z" fill="#008839" data-original="#008839"/></g><g><path d="M214.57 397.59h-5.82l.312-9.75.383-11.981h4.43l.384 11.98z" fill="#ec771b" data-original="#ec771b"/><path d="M214.57 397.59h-2.798V375.86h2.103l.384 11.98zM211.772 375.859v11.98h-2.71l.383-11.98z" fill="#c55732" data-original="#c55732"/><path d="M214.259 387.84h-2.487v-11.981h2.103z" fill="#a44e3e" data-original="#a44e3e"/><path d="M220.81 379.672a12.843 12.843 0 0 1-9.038 3.695 12.849 12.849 0 0 1-9.039-3.695 12.438 12.438 0 0 1-2.395-14.526c2.505-4.927 5.122-9.797 7.25-14.898l4.184-10.023 4.175 10.002c2.133 5.109 4.753 9.986 7.26 14.922a12.438 12.438 0 0 1-2.397 14.523z" fill="#43af3e" data-original="#43af3e"/><path d="M220.81 379.672a12.843 12.843 0 0 1-9.038 3.695c-1.55 0-3.1-1.232-4.289-3.695-1.92-3.983-2.283-9.974-1.09-14.717 1.661-6.596 3.133-13.39 4.496-20.272l.883-4.457 4.175 10.002c2.133 5.109 4.753 9.986 7.26 14.922a12.437 12.437 0 0 1-2.397 14.522z" fill="#00a23e" data-original="#00a23e"/><path d="M220.81 379.672a12.843 12.843 0 0 1-9.038 3.695v-43.14l4.175 10c2.133 5.11 4.753 9.987 7.26 14.923a12.437 12.437 0 0 1-2.397 14.522z" fill="#008839" data-original="#008839"/></g><path d="M272.045 494.108v4.57c-5.063.332-10.155.503-15.295.522H256c-64.534 0-123.206-25.137-166.744-66.158a499.03 499.03 0 0 1 87.03 24.482z" fill="#6cdc2d" data-original="#6cdc2d"/><path d="M419.713 435.835a243.197 243.197 0 0 1-22.686 18.316c-35.7 25.45-78.565 41.506-124.982 44.527-5.063.332-10.155.503-15.295.522H256c-64.534 0-123.206-25.137-166.744-66.158a222.92 222.92 0 0 1-5.472-5.339c24.605-3.667 50.112-.95 74.271-7.049 27.977-7.058 56.943-28.395 82.66-41.933 4.996-2.631 10.088-5.282 15.285-7.685 13.452-6.261 27.54-10.916 42.104-9.472 8.436.846 16.359 3.686 23.902 7.553 8.711 4.474 16.92 10.317 24.861 16.064 17.091 12.35 34.181 24.71 51.272 37.069 4.959 3.582 13.803 8.398 21.574 13.585z" fill="#50ba4a" data-original="#50ba4a"/><g><path d="M365.95 400.025h-5.816l.312-9.744.383-11.97h4.426l.383 11.97z" fill="#ec771b" data-original="#ec771b"/><path d="M365.95 400.025h-2.797V378.31h2.102l.383 11.97z" fill="#c55732" data-original="#c55732"/><path d="M363.153 378.31v11.97h-2.707l.383-11.97z" fill="#c55732" data-original="#c55732"/><path d="M365.638 390.28h-2.485v-11.97h2.102z" fill="#a44e3e" data-original="#a44e3e"/><path d="M372.184 382.121a12.835 12.835 0 0 1-9.03 3.693c-3.265 0-6.53-1.231-9.031-3.693a12.427 12.427 0 0 1-2.394-14.513c2.503-4.924 5.117-9.79 7.245-14.887l4.18-10.014 4.173 9.994c2.13 5.106 4.749 9.98 7.255 14.91a12.43 12.43 0 0 1-2.398 14.51z" fill="#43af3e" data-original="#43af3e"/><path d="M372.184 382.121a12.835 12.835 0 0 1-9.03 3.693c-1.55 0-3.099-1.231-4.285-3.693-1.92-3.98-2.282-9.966-1.089-14.705 1.66-6.59 3.13-13.379 4.492-20.257l.881-4.452 4.173 9.994c2.13 5.105 4.749 9.978 7.255 14.91a12.429 12.429 0 0 1-2.397 14.51z" fill="#00a23e" data-original="#00a23e"/><path d="M372.184 382.121a12.835 12.835 0 0 1-9.03 3.693v-43.107l4.172 9.994c2.13 5.105 4.749 9.978 7.255 14.91a12.429 12.429 0 0 1-2.397 14.51z" fill="#008839" data-original="#008839"/></g><path d="M419.713 435.835a243.197 243.197 0 0 1-22.686 18.316 242.482 242.482 0 0 1-36.423 21.451c-27.122 12.949-57.019 21.024-88.559 23.076-5.063.332-10.155.503-15.295.522H256V371.036c13.452-6.261 27.54-10.916 42.104-9.472 8.436.846 16.359 3.686 23.902 7.553 8.711 4.474 16.92 10.317 24.861 16.064 17.091 12.35 34.181 24.71 51.272 37.069 4.959 3.582 13.803 8.398 21.574 13.585z" fill="#00a23e" data-original="#00a23e"/><path d="M360.604 475.602c-27.122 12.949-57.019 21.024-88.559 23.076-5.063.332-10.155.503-15.295.522H256c-27.37 0-53.704-4.531-78.261-12.872 26.942-12.084 50.711-33.896 78.261-43.463 12.141-4.218 25.023-6.061 39.244-3.638 8.38 1.434 16.236 4.55 23.76 8.502 7.837 4.114 15.323 9.139 22.648 14.108 6.165 4.17 12.483 8.882 18.952 13.765z" fill="#00a23e" data-original="#00a23e"/><g><path d="M136.241 83.765c0-.05-.004-.1-.004-.15 0-9.191 7.451-16.641 16.641-16.641 2.184 0 4.267.424 6.177 1.19 3.69-6.612 10.751-11.085 18.86-11.085 10.531 0 19.296 7.54 21.2 17.517a12.197 12.197 0 0 1 1.74-.126c5.725 0 10.522 3.964 11.804 9.296h-76.418z" fill="#fff" data-original="#ffffff"/><path d="M152.478 83.765l-.001-.086a9.57 9.57 0 0 1 13.121-8.886c2.122-3.802 6.183-6.373 10.845-6.373 6.055 0 11.095 4.336 12.19 10.073a6.984 6.984 0 0 1 7.787 5.273z" fill="#dff7fd" data-original="#dff7fd"/></g><g><path d="M476.222 188.715c0-.059.005-.116.005-.174 0-10.683-8.66-19.343-19.342-19.343-2.537 0-4.959.494-7.18 1.382-4.288-7.685-12.495-12.883-21.92-12.883-12.24 0-22.427 8.766-24.641 20.36a14.17 14.17 0 0 0-2.021-.146c-6.655 0-12.23 4.607-13.72 10.804z" fill="#fff" data-original="#ffffff"/><path d="M457.35 188.715l.002-.1c0-6.143-4.98-11.123-11.122-11.123-1.46 0-2.852.284-4.129.795-2.466-4.418-7.186-7.408-12.605-7.408-7.039 0-12.897 5.04-14.17 11.708a8.118 8.118 0 0 0-9.052 6.128z" fill="#dff7fd" data-original="#dff7fd"/></g><g><path d="M322.643 95.658c0-.059-.004-.116-.004-.175 0-10.682 8.66-19.342 19.343-19.342 2.537 0 4.959.494 7.18 1.383 4.289-7.685 12.496-12.883 21.921-12.883 12.24 0 22.427 8.765 24.641 20.359.66-.095 1.334-.146 2.02-.146 6.655 0 12.23 4.606 13.72 10.804z" fill="#fff" data-original="#ffffff"/><path d="M341.515 95.658c0-.033-.003-.066-.003-.1 0-6.143 4.98-11.123 11.123-11.123 1.46 0 2.852.284 4.129.795 2.466-4.419 7.185-7.408 12.605-7.408 7.038 0 12.896 5.04 14.17 11.708a8.118 8.118 0 0 1 9.052 6.13l-51.076-.001z" fill="#dff7fd" data-original="#dff7fd"/></g><g><path d="M318.846 169.034c0-.071.006-.141.006-.214 0-13.084-10.608-23.692-23.692-23.692-3.108 0-6.074.606-8.794 1.693-5.254-9.411-15.307-15.78-26.851-15.78-14.992 0-27.47 10.736-30.182 24.938a17.423 17.423 0 0 0-2.474-.18c-8.151 0-14.98 5.644-16.806 13.234h108.793z" fill="#fff" data-original="#ffffff"/><path d="M295.73 169.034c0-.04.004-.082.004-.122 0-7.524-6.1-13.623-13.623-13.623-1.788 0-3.493.347-5.057.973-3.021-5.412-8.802-9.074-15.44-9.074-8.62 0-15.796 6.174-17.356 14.34-.465-.066-.94-.102-1.423-.102-4.687 0-8.614 3.244-9.664 7.61h62.56z" fill="#dff7fd" data-original="#dff7fd"/></g><path d="M360.604 475.602c-27.122 12.949-57.019 21.024-88.559 23.076-5.063.332-10.155.503-15.295.522H256v-56.335c12.141-4.218 25.023-6.061 39.244-3.638 8.38 1.434 16.236 4.55 23.76 8.502 7.837 4.114 15.323 9.139 22.648 14.108 6.165 4.17 12.483 8.882 18.952 13.765z" fill="#008839" data-original="#008839"/><g><path d="M298.92 428.207h-5.992l.321-10.04.395-12.333h4.56l.395 12.334z" fill="#ec771b" data-original="#ec771b"/><path d="M298.92 428.207h-2.881v-22.373h2.166l.394 12.334zM296.039 405.834v12.334h-2.79l.395-12.334z" fill="#c55732" data-original="#c55732"/><path d="M298.599 418.168h-2.56v-12.334h2.166z" fill="#a44e3e" data-original="#a44e3e"/><path d="M305.344 409.76c-2.576 2.537-5.941 3.805-9.305 3.805s-6.728-1.268-9.306-3.805a12.804 12.804 0 0 1-2.466-14.954c2.58-5.073 5.274-10.087 7.465-15.338l4.307-10.318 4.298 10.297c2.196 5.26 4.894 10.282 7.476 15.363a12.804 12.804 0 0 1-2.47 14.95z" fill="#b6e337" data-original="#b6e337"/><path d="M305.344 409.76a13.225 13.225 0 0 1-9.305 3.805c-1.596 0-3.192-1.268-4.415-3.805-1.977-4.1-2.351-10.268-1.122-15.151 1.71-6.79 3.224-13.785 4.628-20.872l.909-4.587 4.298 10.297c2.196 5.26 4.894 10.282 7.476 15.363a12.804 12.804 0 0 1-2.47 14.95z" fill="#6cdc2d" data-original="#6cdc2d"/><path d="M305.344 409.76a13.225 13.225 0 0 1-9.305 3.805V369.15l4.298 10.297c2.196 5.26 4.894 10.282 7.476 15.363a12.805 12.805 0 0 1-2.47 14.951z" fill="#50ba4a" data-original="#50ba4a"/></g><g><path d="M371.311 452.205h-5.974l.32-10.01.394-12.297h4.547l.393 12.296z" fill="#ec771b" data-original="#ec771b"/><path d="M371.311 452.205h-2.873v-22.307h2.16l.393 12.296zM368.438 429.898v12.296h-2.781l.394-12.296z" fill="#c55732" data-original="#c55732"/><path d="M370.99 442.194h-2.552v-12.296h2.16z" fill="#a44e3e" data-original="#a44e3e"/><path d="M377.716 433.812a13.185 13.185 0 0 1-9.278 3.793 13.188 13.188 0 0 1-9.278-3.793 12.77 12.77 0 0 1-2.46-14.91c2.573-5.059 5.26-10.057 7.444-15.295l4.294-10.287 4.287 10.266c2.19 5.244 4.879 10.252 7.453 15.318a12.769 12.769 0 0 1-2.462 14.908z" fill="#43af3e" data-original="#43af3e"/><path d="M377.716 433.812a13.185 13.185 0 0 1-9.278 3.793c-1.591 0-3.182-1.265-4.402-3.793-1.971-4.09-2.345-10.24-1.118-15.107 1.704-6.771 3.215-13.745 4.615-20.81l.905-4.574 4.287 10.266c2.19 5.244 4.879 10.252 7.453 15.318a12.767 12.767 0 0 1-2.462 14.907z" fill="#00a23e" data-original="#00a23e"/><path d="M377.716 433.812a13.185 13.185 0 0 1-9.278 3.793v-44.286l4.287 10.266c2.19 5.244 4.879 10.252 7.453 15.318a12.77 12.77 0 0 1-2.462 14.909z" fill="#008839" data-original="#008839"/></g><g><path d="M178.355 422.283h-5.974l.32-10.01.392-12.298h4.548l.393 12.298z" fill="#ec771b" data-original="#ec771b"/><path d="M178.355 422.283h-2.873v-22.308h2.16l.392 12.298zM175.482 399.975v12.298H172.7l.393-12.298z" fill="#c55732" data-original="#c55732"/><path d="M178.034 412.273h-2.552v-12.298h2.16z" fill="#a44e3e" data-original="#a44e3e"/><path d="M184.76 403.89a13.185 13.185 0 0 1-9.278 3.793 13.188 13.188 0 0 1-9.278-3.794 12.77 12.77 0 0 1-2.46-14.91c2.572-5.058 5.259-10.057 7.444-15.294l4.294-10.287 4.286 10.266c2.19 5.244 4.88 10.252 7.454 15.318a12.768 12.768 0 0 1-2.463 14.907z" fill="#b6e337" data-original="#b6e337"/><path d="M184.76 403.89a13.185 13.185 0 0 1-9.278 3.793c-1.591 0-3.183-1.265-4.403-3.794-1.97-4.088-2.343-10.239-1.118-15.107 1.705-6.77 3.215-13.744 4.614-20.81l.906-4.574 4.286 10.267c2.19 5.244 4.88 10.252 7.454 15.318a12.765 12.765 0 0 1-2.462 14.906z" fill="#6cdc2d" data-original="#6cdc2d"/><path d="M184.76 403.89a13.185 13.185 0 0 1-9.278 3.793v-44.285l4.286 10.266c2.19 5.244 4.88 10.252 7.454 15.318a12.768 12.768 0 0 1-2.463 14.907z" fill="#50ba4a" data-original="#50ba4a"/></g></g></svg>