<svg xmlns="http://www.w3.org/2000/svg" width="512" height="512" style="enable-background:new 0 0 512 512" xml:space="preserve"><circle r="256" cx="256" cy="256" fill="#3e8ed0"/><g xmlns="http://www.w3.org/2000/svg"><path d="M499.2 256l-10.488 10.488c-130.083 130.083-339.587 134.51-475.057 10.041-.095-1.12-.18-2.251-.256-3.372A244.207 244.207 0 0 1 12.8 256c0-43.909 11.638-85.091 31.996-120.65C86.71 62.134 165.598 12.8 256 12.8s169.29 49.334 211.204 122.55a241.542 241.542 0 0 1 26.742 70.167 243.729 243.729 0 0 1 5.244 48.089v.532c.01.618.01 1.245.01 1.862z" fill="#92eaff"/><path d="M499.2 256l-10.488 10.488c-130.083 130.083-339.587 134.51-475.057 10.041A244.667 244.667 0 0 1 12.8 256c0-43.909 11.638-85.091 31.996-120.65C86.71 208.567 165.598 257.9 256 257.9s169.29-49.333 211.204-122.55C487.562 170.909 499.2 212.091 499.2 256z" fill="#63dbfa"/><path d="M499.2 256c0 34.76-7.296 67.811-20.434 97.707L357.43 389.77a335.493 335.493 0 0 1-201.808-3.344L29.33 344.274c-8.303-21.29-13.69-44.032-15.675-67.745 5.101-3.03 9.566-5.69 13.271-7.904a3176.69 3176.69 0 0 0 62.928-38.608c17.043-10.716 39.986-29.374 61.408-26.429 14.184 1.948 25.156 13.082 34.419 23.988 9.262 10.915 18.791 22.81 32.357 27.35 12.264 4.104 25.07 1.416 37.962-1.643 12.901-3.04 25.897-6.45 38.551-3.743 21.821 4.665 36.66 24.196 58.026 29.82 38.076 10.013 59.232-29.545 84.768-48.032 7.714-5.585 17.471-9.062 26.819-7.257 11.998 2.318 20.691 12.416 28.395 21.897l6.631 8.17c.01.617.01 1.244.01 1.862z" fill="#b6e337"/><path d="M499.2 256c0 34.76-7.296 67.811-20.434 97.707L357.43 389.77A335.197 335.197 0 0 1 256 403.62V253.284c12.901-3.04 25.897-6.45 38.551-3.743 21.821 4.665 36.66 24.196 58.026 29.82 38.076 10.013 59.233-29.545 84.769-48.032 7.714-5.585 17.47-9.062 26.818-7.257 11.998 2.318 20.691 12.416 28.395 21.897l6.631 8.17c.01.617.01 1.244.01 1.862z" fill="#6cdc2d"/><path d="M478.765 353.708a242.696 242.696 0 0 1-20.548 37.439H256v-70.005c8.588.484 16.093 6.593 23.303 11.647 7.857 5.5 18.45 10.089 26.667 5.139 11.257-6.783 26.723-14.64 37.107-6.574 12.35 9.595 20.852 24.197 37.715 11.999 6.128-4.437 12.759-10.108 20.188-8.702 8.597 1.634 13.09 11.979 21.479 14.497 13.794 4.142 24.225-14.288 36.822-9.348 4.864 1.909 8.56 5.88 12.616 9.186a51.472 51.472 0 0 0 6.869 4.722z" fill="#53af17"/><path d="M478.765 353.708a241.686 241.686 0 0 1-13.366 26.03 232.678 232.678 0 0 1-7.201 11.409 244.676 244.676 0 0 1-14.031 18.915l-21.546 10.24C317.284 470.405 195.38 472.23 88.6 425.31l-12.246-5.387h-.01a243.243 243.243 0 0 1-29.212-39.282 240.53 240.53 0 0 1-17.803-36.366c7.581-5.767 15.59-12.483 24.681-10.507 8.142 1.767 14.754 10.041 22.971 8.711 11.087-1.805 14.62-19.532 25.85-19.921 12.635-.437 15.114 20.634 27.236 24.206 8.313 2.451 16.245-4.645 21.337-11.647 5.092-7.011 10.431-15.285 18.981-16.663 16.369-2.631 26.154 21.584 42.722 22.42 15.314.779 25.241-18.706 40.546-19.731a16.12 16.12 0 0 1 2.346 0c8.588.484 16.093 6.593 23.303 11.647 7.857 5.5 18.45 10.089 26.667 5.139 11.257-6.783 26.723-14.64 37.107-6.574 12.35 9.595 20.852 24.196 37.715 11.998 6.128-4.436 12.759-10.108 20.188-8.702 8.597 1.634 13.09 11.98 21.479 14.497 13.794 4.142 24.225-14.288 36.822-9.348 4.864 1.91 8.56 5.881 12.616 9.187a51.472 51.472 0 0 0 6.869 4.721z" fill="#53af17"/><path d="M281.935 294.29H83.515l99.21-99.182z" fill="#b15848"/><path d="M281.935 294.29h-99.21v-99.182z" fill="#a44e3e"/><path d="M407.868 344.714v11.142H226.563v-61.565h130.895z" fill="#913d31"/><path d="M256 294.295v125.628H109.434V294.295l19.266-19.266 54.026-54.017z" fill="#ffc0a4"/><g fill="#ffa87a"><path d="M256 294.29v125.632h-73.275V221.015z"/><path d="M109.437 294.29H256v25.138H109.437zM109.437 344.551H256v25.124H109.437zM109.437 394.799H256v25.123H109.437z"/></g><path d="M128.7 275.028v144.894h-19.266V294.294zM182.725 294.29H256v25.138h-73.275zM182.725 344.551H256v25.124h-73.275zM182.725 394.799H256v25.123h-73.275z" fill="#f99568"/><path d="M236.734 275.028v144.894H256V294.294z" fill="#ed784a"/><path d="M256 344.711h151.876v75.212H256z" fill="#f99568"/><path d="M256 344.551h151.868v25.124H256zM256 394.799h151.868v25.123H256z" fill="#ed784a"/><path d="M388.601 344.711h19.266v75.212h-19.266z" fill="#d85e39"/><path d="M173.825 314.387v22.43a46.48 46.48 0 0 1-36.252.104l-.256-.104v-22.43c0-3.961 3.22-7.163 7.182-7.163h22.163a7.156 7.156 0 0 1 7.163 7.163z" fill="#b15848"/><path d="M173.825 314.387v22.43a46.42 46.42 0 0 1-18.107 3.733v-33.326h10.944a7.156 7.156 0 0 1 7.163 7.163z" fill="#a44e3e"/><path d="M163.746 317.696v19.121h-16.054v-19.121c0-.775.628-1.403 1.404-1.403h13.247c.776 0 1.403.628 1.403 1.403z" fill="#fff"/><path d="M163.746 317.696v19.121h-8.024v-20.524h6.621c.776 0 1.403.628 1.403 1.403z" fill="#d0f6ff"/><path d="M137.317 336.817h36.51v7.734h-36.51z" fill="#ed784a"/><path d="M155.72 336.817h18.107v7.734H155.72z" fill="#d85e39"/><path d="M228.127 314.387v22.43a46.503 46.503 0 0 1-36.261.104l-.248-.104v-22.43a7.164 7.164 0 0 1 7.173-7.163h22.163a7.164 7.164 0 0 1 7.173 7.163z" fill="#b15848"/><path d="M228.127 314.387v22.43a46.386 46.386 0 0 1-18.107 3.733v-33.326h10.934a7.164 7.164 0 0 1 7.173 7.163z" fill="#a44e3e"/><path d="M218.044 317.696v19.121H201.99v-19.121c0-.775.628-1.403 1.403-1.403h13.248c.775 0 1.403.628 1.403 1.403z" fill="#fff"/><path d="M218.044 317.696v19.121h-8.024v-20.524h6.621c.775 0 1.403.628 1.403 1.403z" fill="#d0f6ff"/><path d="M191.616 336.817h36.51v7.734h-36.51z" fill="#ed784a"/><path d="M210.018 336.817h18.106v7.734h-18.106z" fill="#d85e39"/><g><path d="M320.381 364.632v22.43a46.397 46.397 0 0 1-36.252.104l-.256-.104v-22.43c0-3.961 3.22-7.163 7.182-7.163h22.163a7.156 7.156 0 0 1 7.163 7.163z" fill="#a44e3e"/><path d="M320.381 364.632v22.43a46.431 46.431 0 0 1-18.107 3.743v-33.336h10.944a7.156 7.156 0 0 1 7.163 7.163z" fill="#913d31"/><path d="M310.303 367.943v19.122h-16.054v-19.122c0-.775.628-1.403 1.403-1.403H308.9c.775 0 1.403.628 1.403 1.403z" fill="#fff"/><path d="M310.303 367.943v19.122h-8.025V366.54h6.622c.775 0 1.403.628 1.403 1.403z" fill="#d0f6ff"/><path d="M283.874 387.064h36.51v7.735h-36.51z" fill="#ed784a"/><path d="M302.277 387.064h18.106v7.735h-18.106z" fill="#d85e39"/><g><path d="M381.153 364.632v22.43a46.42 46.42 0 0 1-36.261.104l-.247-.104v-22.43c0-3.961 3.22-7.163 7.182-7.163h22.163a7.156 7.156 0 0 1 7.163 7.163z" fill="#a44e3e"/><path d="M381.153 364.632v22.43a46.431 46.431 0 0 1-18.107 3.743v-33.336h10.944a7.156 7.156 0 0 1 7.163 7.163z" fill="#913d31"/><path d="M371.073 367.943v19.122h-16.054v-19.122c0-.775.627-1.403 1.403-1.403h13.247c.775 0 1.404.628 1.404 1.403z" fill="#fff"/><path d="M371.073 367.943v19.122h-8.025V366.54h6.621c.775 0 1.404.628 1.404 1.403z" fill="#d0f6ff"/><path d="M344.644 387.064h36.509v7.735h-36.51z" fill="#ed784a"/><path d="M363.047 387.064h18.106v7.735h-18.106z" fill="#d85e39"/></g></g><g><path d="M213.352 372.285v7.531a3.958 3.958 0 0 1-3.962 3.962h-53.25a3.97 3.97 0 0 1-3.974-3.962v-7.531c0-8.749 7.1-15.848 15.848-15.848h29.49c8.763 0 15.848 7.1 15.848 15.848z" fill="#f99568"/><path d="M213.352 372.285v7.531a3.958 3.958 0 0 1-3.962 3.962h-26.664v-27.341h14.779c8.762 0 15.847 7.1 15.847 15.848z" fill="#ed784a"/><path d="M203.89 372.283v47.64h-42.254v-47.64a6.382 6.382 0 0 1 6.382-6.382h29.49a6.382 6.382 0 0 1 6.383 6.382z" fill="#b15848"/><path d="M203.89 372.283v47.64h-21.12V365.9h14.738a6.382 6.382 0 0 1 6.383 6.382z" fill="#a44e3e"/></g><path d="M195.354 265.813c0 6.977-5.652 12.63-12.63 12.63s-12.629-5.653-12.629-12.63 5.653-12.629 12.63-12.629c6.977 0 12.629 5.653 12.629 12.63z" fill="#fff"/><path d="M195.354 265.813c0 6.977-5.652 12.63-12.63 12.63v-25.26c6.978.001 12.63 5.654 12.63 12.63z" fill="#d0f6ff"/><path d="M182.725 249.385c-9.074 0-16.416 7.356-16.416 16.43 0 9.059 7.342 16.415 16.416 16.415s16.415-7.356 16.415-16.416c0-9.073-7.342-16.429-16.415-16.429zm0 24.704a8.275 8.275 0 1 1 8.275-8.275 8.274 8.274 0 0 1-8.275 8.275z" fill="#ed784a"/><path d="M199.14 265.813c0 9.06-7.342 16.416-16.414 16.416v-8.141a8.275 8.275 0 1 0 0-16.55v-8.155c9.072.002 16.415 7.358 16.415 16.43z" fill="#d85e39"/><g><path d="M429.754 421.335h-6.234l.643-20.123.79-24.72h9.142l.79 24.72.459 14.35a5.593 5.593 0 0 1-5.59 5.773z" fill="#ec771b"/><path d="M429.754 421.335v-44.843h4.34l.791 24.72.459 14.35a5.593 5.593 0 0 1-5.59 5.773zM429.754 396.758v-20.266h-4.8l-.65 20.266z" fill="#c55732"/><path d="M434.743 396.758l-.648-20.266h-4.341v20.266z" fill="#a44e3e"/><path d="M448.404 384.36c-5.164 5.085-11.907 7.627-18.65 7.627-6.741 0-13.484-2.542-18.65-7.627a25.665 25.665 0 0 1-4.944-29.972c5.17-10.168 10.57-20.217 14.962-30.744l8.632-20.68 8.617 20.638c4.4 10.542 9.807 20.607 14.982 30.792a25.664 25.664 0 0 1-4.949 29.966z" fill="#b6e337"/><path d="M448.404 384.36c-5.164 5.085-11.907 7.627-18.65 7.627-3.199 0-6.397-2.542-8.848-7.627-3.963-8.22-4.712-20.582-2.248-30.368 3.427-13.611 6.463-27.63 9.277-41.833l1.82-9.196 8.617 20.639c4.4 10.542 9.807 20.607 14.982 30.792a25.666 25.666 0 0 1-4.95 29.966z" fill="#6cdc2d"/><path d="M448.404 384.36c-5.164 5.085-11.907 7.627-18.65 7.627v-89.023l8.617 20.639c4.4 10.542 9.807 20.607 14.982 30.792a25.663 25.663 0 0 1-4.949 29.965z" fill="#5dbf1d"/></g><path d="M444.195 410.042a16.308 16.308 0 0 0-13.148-6.63c-2.147 0-4.199.417-6.08 1.168-3.629-6.498-10.574-10.906-18.544-10.906-10.355 0-18.971 7.42-20.852 17.233a11.934 11.934 0 0 0-13.31 9.016h-93.22c0-.05.004-.098.004-.148 0-9.038-7.327-16.365-16.366-16.365-2.147 0-4.196.418-6.074 1.169-3.629-6.502-10.572-10.9-18.547-10.9-10.356 0-18.975 7.416-20.848 17.226a12.072 12.072 0 0 0-1.71-.123c-5.63 0-10.347 3.897-11.608 9.14h-45.238c0-.049.003-.097.003-.147 0-9.038-7.327-16.365-16.365-16.365-2.147 0-4.196.418-6.075 1.169-3.629-6.502-10.572-10.9-18.546-10.9-10.356 0-18.976 7.416-20.85 17.226a12.072 12.072 0 0 0-1.708-.123c-5.63 0-10.348 3.897-11.61 9.14h-7.157a244.386 244.386 0 0 0 46.53 39.634l12.341 3.677a423.276 423.276 0 0 0 241.566 0l12.34-3.677a244.386 244.386 0 0 0 46.532-39.634h-.01a228.26 228.26 0 0 0 8.55-9.88z" fill="#b6e337"/><path d="M431.44 419.923l.001-.085a9.41 9.41 0 0 0-12.904-8.738c-2.087-3.738-6.08-6.268-10.665-6.268-5.955 0-10.911 4.264-11.988 9.905a6.87 6.87 0 0 0-7.658 5.185H263.073l.002-.084a9.41 9.41 0 0 0-12.904-8.738c-2.087-3.738-6.08-6.268-10.666-6.268-5.954 0-10.91 4.264-11.988 9.905a6.87 6.87 0 0 0-7.659 5.185H256v60.905c40.688 0 81.377-5.862 120.783-17.594l12.34-3.677a244.386 244.386 0 0 0 46.531-39.634z" fill="#6cdc2d"/><g><path d="M89.74 419.923h-8.178l.437-13.704.539-16.834h6.225l.539 16.834z" fill="#ec771b"/><path d="M89.74 419.923h-3.933v-30.538h2.956l.539 16.834z" fill="#c55732"/><path d="M85.807 404.107v-14.722h-3.27l-.47 14.722z" fill="#c55732"/><path d="M89.234 404.107l-.471-14.722h-2.956v14.722z" fill="#a44e3e"/><path d="M98.507 394.743c-3.517 3.463-8.11 5.193-12.7 5.193s-9.183-1.73-12.701-5.193a17.479 17.479 0 0 1-3.367-20.411c3.52-6.924 7.197-13.767 10.19-20.936l5.878-14.084 5.868 14.055c2.997 7.18 6.678 14.034 10.203 20.97a17.477 17.477 0 0 1-3.37 20.406z" fill="#b6e337"/><path d="M98.507 394.743a18.049 18.049 0 0 1-12.7 5.193c-2.179 0-4.357-1.73-6.026-5.193-2.698-5.598-3.21-14.017-1.53-20.68 2.332-9.269 4.4-18.816 6.317-28.488l1.24-6.263 5.868 14.055c2.997 7.18 6.678 14.034 10.203 20.97a17.478 17.478 0 0 1-3.372 20.406z" fill="#6cdc2d"/><path d="M98.507 394.743a18.049 18.049 0 0 1-12.7 5.193v-60.623l5.868 14.055c2.997 7.18 6.678 14.034 10.203 20.97a17.475 17.475 0 0 1-3.37 20.405z" fill="#5dbf1d"/></g><g><path d="M389.123 459.556C350.876 484.627 305.143 499.2 256 499.2s-94.876-14.573-133.123-39.643z" fill="#b15848"/></g><path d="M389.123 459.556C350.876 484.627 305.143 499.2 256 499.2v-39.643z" fill="#a44e3e"/><g><path d="M92.622 121.544c-.001-.08-.006-.159-.006-.239 0-14.586 11.825-26.41 26.41-26.41 3.466 0 6.772.675 9.803 1.888 5.857-10.492 17.063-17.591 29.932-17.591 16.712 0 30.622 11.968 33.645 27.8.902-.13 1.821-.2 2.759-.2 9.086 0 16.699 6.29 18.734 14.752z" fill="#fff"/><path d="M118.39 121.544c0-.046-.003-.092-.003-.137 0-8.388 6.799-15.187 15.187-15.187 1.992 0 3.894.388 5.637 1.086 3.368-6.033 9.811-10.116 17.21-10.116 9.611 0 17.61 6.882 19.348 15.986a11.197 11.197 0 0 1 1.586-.115c5.225 0 9.603 3.617 10.772 8.483z" fill="#dff7fd"/></g><g><path d="M335.538 210.95c0-.08.005-.158.005-.238 0-14.587-11.824-26.41-26.41-26.41-3.465 0-6.771.674-9.803 1.887-5.856-10.492-17.062-17.59-29.931-17.59-16.713 0-30.623 11.967-33.645 27.799-.902-.13-1.822-.2-2.76-.2-9.085 0-16.698 6.29-18.733 14.752z" fill="#fff"/><path d="M309.77 210.95l.002-.137c0-8.387-6.8-15.186-15.187-15.186-1.993 0-3.894.387-5.637 1.084-3.368-6.033-9.812-10.115-17.211-10.115-9.61 0-17.608 6.882-19.347 15.986a11.197 11.197 0 0 0-1.586-.115c-5.225 0-9.603 3.616-10.773 8.482h69.738z" fill="#dff7fd"/></g><g><path d="M421.415 125.987c0-.051.004-.102.004-.152 0-9.339-7.57-16.908-16.908-16.908-2.219 0-4.335.431-6.276 1.208-3.75-6.717-10.924-11.262-19.162-11.262-10.7 0-19.605 7.663-21.54 17.797a12.445 12.445 0 0 0-1.767-.127c-5.817 0-10.691 4.027-11.994 9.444z" fill="#fff"/><path d="M404.917 125.987l.002-.088c0-5.369-4.353-9.722-9.722-9.722a9.694 9.694 0 0 0-3.61.695c-2.155-3.863-6.28-6.477-11.018-6.477-6.152 0-11.273 4.407-12.386 10.235a7.098 7.098 0 0 0-7.913 5.358h44.647z" fill="#dff7fd"/></g></g></svg>