<svg xmlns="http://www.w3.org/2000/svg" width="512" height="512" style="enable-background:new 0 0 512 512" xml:space="preserve"><circle r="256" cx="256" cy="256" fill="#ffdd57"/><g xmlns="http://www.w3.org/2000/svg"><path d="M499.2 256a244.468 244.468 0 0 1-5.7 52.554l-14.221 9.519c-136.487 91.314-313.225 96.34-454.68 12.92l-.01.01a243.714 243.714 0 0 1-3.932-13.462 239.299 239.299 0 0 1-4.313-19.988 239.243 239.243 0 0 1-2.945-24.396A244.207 244.207 0 0 1 12.8 256c0-43.909 11.638-85.092 31.996-120.65C86.71 62.133 165.598 12.8 256 12.8s169.29 49.333 211.204 122.55a241.542 241.542 0 0 1 26.743 70.167A243.729 243.729 0 0 1 499.2 256z" fill="#92eaff" data-original="#92eaff"/><path d="M499.2 256c0 18.04-1.966 35.625-5.7 52.554l-14.221 9.519c-136.487 91.314-313.225 96.34-454.68 12.92a237.768 237.768 0 0 1-3.942-13.452C15.536 297.885 12.8 277.261 12.8 256c0-43.909 11.638-85.092 31.996-120.65C86.71 208.566 165.598 257.9 256 257.9s169.29-49.334 211.204-122.55C487.563 170.908 499.2 212.091 499.2 256z" fill="#63dbfa" data-original="#63dbfa"/><path d="M471.26 369.278a243.578 243.578 0 0 1-36.137 51.224 216.836 216.836 0 0 1-7.714 7.97c-32.234 31.673-76.979 56.487-123.31 65.95-2.309.474-4.617.902-6.926 1.301A244.071 244.071 0 0 1 256 499.2h-.788a244.787 244.787 0 0 1-47.32-4.76c-47.633-9.547-90.212-33.022-123.357-65.968a247.288 247.288 0 0 1-8.721-9.129c-13.68-15.086-25.498-31.892-35.065-50.065z" fill="#6cdc2d" data-original="#6cdc2d"/><path d="M471.26 369.278a243.578 243.578 0 0 1-36.137 51.224 216.836 216.836 0 0 1-7.714 7.97H84.535a247.288 247.288 0 0 1-8.721-9.129c-13.68-15.086-25.498-31.892-35.065-50.065z" fill="#b6e337" data-original="#b6e337"/><path d="M304.099 494.421c-2.309.475-4.617.903-6.926 1.302A244.071 244.071 0 0 1 256 499.2h-.788a244.787 244.787 0 0 1-47.32-4.76l25.84-125.162h44.536z" fill="#7e7f92" data-original="#7e7f92"/><path d="M304.099 494.421c-2.309.475-4.617.903-6.926 1.302A244.071 244.071 0 0 1 256 499.2V369.278h22.268z" fill="#6e6f83" data-original="#6e6f83"/><path d="M263.201 499.106c-2.394.06-4.788.094-7.201.094s-4.807-.034-7.201-.094l1.017-31.653h12.369z" fill="#fff" data-original="#ffffff"/><path d="M263.201 499.106c-2.394.06-4.788.094-7.201.094v-31.747h6.185z" fill="#d0f6ff" data-original="#d0f6ff"/><path d="M256 168.562v200.716h-62.149V120.416l31.065 24.063z" fill="#fff" data-original="#ffffff"/><path d="M256 168.562v200.716h-31.084V144.479z" fill="#dff7fd" data-original="#dff7fd"/><path d="M256 241.009h63.118v128.269H256z" fill="#fffce4" data-original="#fffce4"/><path d="M120.654 295.434v73.844H40.749a240.103 240.103 0 0 1-16.15-38.285v-3.753c0-17.565 14.24-31.806 31.806-31.806z" fill="#65b2fe" data-original="#65b2fe"/><path d="M120.654 295.434v73.844H61.8V327.24c0-17.565 14.24-31.806 31.806-31.806z" fill="#159de4" data-original="#159de4"/><path d="M151.833 212.556v156.722H88.724V245.996l31.559-16.72z" fill="#fff" data-original="#ffffff"/><path d="M151.833 212.556v156.722h-31.55V229.276z" fill="#dff7fd" data-original="#dff7fd"/><path d="M493.5 268.92v39.634a233.597 233.597 0 0 1-2.166 8.987 241.27 241.27 0 0 1-20.073 51.737h-46.037v-155.61l34.143 15.599 12.236 5.586A37.446 37.446 0 0 1 493.5 268.92z" fill="#65b2fe" data-original="#65b2fe"/><path d="M493.5 268.92v39.634a233.597 233.597 0 0 1-2.166 8.987 241.27 241.27 0 0 1-20.073 51.737h-11.894V229.267l12.236 5.586A37.446 37.446 0 0 1 493.5 268.92z" fill="#159de4" data-original="#159de4"/><path d="M425.224 181.567h11.096v87.524h-11.096z" fill="#6e6f83" data-original="#6e6f83"/><path d="M430.772 181.567h5.548v87.524h-5.548z" fill="#605f74" data-original="#605f74"/><path d="M493.5 268.92s-14.896.085-34.133.171c-10.65.038-22.63.076-34.143.104v-55.527l34.143 15.599 12.236 5.586A37.446 37.446 0 0 1 493.5 268.92zM362.111 152.535v216.743h-42.998V195.532c0-23.747 19.251-42.997 42.998-42.997z" fill="#fff" data-original="#ffffff"/><path d="M362.111 152.535v216.743h-21.5V195.532c0-23.747 9.627-42.997 21.5-42.997z" fill="#dff7fd" data-original="#dff7fd"/><path d="M287.556 241.009h31.556v128.269h-31.556z" fill="#f3e6d0" data-original="#f3e6d0"/><path d="M151.835 283.886h42.016v85.392h-42.016z" fill="#fffce4" data-original="#fffce4"/><path d="M172.844 283.886h21.008v85.392h-21.008z" fill="#f3e6d0" data-original="#f3e6d0"/><path d="M362.111 280.41h63.113v88.868h-63.113z" fill="#fffce4" data-original="#fffce4"/><path d="M393.668 280.41h31.556v88.868h-31.556z" fill="#f3e6d0" data-original="#f3e6d0"/><path d="M388.117 219.491h11.096v54.958h-11.096z" fill="#fff" data-original="#ffffff"/><path d="M393.665 219.491h5.548v54.958h-5.548z" fill="#dff7fd" data-original="#dff7fd"/><path d="M362.115 268.492h72.476v11.913h-72.476z" fill="#7e7f92" data-original="#7e7f92"/><path d="M256 168.562v27.455h-62.149v-75.601l31.065 24.063z" fill="#65b2fe" data-original="#65b2fe"/><path d="M279.38 89.455c.19-.494.418-.636.674-.38.266.266.029.39-.674.38z" fill="#f3e6d0" data-original="#f3e6d0"/><path d="M256 168.562v27.455h-31.084v-51.538z" fill="#159de4" data-original="#159de4"/><path d="M129.99 341.93h63.861v27.348h-63.86z" fill="#65b2fe" data-original="#65b2fe"/><path d="M480.666 349.261a237.563 237.563 0 0 1-9.424 20.017H278.268c0-11.049 8.959-20.017 20.017-20.017z" fill="#fff" data-original="#ffffff"/><path d="M493.5 268.92s-14.896.085-34.133.171v-39.824l12.236 5.586A37.446 37.446 0 0 1 493.5 268.92z" fill="#dff7fd" data-original="#dff7fd"/><path d="M151.833 212.556v33.44H88.724l31.559-16.72z" fill="#65b2fe" data-original="#65b2fe"/><path d="M151.833 212.556v33.44h-31.55v-16.72z" fill="#159de4" data-original="#159de4"/><path d="M393.665 268.492h40.926v11.913h-40.926z" fill="#6e6f83" data-original="#6e6f83"/><path d="M260.066 402.003h-8.132l1.055-32.725h6.023zM261.653 451.085h-11.305l1.168-36.102h8.968z" fill="#fff" data-original="#ffffff"/><path d="M260.066 402.003H256v-32.725h3.012zM261.653 451.085H256v-36.102h4.484z" fill="#d0f6ff" data-original="#d0f6ff"/><path d="M187.448 176.695c.001-.087.007-.173.007-.26 0-15.896-12.887-28.783-28.783-28.783-3.777 0-7.38.735-10.684 2.057-6.383-11.434-18.595-19.172-32.621-19.172-18.214 0-33.374 13.044-36.668 30.298a21.203 21.203 0 0 0-3.007-.218c-9.903 0-18.2 6.855-20.417 16.078z" fill="#fff" data-original="#ffffff"/><path d="M159.364 176.695c0-.05.004-.099.004-.15 0-9.14-7.41-16.55-16.551-16.55-2.172 0-4.244.423-6.144 1.183-3.67-6.575-10.693-11.024-18.757-11.024-10.473 0-19.19 7.5-21.086 17.422a12.203 12.203 0 0 0-1.729-.126c-5.694 0-10.465 3.942-11.74 9.246h76.003z" fill="#dff7fd" data-original="#dff7fd"/><path d="M301.078 89.093c0-.06.004-.118.004-.177 0-10.843-8.79-19.634-19.633-19.634-2.577 0-5.034.502-7.288 1.403-4.354-7.8-12.684-13.077-22.252-13.077-12.424 0-22.765 8.897-25.012 20.666a14.447 14.447 0 0 0-2.051-.148c-6.755 0-12.415 4.676-13.927 10.967z" fill="#fff" data-original="#ffffff"/><path d="M281.92 89.093c0-.035.004-.068.004-.102 0-6.235-5.055-11.29-11.29-11.29a11.25 11.25 0 0 0-4.19.807c-2.504-4.485-7.295-7.52-12.796-7.52-7.144 0-13.09 5.115-14.383 11.883a8.24 8.24 0 0 0-9.187 6.22h51.843z" fill="#dff7fd" data-original="#dff7fd"/><path d="M444.292 133.597c0-.07.005-.137.005-.206 0-12.656-10.26-22.915-22.915-22.915-3.007 0-5.875.585-8.506 1.638-5.081-9.103-14.803-15.263-25.97-15.263-14.5 0-26.568 10.385-29.192 24.12a16.853 16.853 0 0 0-2.393-.172c-7.884 0-14.49 5.458-16.255 12.8h105.226z" fill="#fff" data-original="#ffffff"/><path d="M421.934 133.597c0-.04.003-.079.003-.119 0-7.277-5.9-13.176-13.177-13.176-1.729 0-3.378.336-4.89.941-2.923-5.234-8.514-8.776-14.934-8.776-8.338 0-15.278 5.971-16.786 13.87a9.67 9.67 0 0 0-1.377-.1c-4.533 0-8.331 3.138-9.347 7.36z" fill="#dff7fd" data-original="#dff7fd"/><path d="M256 239.375h63.118v12.492H256z" fill="#65b2fe" data-original="#65b2fe"/><path d="M287.559 239.375h31.559v12.492h-31.559z" fill="#159de4" data-original="#159de4"/><path d="M266.555 262.95h42.009v12.492h-42.01z" fill="#605f74" data-original="#605f74"/><path d="M287.559 262.95h21.005v12.492h-21.005z" fill="#58586b" data-original="#58586b"/><path d="M266.555 285.227h42.009v12.492h-42.01z" fill="#605f74" data-original="#605f74"/><path d="M287.559 285.227h21.005v12.492h-21.005z" fill="#58586b" data-original="#58586b"/><path d="M266.555 307.504h42.009v12.493h-42.01z" fill="#605f74" data-original="#605f74"/><path d="M287.559 307.504h21.005v12.493h-21.005z" fill="#58586b" data-original="#58586b"/><path d="M201.55 214.08h15.588v15.588H201.55z" fill="#7e7f92" data-original="#7e7f92"/><path d="M217.14 214.08h15.588v15.588h-15.589zM232.728 214.08h15.588v15.588h-15.588z" fill="#605f74" data-original="#605f74"/><path d="M201.55 229.668h15.588v15.588H201.55z" fill="#58586b" data-original="#58586b"/><g fill="#605f74"><path d="M217.14 229.668h15.588v15.588h-15.589zM232.728 229.668h15.588v15.588h-15.588zM201.55 245.256h15.588v15.589H201.55z" data-original="#605f74"/></g><path d="M217.14 245.256h15.588v15.589h-15.589z" fill="#7e7f92" data-original="#7e7f92"/><path d="M232.728 245.256h15.588v15.589h-15.588zM201.55 260.845h15.588v15.589H201.55z" fill="#605f74" data-original="#605f74"/><path d="M217.14 260.845h15.588v15.589h-15.589z" fill="#58586b" data-original="#58586b"/><path d="M232.728 260.845h15.588v15.589h-15.588zM201.55 276.434h15.588v15.588H201.55z" fill="#7e7f92" data-original="#7e7f92"/><path d="M217.14 276.434h15.588v15.588h-15.589z" fill="#58586b" data-original="#58586b"/><path d="M232.728 276.434h15.588v15.588h-15.588z" fill="#605f74" data-original="#605f74"/><path d="M201.55 292.022h15.588v15.589H201.55z" fill="#7e7f92" data-original="#7e7f92"/><path d="M217.14 292.022h15.588v15.589h-15.589z" fill="#605f74" data-original="#605f74"/><path d="M232.728 292.022h15.588v15.589h-15.588z" fill="#58586b" data-original="#58586b"/><path d="M201.55 307.612h15.588V323.2H201.55z" fill="#605f74" data-original="#605f74"/><path d="M217.14 307.612h15.588V323.2h-15.589z" fill="#7e7f92" data-original="#7e7f92"/><path d="M232.728 307.612h15.588V323.2h-15.588z" fill="#58586b" data-original="#58586b"/><path d="M201.55 323.2h15.588v15.589H201.55zM217.14 323.2h15.588v15.589h-15.589z" fill="#605f74" data-original="#605f74"/><path d="M232.728 323.2h15.588v15.589h-15.588zM201.55 338.789h15.588v15.588H201.55z" fill="#7e7f92" data-original="#7e7f92"/><path d="M217.14 338.789h15.588v15.588h-15.589zM232.728 338.789h15.588v15.588h-15.588z" fill="#605f74" data-original="#605f74"/></g></svg>