<svg xmlns="http://www.w3.org/2000/svg" width="512" height="512" style="enable-background:new 0 0 512 512" xml:space="preserve"><circle r="256" cx="256" cy="256" fill="#ffdd57"/><g xmlns="http://www.w3.org/2000/svg"><path d="M499.2 256c0 94.734-54.178 176.823-133.237 216.97a473.856 473.856 0 0 1-219.926-.009h-.009C66.969 432.824 12.8 350.734 12.8 256c0-43.909 11.637-85.091 31.996-120.65C86.71 62.134 165.598 12.8 256 12.8s169.29 49.334 211.204 122.55C487.562 170.909 499.2 212.091 499.2 256z" fill="#374c81"/><path d="M499.2 256c0 94.734-54.178 176.823-133.237 216.97a473.856 473.856 0 0 1-219.926-.009h-.009C66.969 432.824 12.8 350.734 12.8 256c0-43.909 11.637-85.091 31.996-120.65C86.71 208.567 165.598 257.9 256 257.9s169.29-49.333 211.204-122.55C487.562 170.909 499.2 212.091 499.2 256z" fill="#2d4472"/><path d="M108.356 156.087h-1.545c-6.843 0-12.39-5.547-12.39-12.39v-1.545H85.59v1.545c0 6.843-5.547 12.39-12.39 12.39h-1.545v8.832H73.2c6.843 0 12.39 5.547 12.39 12.39v1.544h8.832v-1.544c0-6.843 5.547-12.39 12.39-12.39h1.545zM181.388 352.158h-1.545c-6.843 0-12.39-5.547-12.39-12.39v-1.545h-8.832v1.545c0 6.843-5.547 12.39-12.39 12.39h-1.544v8.832h1.544c6.843 0 12.39 5.547 12.39 12.39v1.545h8.832v-1.545c0-6.843 5.547-12.39 12.39-12.39h1.545zM90.005 281.102H88.46c-6.843 0-12.39-5.547-12.39-12.39v-1.545h-8.832v1.545c0 6.843-5.547 12.39-12.39 12.39h-1.545v8.832h1.545c6.843 0 12.39 5.547 12.39 12.39v1.545h8.832v-1.545c0-6.843 5.547-12.39 12.39-12.39h1.545z" fill="#fff"/><g><path d="M403.644 156.087h1.545c6.843 0 12.39-5.547 12.39-12.39v-1.545h8.832v1.545c0 6.843 5.547 12.39 12.39 12.39h1.545v8.832H438.8c-6.843 0-12.39 5.547-12.39 12.39v1.544h-8.832v-1.544c0-6.843-5.547-12.39-12.39-12.39h-1.545zM330.612 352.158h1.545c6.843 0 12.39-5.547 12.39-12.39v-1.545h8.832v1.545c0 6.843 5.547 12.39 12.39 12.39h1.544v8.832h-1.544c-6.843 0-12.39 5.547-12.39 12.39v1.545h-8.832v-1.545c0-6.843-5.547-12.39-12.39-12.39h-1.545zM421.995 281.102h1.545c6.843 0 12.39-5.547 12.39-12.39v-1.545h8.832v1.545c0 6.843 5.547 12.39 12.39 12.39h1.545v8.832h-1.545c-6.843 0-12.39 5.547-12.39 12.39v1.545h-8.832v-1.545c0-6.843-5.547-12.39-12.39-12.39h-1.545z" fill="#fff"/></g><g><path d="M325.592 474.167c-.493 4.372-4.343 7.58-8.737 7.58h-121.71c-4.394 0-8.244-3.208-8.737-7.58a8.55 8.55 0 0 1 5.83-9.1l14.087-4.584c18.348-5.972 30.774-23.074 30.774-42.377v-143.43H274.9l.362 143.601c.04 19.213 12.397 36.244 30.654 42.246l13.844 4.544a8.55 8.55 0 0 1 5.831 9.1z" fill="#fed500"/><path d="M325.592 474.167c-.493 4.372-4.343 7.58-8.737 7.58H256V274.676h18.901l.362 143.601c.04 19.213 12.397 36.244 30.654 42.246l13.844 4.544a8.55 8.55 0 0 1 5.831 9.1z" fill="#ffbc00"/><path d="M299.785 222.565v109.669c0 9.588-7.777 17.365-17.366 17.365h-52.838c-9.589 0-17.366-7.777-17.366-17.365v-109.67z" fill="#ff9100"/><path d="M299.785 222.565v109.669c0 9.588-7.777 17.365-17.366 17.365H256V222.565z" fill="#ff8100"/><path d="M369.28 106.778v106.184c0 62.56-50.714 113.273-113.28 113.28h-.056c-62.719-.035-113.224-51.644-113.224-114.363V106.778z" fill="#fed500"/><path d="M369.28 106.778v106.184c0 62.56-50.714 113.273-113.28 113.28h-.056c-30.266-.07-54.63-51.665-54.63-114.363V106.778z" fill="#ffbc00"/><path d="M369.28 106.778v106.184c0 62.56-50.714 113.273-113.28 113.28V106.778z" fill="#ff9100"/><path d="M386.124 109.306a20.16 20.16 0 0 1-5.922 14.296 20.15 20.15 0 0 1-14.289 5.916H146.088c-11.165 0-20.212-9.047-20.212-20.212a20.156 20.156 0 0 1 5.922-14.297 20.15 20.15 0 0 1 14.289-5.915h219.825c11.166 0 20.212 9.046 20.212 20.212z" fill="#ffe164"/><path d="M365.962 472.97C332.94 489.747 295.577 499.2 256 499.2c-19.485 0-38.437-2.29-56.591-6.631a241.319 241.319 0 0 1-53.381-19.608 17.42 17.42 0 0 1 15.076-8.654h189.791c6.432 0 12.046 3.476 15.067 8.663z" fill="#fed500"/><path d="M365.962 472.97C332.94 489.747 295.577 499.2 256 499.2c-19.485 0-38.437-2.29-56.591-6.631a17.312 17.312 0 0 1-3.762-10.82 17.39 17.39 0 0 1 5.11-12.341 17.381 17.381 0 0 1 12.331-5.102h137.807c6.432 0 12.046 3.477 15.067 8.664z" fill="#ffbc00"/><path d="M386.124 109.306a20.16 20.16 0 0 1-5.922 14.296 20.15 20.15 0 0 1-14.289 5.916H202.724c-11.158 0-20.205-9.047-20.205-20.212a20.128 20.128 0 0 1 5.923-14.297 20.135 20.135 0 0 1 14.282-5.915h163.188c11.166 0 20.212 9.046 20.212 20.212z" fill="#fed500"/><path d="M386.124 109.306a20.16 20.16 0 0 1-5.922 14.296 20.15 20.15 0 0 1-14.289 5.916H256V89.094h109.912c11.166 0 20.212 9.046 20.212 20.212z" fill="#ffbc00"/><g transform="matrix(.95 0 0 .95 12.8 12.8)"><circle cx="146.547" cy="101.331" fill="#ffbc00" r="8.287"/><circle cx="173.91" cy="101.331" fill="#ffbc00" r="8.287"/><circle cx="201.274" cy="101.331" fill="#ffbc00" r="8.287"/><circle cx="228.637" cy="101.331" fill="#ffbc00" r="8.287"/><g fill="#ff9100"><circle cx="256" cy="101.329" r="8.288"/><circle cx="283.363" cy="101.331" r="8.287"/><circle cx="310.726" cy="101.331" r="8.287"/><circle cx="338.09" cy="101.331" r="8.287"/><circle cx="365.453" cy="101.331" r="8.287"/></g></g><g><path d="M263.874 109.063a7.876 7.876 0 0 1-7.874 7.873V101.19a7.876 7.876 0 0 1 7.874 7.874z" fill="#ff9100"/></g><g><path d="M271.861 190.915V170.47c0-6.229-5.049-11.278-11.278-11.278h-9.167c-6.228 0-11.278 5.05-11.278 11.278v20.445h-20.445c-6.228 0-11.278 5.049-11.278 11.277v9.167c0 6.228 5.05 11.278 11.278 11.278h20.445v59.646c0 6.228 5.05 11.277 11.278 11.277h9.167c6.228 0 11.278-5.05 11.278-11.277v-59.646h20.445c6.228 0 11.278-5.05 11.278-11.278v-9.167c0-6.228-5.05-11.277-11.278-11.277z" fill="#964235"/><path d="M271.861 190.915V170.47c0-6.229-5.049-11.278-11.278-11.278h-4.58v134.37h4.58c6.228 0 11.278-5.05 11.278-11.277v-59.646h20.445c6.228 0 11.278-5.05 11.278-11.279v-9.166c0-6.228-5.05-11.278-11.278-11.278h-20.445z" fill="#87342b"/></g><g fill="#fff" transform="matrix(.95 0 0 .95 12.8 12.8)"><circle cx="168.198" cy="204.06" transform="rotate(-89.2 168.173 204.04)" r="16.742"/><circle cx="343.802" cy="204.06" transform="rotate(-87.42 343.847 204.046)" r="16.742"/></g><path d="M280.46 420.861a6.003 6.003 0 0 1-5.991 5.73h-36.938a6.002 6.002 0 0 1-5.992-5.73c-.572-12.366-.572-31.612 0-43.958a6.003 6.003 0 0 1 5.992-5.73h36.938a6.002 6.002 0 0 1 5.992 5.73c.573 12.346.573 31.592 0 43.958z" fill="#ff9100"/><g><path d="M280.46 420.861a6.003 6.003 0 0 1-5.991 5.73H256v-55.42h18.469a6.002 6.002 0 0 1 5.992 5.73c.573 12.348.573 31.594 0 43.96z" fill="#ff8100"/></g><g><path d="M365.962 472.97C332.94 489.747 295.577 499.2 256 499.2v-34.894h94.895c6.432 0 12.046 3.477 15.067 8.664z" fill="#ff9100"/></g></g></g></svg>