<svg xmlns="http://www.w3.org/2000/svg" width="512" height="512" style="enable-background:new 0 0 512 512" xml:space="preserve"><circle r="256" cx="256" cy="256" fill="#3e8ed0"/><g xmlns="http://www.w3.org/2000/svg"><path d="M324.248 65.332C311.524 81.938 291.372 92.6 268.938 92.6h-13.134v-5.096z" fill="#fac601"/><path d="M499.2 256c0 40.698-10.003 79.059-27.673 112.765l-.01.01-2.508 1.51c-131.014 79.296-295.155 79.543-426.408.655l-1.425-.855C23.06 336.056 12.8 297.23 12.8 256c0-43.909 11.637-85.092 31.996-120.65C86.71 62.133 165.598 12.8 256 12.8s169.29 49.333 211.204 122.55C487.562 170.908 499.2 212.091 499.2 256z" fill="#63dbfa"/><path d="M499.2 256c0 40.698-9.994 79.059-27.673 112.765l-2.518 1.52c-131.014 79.296-295.155 79.543-426.408.655l-1.425-.855C23.06 336.066 12.8 297.23 12.8 256c0-43.909 11.637-85.092 31.996-120.65C86.71 208.566 165.598 257.9 256 257.9s169.29-49.334 211.204-122.55C487.562 170.908 499.2 212.091 499.2 256z" fill="#04d0fc"/><path d="M165.304 417.481H74.15a243.17 243.17 0 0 1-32.974-47.395A44.334 44.334 0 0 1 69.04 360.3a44.334 44.334 0 0 1 18.753 4.132 29.923 29.923 0 0 1 17.385-5.538c16.616 0 30.087 13.47 30.087 30.086 16.083 0 29.222 12.625 30.039 28.5z" fill="#0f7793"/><path d="M135.588 417.481H74.15a242.09 242.09 0 0 1-21.698-28.358 28.79 28.79 0 0 1 20.691-8.73c4.351 0 8.464.96 12.17 2.679a19.382 19.382 0 0 1 11.267-3.591c10.782 0 19.522 8.74 19.522 19.513 10.431 0 18.953 8.189 19.485 18.487z" fill="#005b79"/><path d="M145.678 168.515c0-.061.005-.122.005-.184 0-11.316-9.174-20.49-20.49-20.49a20.42 20.42 0 0 0-7.606 1.464c-4.544-8.14-13.238-13.647-23.223-13.647-12.965 0-23.757 9.285-26.103 21.569-.7-.1-1.414-.155-2.14-.155-7.05 0-12.956 4.88-14.535 11.445h94.092z" fill="#fff"/><path d="M125.686 168.515c0-.036.003-.07.003-.106 0-6.507-5.276-11.783-11.783-11.783-1.546 0-3.021.301-4.374.842-2.613-4.68-7.612-7.848-13.353-7.848-7.456 0-13.661 5.339-15.01 12.402a8.611 8.611 0 0 0-1.23-.09c-4.054 0-7.45 2.807-8.359 6.583h54.106z" fill="#dff7fd"/><path d="M294.823 160.31c0-.047.004-.093.004-.14 0-8.49-6.883-15.372-15.373-15.372-2.017 0-3.942.392-5.707 1.098-3.409-6.107-9.931-10.24-17.422-10.24-9.728 0-17.824 6.967-19.584 16.182a11.324 11.324 0 0 0-1.606-.116c-5.289 0-9.72 3.662-10.904 8.587z" fill="#fff"/><path d="M279.824 160.31l.002-.08a8.84 8.84 0 0 0-12.121-8.208 11.462 11.462 0 0 0-10.019-5.889c-5.593 0-10.25 4.007-11.261 9.306a6.452 6.452 0 0 0-7.193 4.87z" fill="#dff7fd"/><path d="M320.271 99.551c.001-.092.007-.183.007-.275 0-16.915-13.712-30.627-30.626-30.627a30.52 30.52 0 0 0-11.368 2.188c-6.791-12.166-19.786-20.399-34.71-20.399-19.38 0-35.51 13.879-39.017 32.237a22.485 22.485 0 0 0-3.198-.231c-10.537 0-19.365 7.294-21.725 17.106h140.637z" fill="#fff"/><path d="M290.39 99.551c0-.053.003-.105.003-.158 0-9.727-7.885-17.612-17.611-17.612-2.31 0-4.516.45-6.537 1.26-3.906-6.998-11.377-11.731-19.96-11.731-11.143 0-20.419 7.98-22.435 18.537a13.056 13.056 0 0 0-1.84-.133c-6.058 0-11.134 4.194-12.492 9.837z" fill="#dff7fd"/><g><path d="M162.05 220.103h185.015v69.377H162.05z" fill="#5a4f5b"/><path d="M190.775 220.103l-.15 69.376h156.44v-69.376z" fill="#87342b"/><path d="M162.05 289.482h185.016v128.002H162.05z" fill="#c5ecfb"/><path d="M179.623 137.25v8.097a1.76 1.76 0 0 1-1.759 1.758h-9.855v34.664h-11.614v-34.664h-9.855a1.76 1.76 0 0 1-1.758-1.758v-8.097c0-.97.788-1.758 1.758-1.758h9.855v-9.856c0-.97.789-1.758 1.759-1.758h8.097c.97 0 1.758.788 1.758 1.758v9.856h9.855c.97 0 1.759.788 1.759 1.758z" fill="#1a3760"/><path d="M179.623 137.25v8.097a1.76 1.76 0 0 1-1.759 1.758h-9.855v34.664h-5.805v-57.892h4.047c.97 0 1.758.788 1.758 1.758v9.856h9.855c.97 0 1.759.789 1.759 1.759z" fill="#162352"/><path d="M236.69 249.61l-.027 14.191-.056 25.68-.028 13.076-.262 108.652-.013 6.276H86.95l.015-6.276.275-108.652.028-13.075.055-26.011.027-14.192 16.165-16.095 58.629-58.381.027-.028.015.014 58.145 58.395z" fill="#fff"/><path d="M236.69 249.61l-.027 14.191-.056 25.68-.028 13.076-.262 108.652-.013 6.276H161.62l.015-6.193v-.083l.18-68.987.082-39.665.013-5.986.014-7.09.11-50.312.014-5.985.097-44.217v-1.075l.027-13.117.015.014 58.145 58.395z" fill="#d0f6ff"/><path d="M437.849 417.481c-44.441 50.008-109.193 81.567-181.327 81.719H256c-72.343 0-137.304-31.587-181.849-81.719z" fill="#c4f258"/><path d="M258.323 262.931l-8.413 8.376a4.095 4.095 0 0 1-5.792-.012l-81.968-82.329-82.328 81.968a4.095 4.095 0 0 1-5.792-.012l-8.376-8.414a4.095 4.095 0 0 1 .013-5.79l90.012-89.618c1.802-1.795 4.161-2.691 6.526-2.687s4.72.913 6.514 2.715l89.617 90.013a4.094 4.094 0 0 1-.013 5.79z" fill="#a44f3e"/><path d="M258.323 262.931l-8.413 8.376a4.095 4.095 0 0 1-5.792-.012l-81.968-82.329.055-24.553a9.188 9.188 0 0 1 6.514 2.715l89.617 90.013a4.094 4.094 0 0 1-.013 5.79z" fill="#964235"/><path d="M201.19 358.896l-.07 30.48-.069 21.833v.165l-.013 6.11h-78.82l.013-6.276.083-21.998.055-30.48c.028-9.158 7.476-16.577 16.633-16.564l16.164.042 13.295.027 16.165.042c9.158.014 16.577 7.461 16.564 16.62z" fill="#a44f3e"/><path d="M201.19 358.896l-.07 30.48-.069 21.833v.165l-.013 6.11H161.62l.014-6.193v-.083l.18-68.987 6.646.013 16.165.042c9.159.015 16.578 7.462 16.565 16.62z" fill="#964235"/><path d="M168.461 342.236l-.18 68.973v.097l-.013 6.179h-13.281l.014-6.207v-.069l.165-69z" fill="#964235"/><path d="M168.461 342.236l-.18 68.973v.097l-.013 6.179h-6.648l.015-6.193v-.083l.18-68.987z" fill="#87342b"/><path d="M162.042 239.166h-.064c-15.799 0-28.673 12.84-28.71 28.644-.036 15.827 12.818 28.738 28.645 28.766h.065c7.644 0 14.838-2.965 20.254-8.36 5.43-5.41 8.433-12.61 8.454-20.276.029-15.834-12.817-28.738-28.644-28.774z" fill="#fff"/><path d="M162.056 233.184h-.078c-19.095 0-34.649 15.511-34.692 34.612-.036 19.13 15.49 34.72 34.613 34.763h.079c9.234 0 17.926-3.59 24.474-10.103 6.563-6.541 10.188-15.246 10.21-24.51.043-19.121-15.483-34.72-34.606-34.762zm21.58 28.602H167.99v-15.598c7.566 2.099 13.527 8.053 15.648 15.598zm-15.647 27.777v-15.598h15.662a22.39 22.39 0 0 1-5.796 9.859 22.36 22.36 0 0 1-9.866 5.739zm-27.677-15.598h15.497v15.547c-7.487-2.134-13.383-8.053-15.497-15.547zm15.497-12.18h-15.497c2.114-7.5 8.017-13.42 15.497-15.554z" fill="#1a3760"/><path d="M162.056 233.184h-.007l-.014 5.982-.122 57.41-.014 5.983h.079c9.234 0 17.926-3.59 24.474-10.103 6.563-6.541 10.188-15.246 10.21-24.51.043-19.121-15.483-34.72-34.606-34.762zm5.933 56.379v-15.598h15.662a22.39 22.39 0 0 1-5.796 9.859 22.36 22.36 0 0 1-9.866 5.739zm15.648-27.777h-15.648v-15.598c7.566 2.099 13.527 8.053 15.648 15.598z" fill="#162352"/><g><path d="M385.27 58.42v8.176c0 .98-.796 1.775-1.775 1.775h-9.951v35h-11.727v-35h-9.952c-.979 0-1.775-.796-1.775-1.775V58.42c0-.98.796-1.776 1.775-1.776h9.952v-9.95c0-.98.796-1.776 1.775-1.776h8.176c.98 0 1.776.796 1.776 1.775v9.951h9.95c.98 0 1.776.796 1.776 1.776z" fill="#1a3760"/><path d="M385.27 58.42v8.176c0 .98-.796 1.775-1.775 1.775h-9.951v35h-5.862V44.917h4.086c.98 0 1.776.796 1.776 1.775v9.951h9.95c.98 0 1.776.796 1.776 1.776z" fill="#162352"/><path d="M313.584 185.274h108.208v232.207H313.584z" fill="#fff"/><path d="M367.685 185.274h54.107v232.207h-54.107z" fill="#d0f6ff"/><path d="M398.924 336.223c-1.972-15.475-15.227-27.473-31.24-27.473s-29.266 11.998-31.238 27.473c-.276 2.124 1.338 4.013 3.49 4.013h55.512c2.138 0 3.751-1.89 3.476-4.013z" fill="#92eaff"/><path d="M395.448 340.236h-27.763v-31.487c16.012 0 29.266 11.998 31.239 27.473.275 2.124-1.338 4.014-3.476 4.014z" fill="#63dbfa"/><path d="M421.791 185.274H313.583l47.545-97.339c1.333-2.736 3.94-4.098 6.556-4.098h.022c2.607 0 5.209 1.368 6.541 4.098z" fill="#a44f3e"/><path d="M421.791 185.274h-81.154l23.772-97.339c.667-2.736 1.97-4.098 3.275-4.098h.022c2.607 0 5.209 1.368 6.541 4.098z" fill="#964235"/><path d="M421.791 185.274h-54.107V83.837c2.615-.006 5.23 1.362 6.562 4.098z" fill="#87342b"/><path d="M398.924 229.59c-1.972-15.474-15.227-27.472-31.24-27.472s-29.266 11.998-31.238 27.473c-.276 2.124 1.338 4.014 3.49 4.014h55.512c2.138 0 3.751-1.89 3.476-4.014z" fill="#92eaff"/><path d="M395.448 233.605h-27.763v-31.487c16.012 0 29.266 11.998 31.239 27.473.275 2.124-1.338 4.014-3.476 4.014z" fill="#63dbfa"/><path d="M386.706 233.608v34.519c0 4.363-3.54 7.91-7.91 7.91h-22.218a7.912 7.912 0 0 1-7.91-7.91v-34.52c0-10.503 8.513-19.021 19.016-19.021 5.251 0 10.01 2.128 13.448 5.574a18.939 18.939 0 0 1 5.574 13.448z" fill="#1a3760"/><path d="M386.706 233.608v34.519c0 4.363-3.54 7.91-7.91 7.91h-11.112v-61.452c5.251 0 10.01 2.128 13.448 5.574a18.943 18.943 0 0 1 5.574 13.449z" fill="#162352"/><path d="M391.47 273.988v12.567a6.29 6.29 0 0 1-6.29 6.29h-34.986a6.29 6.29 0 0 1-6.29-6.29v-12.567z" fill="#d0f6ff"/><path d="M391.47 273.988v12.567a6.29 6.29 0 0 1-6.29 6.29h-17.497v-18.857z" fill="#c5ecfb"/><path d="M399.186 268.564v10.854a2.257 2.257 0 0 1-2.257 2.258h-58.485a2.257 2.257 0 0 1-2.257-2.258v-10.854a2.257 2.257 0 0 1 2.257-2.257h58.485a2.257 2.257 0 0 1 2.257 2.257z" fill="#92eaff"/><path d="M399.186 268.564v10.854a2.257 2.257 0 0 1-2.257 2.258h-29.246v-15.368h29.246a2.256 2.256 0 0 1 2.257 2.256z" fill="#63dbfa"/><g><path d="M386.706 340.247v34.52c0 4.362-3.54 7.909-7.91 7.909h-22.218a7.912 7.912 0 0 1-7.91-7.91v-34.52c0-10.502 8.513-19.02 19.016-19.02 5.251 0 10.01 2.127 13.448 5.573a18.941 18.941 0 0 1 5.574 13.448z" fill="#1a3760"/><path d="M386.706 340.247v34.52c0 4.362-3.54 7.909-7.91 7.909h-11.112v-61.45c5.251 0 10.01 2.127 13.448 5.573a18.941 18.941 0 0 1 5.574 13.448z" fill="#162352"/><path d="M391.47 380.627v12.566a6.29 6.29 0 0 1-6.29 6.291h-34.986a6.29 6.29 0 0 1-6.29-6.29v-12.567z" fill="#d0f6ff"/><path d="M391.47 380.627v12.566a6.29 6.29 0 0 1-6.29 6.291h-17.497v-18.857z" fill="#c5ecfb"/><path d="M399.186 375.203v10.855a2.257 2.257 0 0 1-2.257 2.257h-58.485a2.257 2.257 0 0 1-2.257-2.257v-10.855a2.257 2.257 0 0 1 2.257-2.257h58.485a2.257 2.257 0 0 1 2.257 2.257z" fill="#92eaff"/><path d="M399.186 375.203v10.855a2.257 2.257 0 0 1-2.257 2.257h-29.246v-15.368h29.246a2.256 2.256 0 0 1 2.257 2.256z" fill="#63dbfa"/></g></g></g><g><path d="M437.849 417.481c-44.441 50.008-109.193 81.567-181.327 81.719l-.18-81.719z" fill="#b9d845"/></g><g><path d="M471.526 368.765a242.33 242.33 0 0 1-13.129 22.116 243.97 243.97 0 0 1-20.548 26.6h-97.641c4.275-11.98 15.656-20.587 29.08-20.758 3.828-20.719 21.992-36.423 43.823-36.423a44.334 44.334 0 0 1 18.753 4.133 29.923 29.923 0 0 1 17.385-5.538c8.835 0 16.777 3.809 22.277 9.87z" fill="#0f7793"/><path d="M458.397 390.881a243.97 243.97 0 0 1-20.548 26.6h-67.915c2.773-7.771 10.155-13.357 18.857-13.461 2.48-13.443 14.26-23.627 28.424-23.627 4.351 0 8.474.96 12.17 2.679a19.39 19.39 0 0 1 11.276-3.591c7.875 0 14.668 4.674 17.736 11.4z" fill="#005b79"/></g></g></svg>