<svg xmlns="http://www.w3.org/2000/svg" width="512" height="512" style="enable-background:new 0 0 512 512" xml:space="preserve"><circle r="256" cx="256" cy="256" fill="#48c774"/><g xmlns="http://www.w3.org/2000/svg"><path d="M436.526 299.918c0 69.727-40.3 133.638-103.979 163.44a180.534 180.534 0 0 1-153.094 0l-.02-.01c-66.627-31.2-107.657-99.722-103.695-173.198L87.006 81.12C130.762 38.821 190.346 12.8 256 12.8c65.664 0 125.248 26.022 168.994 68.32l11.268 209.05c.172 3.263.264 6.505.264 9.748z" fill="#9bc6f9"/><path d="M436.526 299.918c0 69.727-40.3 133.638-103.979 163.44a180.534 180.534 0 0 1-153.094 0l-.02-.01c-66.627-31.2-107.657-99.722-103.695-173.198l5.716-106.096c36.247 37.341 84.36 63.1 138.259 71.156A244.766 244.766 0 0 0 256 257.905c12.353 0 24.502-.923 36.358-2.706 53.87-8.076 101.962-33.825 138.188-71.146l5.716 106.116c.172 3.264.264 6.506.264 9.749z" fill="#83b2ff"/><g fill="#4e444f"><path d="M263.348 233.856h-14.37v-92.715a7.185 7.185 0 1 1 14.37 0z"/><path d="M273.319 168.757h-34.31a7.185 7.185 0 1 1 0-14.37h34.31a7.185 7.185 0 1 1 0 14.37z"/></g><path d="M90.953 280.534H421.04v73.235H90.953z" fill="#5a4f5b"/><path d="M256.057 280.534l-.159 73.235H421.04v-73.235z" fill="#4e444f"/><path d="M421.042 353.766v80.854a243.043 243.043 0 0 1-35.345 27.147c-18.331 11.572-38.294 20.774-59.493 27.127H185.735c-35.77-10.772-68.055-29.559-94.787-54.274v-80.854z" fill="#a58a81"/><path d="M421.042 353.766v80.854a243.043 243.043 0 0 1-35.345 27.147c-18.331 11.572-38.294 20.774-59.493 27.127h-63.769l-6.85-.01.04-20.338v-.09l.183-72.82.091-41.87h165.143z" fill="#967d77"/><path d="M334.847 297.88l-.03 14.968-.091 40.918-.244 132.494a240.37 240.37 0 0 1-27.127 7.509v-.01h-16.872a3.482 3.482 0 0 0-3.476 3.475A244.623 244.623 0 0 1 256 499.2c-10.792 0-21.412-.7-31.818-2.057v-.01a3.553 3.553 0 0 0-3.557-3.547h-16.791c-9.201-2.006-18.22-4.54-26.996-7.57l.244-132.25.09-41.263.031-14.977 17.075-16.993 25.434-25.323 36.45-36.298.03-.03h.01l36.156 36.317 25.222 25.334z" fill="#c8b2a7"/><path d="M334.847 297.88l-.03 14.968-.091 40.918-.274 114.69-.01 17.803a228.251 228.251 0 0 1-8.239 2.634 243.489 243.489 0 0 1-18.848 4.864h-16.872a3.482 3.482 0 0 0-3.476 3.476A242.97 242.97 0 0 1 256 499.2h-.395l.02-30.654v-.09l.182-72.82.091-41.87.01-6.313.133-60.607.02-6.313.101-46.675v-1.135l.03-13.842h.011l61.378 61.65z" fill="#b79c91"/><path d="M357.685 311.936l-8.88 8.842a4.323 4.323 0 0 1-6.114-.014l-86.527-86.909-86.908 86.527a4.323 4.323 0 0 1-6.113-.013l-8.841-8.88a4.323 4.323 0 0 1 .013-6.114l95.019-94.602c1.903-1.894 4.393-2.841 6.888-2.835s4.982.964 6.876 2.866l94.602 95.019a4.324 4.324 0 0 1-.015 6.113z" fill="#685a69"/><path d="M357.685 311.936l-8.88 8.842a4.323 4.323 0 0 1-6.114-.014l-86.527-86.909.057-25.918a9.704 9.704 0 0 1 6.876 2.866l94.602 95.019a4.325 4.325 0 0 1-.014 6.114z" fill="#5a4f5b"/><path d="M297.367 413.245l-.069 32.174-.076 23.04v.182l-.045 20.254v.076l-10.165-.022-24.422-.054h-.159l-6.852-.015-7.01-.015-24.423-.053-10.165-.023.046-20.33.076-23.223.068-32.173c.023-9.673 7.882-17.501 17.555-17.479l17.07.038 7.01.016 7.011.015 17.07.038c9.675.022 17.503 7.88 17.48 17.554z" fill="#685a69"/><path d="M297.367 413.245l-.069 32.174-.076 23.04v.182l-.045 20.254v.076l-10.165-.022-24.422-.054h-.159l-6.852-.015.046-20.33v-.091l.181-72.822 7.011.015 17.07.038c9.675.023 17.503 7.881 17.48 17.555z" fill="#5a4f5b"/><path d="M262.818 395.653l-.181 72.807v.105l-.046 20.33h-.159l-6.852-.015-7.01-.015.045-20.33v-.075l.181-72.838 7.011.016z" fill="#5a4f5b"/><path d="M262.818 395.653l-.181 72.807v.105l-.046 20.33h-.159l-6.852-.015.046-20.33v-.09l.181-72.822z" fill="#4e444f"/><path d="M256.05 286.85h-.069c-16.677 0-30.268 13.552-30.306 30.237-.038 16.707 13.53 30.336 30.238 30.366h.068c8.07 0 15.664-3.131 21.38-8.827 5.734-5.71 8.902-13.311 8.925-21.403.031-16.715-13.53-30.337-30.237-30.374z" fill="#fff"/><path d="M256.065 280.534h-.084c-20.156 0-36.575 16.374-36.62 36.538-.039 20.193 16.35 36.65 36.537 36.696h.083c9.749 0 18.923-3.79 25.836-10.663 6.928-6.906 10.755-16.095 10.778-25.874.045-20.187-16.345-36.652-36.53-36.697zm22.78 30.192h-16.518V294.26c7.987 2.217 14.278 8.502 16.518 16.466zm-16.518 29.322v-16.465h16.533a23.632 23.632 0 0 1-6.118 10.407 23.612 23.612 0 0 1-10.415 6.058zm-29.217-16.465h16.359v16.412c-7.903-2.253-14.128-8.5-16.36-16.412zm16.36-12.857h-16.36c2.232-7.919 8.464-14.166 16.36-16.42z" fill="#4e444f"/><path d="M256.065 280.534h-.008l-.015 6.315-.128 60.604-.016 6.315h.083c9.749 0 18.923-3.79 25.836-10.663 6.928-6.906 10.755-16.095 10.778-25.874.045-20.187-16.345-36.652-36.53-36.697zm6.262 59.514v-16.465h16.533a23.632 23.632 0 0 1-6.118 10.407 23.612 23.612 0 0 1-10.415 6.058zm16.518-29.322h-16.518V294.26c7.987 2.217 14.278 8.502 16.518 16.466z" fill="#433c44"/><g><path d="M499.2 256c0 59.25-21.189 113.554-56.392 155.74a292.427 292.427 0 0 1-3.222 3.78c-8.543 0-15.474 6.93-15.474 15.473v.74a243.534 243.534 0 0 1-38.415 30.035v-300.2h94.494C492.43 190.6 499.2 222.51 499.2 256z" fill="#b79c91"/><path d="M499.2 256c0 59.25-21.189 113.554-56.392 155.74V161.566h37.382C492.43 190.6 499.2 222.51 499.2 256z" fill="#a58a81"/><path d="M480.19 161.567h-94.494l39.297-80.449a241.337 241.337 0 0 1 7.154 7.205 248.57 248.57 0 0 1 10.66 11.958c15.312 18.341 27.969 38.963 37.383 61.286z" fill="#5a4f5b"/><path d="M480.19 161.567h-65.938l17.896-73.244a248.57 248.57 0 0 1 10.66 11.958c15.311 18.341 27.968 38.963 37.382 61.286z" fill="#4e444f"/><path d="M480.19 161.567h-37.382v-61.286c15.311 18.341 27.968 38.963 37.382 61.286z" fill="#3e373f"/><path d="M475.79 220.081c-2.088-16.343-16.08-29.012-32.984-29.012-16.896 0-30.888 12.669-32.975 29.012-.288 2.239 1.414 4.236 3.675 4.236h5.809c1.792 0 3.373-1.286 3.645-3.056h39.697l.001-.002.001.002c.265 1.77 1.853 3.056 3.645 3.056h5.809c2.262 0 3.964-1.997 3.676-4.236z" fill="#a58a81"/><path d="M472.113 224.317h-5.809c-1.792 0-3.38-1.286-3.645-3.056-1.474-9.643-9.802-17.017-19.853-17.017v-13.175c16.903 0 30.896 12.669 32.983 29.012.286 2.239-1.415 4.236-3.676 4.236z" fill="#967d77"/><path d="M462.885 224.317v36.439a8.352 8.352 0 0 1-8.35 8.35h-23.453a8.352 8.352 0 0 1-8.35-8.35v-36.44c0-11.087 8.986-20.08 20.073-20.08a19.988 19.988 0 0 1 14.196 5.885 19.992 19.992 0 0 1 5.884 14.196z" fill="#3b407a"/><path d="M462.885 224.317v36.439a8.352 8.352 0 0 1-8.35 8.35h-11.73v-64.87a19.988 19.988 0 0 1 14.196 5.884 19.996 19.996 0 0 1 5.884 14.197z" fill="#2f316e"/><path d="M467.915 266.942v13.266a6.64 6.64 0 0 1-6.64 6.64h-36.932a6.64 6.64 0 0 1-6.64-6.64v-13.266z" fill="#4e444f"/><path d="M467.915 266.942v13.266a6.64 6.64 0 0 1-6.64 6.64h-18.47v-19.906z" fill="#433c44"/><path d="M476.06 261.217v11.458a2.382 2.382 0 0 1-2.383 2.383H411.94a2.382 2.382 0 0 1-2.383-2.383v-11.458a2.382 2.382 0 0 1 2.383-2.382h61.737a2.382 2.382 0 0 1 2.383 2.382z" fill="#fff"/><path d="M476.06 261.217v11.458a2.382 2.382 0 0 1-2.383 2.383h-30.873v-16.223h30.873a2.382 2.382 0 0 1 2.383 2.382z" fill="#dfebff"/><g><path d="M472.711 366.474a238.822 238.822 0 0 1-7.863 14.216c-1.135-.466-1.997-1.49-2.189-2.746h-39.702a3.59 3.59 0 0 1-1.915 2.625 3.707 3.707 0 0 1-1.724.425h-5.817c-2.26 0-3.962-1.996-3.667-4.236 1.053-8.299 5.187-15.645 11.207-20.874a33.08 33.08 0 0 1 21.766-8.137c13.134 0 24.514 7.65 29.904 18.727z" fill="#a58a81"/><path d="M462.882 380.994v2.93a242.971 242.971 0 0 1-23.295 31.595c-6 0-11.197 3.415-13.761 8.401a8.355 8.355 0 0 1-3.09-6.486v-36.439c0-11.085 8.987-20.074 20.074-20.074a20 20 0 0 1 14.197 5.877 20.01 20.01 0 0 1 5.875 14.196z" fill="#3b407a"/><path d="M439.586 415.52a241.61 241.61 0 0 1-15.484 16.222h-12.16a2.385 2.385 0 0 1-2.381-2.381V417.9a2.379 2.379 0 0 1 2.382-2.382h27.643z" fill="#fff"/><path d="M462.882 380.994v2.93a242.971 242.971 0 0 1-20.073 27.815v-50.818a20 20 0 0 1 14.197 5.877 20.006 20.006 0 0 1 5.876 14.196z" fill="#2f316e"/><path d="M472.711 366.474a238.822 238.822 0 0 1-7.863 14.216c-1.135-.466-1.997-1.49-2.189-2.746-1.479-9.647-9.799-17.024-19.851-17.024v-13.174c13.133.001 24.513 7.652 29.903 18.728z" fill="#997d76"/></g></g><g><path d="M126.303 161.567v300.2a243.768 243.768 0 0 1-35.355-27.147c-1.023-.953-2.047-1.905-3.05-2.878v-.75c0-8.542-6.932-15.473-15.474-15.473v.01C35.286 372.828 12.8 317.034 12.8 256c0-33.49 6.769-65.4 19.01-94.433z" fill="#c8b2a7"/><path d="M126.303 161.567v300.2a243.768 243.768 0 0 1-35.355-27.147c-1.023-.953-2.047-1.905-3.05-2.878v-.75c0-8.542-6.932-15.473-15.474-15.473a230.57 230.57 0 0 1-3.242-3.8V161.567z" fill="#b79c91"/><path d="M126.303 161.567H31.81c12.86-30.491 31.758-57.81 55.196-80.449z" fill="#685a69"/><path d="M126.303 161.567H40.636l7.975-32.67A244.196 244.196 0 0 1 87.006 81.12z" fill="#5a4f5b"/><path d="M126.303 161.567H69.182v-61.265a245.374 245.374 0 0 1 17.824-19.183z" fill="#4e444f"/><path d="M102.17 220.081c-2.088-16.343-16.08-29.012-32.984-29.012-16.895 0-30.888 12.669-32.975 29.012-.288 2.239 1.414 4.236 3.675 4.236h5.809c1.792 0 3.373-1.286 3.645-3.056h39.7c.264 1.77 1.853 3.056 3.645 3.056h5.808c2.262 0 3.963-1.997 3.676-4.236z" fill="#b79c91"/><path d="M98.493 224.317h-5.808c-1.793 0-3.382-1.286-3.646-3.056-1.474-9.643-9.802-17.017-19.853-17.017v-13.175c16.904 0 30.896 12.669 32.983 29.012.287 2.239-1.414 4.236-3.676 4.236z" fill="#a58a81"/><path d="M89.266 224.317v36.439a8.352 8.352 0 0 1-8.35 8.35H57.464a8.352 8.352 0 0 1-8.35-8.35v-36.44c0-11.087 8.986-20.08 20.073-20.08a19.988 19.988 0 0 1 14.196 5.885 19.992 19.992 0 0 1 5.884 14.196z" fill="#3b407a"/><path d="M89.266 224.317v36.439a8.352 8.352 0 0 1-8.35 8.35h-11.73v-64.87a19.988 19.988 0 0 1 14.196 5.884 19.996 19.996 0 0 1 5.884 14.197z" fill="#2f316e"/><path d="M94.296 266.942v13.266a6.64 6.64 0 0 1-6.64 6.64H50.723a6.64 6.64 0 0 1-6.64-6.64v-13.266z" fill="#685a69"/><path d="M94.296 266.942v13.266a6.64 6.64 0 0 1-6.64 6.64h-18.47v-19.906z" fill="#5a4f5b"/><path d="M102.441 261.217v11.458a2.382 2.382 0 0 1-2.383 2.383H38.321a2.382 2.382 0 0 1-2.383-2.383v-11.458a2.382 2.382 0 0 1 2.383-2.382h61.737a2.382 2.382 0 0 1 2.383 2.382z" fill="#fff"/><path d="M102.441 261.217v11.458a2.382 2.382 0 0 1-2.383 2.383H69.186v-16.223h30.873a2.382 2.382 0 0 1 2.382 2.382z" fill="#dfebff"/><g><path d="M98.498 380.994H92.68a3.777 3.777 0 0 1-1.733-.425c-.993-.517-1.733-1.47-1.905-2.625H49.341c-.193 1.257-1.054 2.27-2.179 2.746a233.698 233.698 0 0 1-7.873-14.216c5.391-11.076 16.77-18.727 29.894-18.727 8.319 0 15.94 3.07 21.766 8.137 6.03 5.218 10.164 12.575 11.218 20.874.293 2.24-1.41 4.236-3.67 4.236z" fill="#b79c91"/><path d="M98.493 380.997h-5.808c-1.793 0-3.382-1.285-3.646-3.055-1.474-9.643-9.802-17.017-19.853-17.017V347.75c16.904 0 30.896 12.668 32.983 29.012.287 2.238-1.414 4.235-3.676 4.235z" fill="#a58a81"/><path d="M89.266 380.994v36.44a8.32 8.32 0 0 1-3.09 6.475 15.45 15.45 0 0 0-13.75-8.39 230.57 230.57 0 0 1-3.243-3.8 243.693 243.693 0 0 1-20.064-27.806v-2.919c0-11.085 8.979-20.074 20.064-20.074 5.544 0 10.57 2.239 14.197 5.878 3.637 3.638 5.886 8.654 5.886 14.196z" fill="#3b407a"/><path d="M89.266 380.994v36.44a8.32 8.32 0 0 1-3.09 6.475 15.45 15.45 0 0 0-13.75-8.39 230.57 230.57 0 0 1-3.243-3.8v-50.8c5.544 0 10.57 2.24 14.197 5.879 3.637 3.638 5.886 8.654 5.886 14.196z" fill="#2f316e"/><path d="M102.44 417.9v11.46a2.385 2.385 0 0 1-2.382 2.382h-12.16a238.635 238.635 0 0 1-15.474-16.223h27.634a2.379 2.379 0 0 1 2.381 2.38z" fill="#fff"/><path d="M102.44 417.9v11.46a2.385 2.385 0 0 1-2.382 2.382h-12.16a244.595 244.595 0 0 1-8.107-8.116 243.85 243.85 0 0 1-7.367-8.107h27.634a2.379 2.379 0 0 1 2.381 2.38z" fill="#dfebff"/></g></g><path d="M353.675 478.791a238.406 238.406 0 0 1-27.471 10.103 239.462 239.462 0 0 1-18.878 4.864h-16.842a3.482 3.482 0 0 0-3.476 3.476c-1.763.224-3.537.436-5.31.619l-.913.091c-1.783.182-3.587.354-5.39.497-.112 0-.224.01-.325.02-1.661.132-3.324.233-4.996.334-.415.02-.831.041-1.246.072-1.783.09-3.557.171-5.35.223-2.482.07-4.975.11-7.478.11h-.395c-2.422 0-4.834-.04-7.235-.122a243.998 243.998 0 0 1-24.188-1.945c0-.476-.102-.943-.274-1.358 0-.01-.01-.02-.01-.03-.041-.08-.092-.163-.132-.243a3.55 3.55 0 0 0-3.142-1.916h-16.791a234.405 234.405 0 0 1-18.099-4.692 238.336 238.336 0 0 1-27.562-10.173l55.855.02v-.071l10.164.03 14.957.05z" fill="#4e444f"/><path d="M297.222 478.893l-.02 14.865h-6.718a3.482 3.482 0 0 0-3.476 3.476A242.97 242.97 0 0 1 256 499.2h-.406l.03-20.44 7.013.02 24.421.081z" fill="#433c44"/><g><path d="M224.262 449.88l-.08 47.262a239.37 239.37 0 0 1-20.348-3.557l.101-43.745a4.628 4.628 0 0 1 4.632-4.62l11.076.03a4.628 4.628 0 0 1 4.62 4.63z" fill="#fff"/><path d="M307.447 450.063l-.071 28.607-.02 15.088a240.28 240.28 0 0 1-20.347 3.476l.05-18.412v-.152l.061-28.656a4.632 4.632 0 0 1 4.631-4.61l5.553.02 5.533.01c2.543-.001 4.61 2.076 4.61 4.63z" fill="#dfebff"/></g></g></svg>